%TF.GenerationSoftware,KiCad,Pcbnew,8.0.5-dirty*%
%TF.CreationDate,2024-10-12T09:21:06-05:00*%
%TF.ProjectId,sweeppp,73776565-7070-4702-9e6b-696361645f70,v1.0.0*%
%TF.SameCoordinates,Original*%
%TF.FileFunction,Legend,Top*%
%TF.FilePolarity,Positive*%
%FSLAX46Y46*%
G04 Gerber Fmt 4.6, Leading zero omitted, Abs format (unit mm)*
G04 Created by KiCad (PCBNEW 8.0.5-dirty) date 2024-10-12 09:21:06*
%MOMM*%
%LPD*%
G01*
G04 APERTURE LIST*
%ADD10C,0.150000*%
%ADD11C,0.100000*%
%ADD12C,0.120000*%
G04 APERTURE END LIST*
D10*
X189895830Y-53505393D02*
X189895830Y-52505393D01*
X189895830Y-52505393D02*
X190276782Y-52505393D01*
X190276782Y-52505393D02*
X190372020Y-52553012D01*
X190372020Y-52553012D02*
X190419639Y-52600631D01*
X190419639Y-52600631D02*
X190467258Y-52695869D01*
X190467258Y-52695869D02*
X190467258Y-52838726D01*
X190467258Y-52838726D02*
X190419639Y-52933964D01*
X190419639Y-52933964D02*
X190372020Y-52981583D01*
X190372020Y-52981583D02*
X190276782Y-53029202D01*
X190276782Y-53029202D02*
X189895830Y-53029202D01*
X191038687Y-52933964D02*
X190943449Y-52886345D01*
X190943449Y-52886345D02*
X190895830Y-52838726D01*
X190895830Y-52838726D02*
X190848211Y-52743488D01*
X190848211Y-52743488D02*
X190848211Y-52695869D01*
X190848211Y-52695869D02*
X190895830Y-52600631D01*
X190895830Y-52600631D02*
X190943449Y-52553012D01*
X190943449Y-52553012D02*
X191038687Y-52505393D01*
X191038687Y-52505393D02*
X191229163Y-52505393D01*
X191229163Y-52505393D02*
X191324401Y-52553012D01*
X191324401Y-52553012D02*
X191372020Y-52600631D01*
X191372020Y-52600631D02*
X191419639Y-52695869D01*
X191419639Y-52695869D02*
X191419639Y-52743488D01*
X191419639Y-52743488D02*
X191372020Y-52838726D01*
X191372020Y-52838726D02*
X191324401Y-52886345D01*
X191324401Y-52886345D02*
X191229163Y-52933964D01*
X191229163Y-52933964D02*
X191038687Y-52933964D01*
X191038687Y-52933964D02*
X190943449Y-52981583D01*
X190943449Y-52981583D02*
X190895830Y-53029202D01*
X190895830Y-53029202D02*
X190848211Y-53124440D01*
X190848211Y-53124440D02*
X190848211Y-53314916D01*
X190848211Y-53314916D02*
X190895830Y-53410154D01*
X190895830Y-53410154D02*
X190943449Y-53457774D01*
X190943449Y-53457774D02*
X191038687Y-53505393D01*
X191038687Y-53505393D02*
X191229163Y-53505393D01*
X191229163Y-53505393D02*
X191324401Y-53457774D01*
X191324401Y-53457774D02*
X191372020Y-53410154D01*
X191372020Y-53410154D02*
X191419639Y-53314916D01*
X191419639Y-53314916D02*
X191419639Y-53124440D01*
X191419639Y-53124440D02*
X191372020Y-53029202D01*
X191372020Y-53029202D02*
X191324401Y-52981583D01*
X191324401Y-52981583D02*
X191229163Y-52933964D01*
X189895828Y-45885393D02*
X189895828Y-44885393D01*
X189895828Y-44885393D02*
X190276780Y-44885393D01*
X190276780Y-44885393D02*
X190372018Y-44933012D01*
X190372018Y-44933012D02*
X190419637Y-44980631D01*
X190419637Y-44980631D02*
X190467256Y-45075869D01*
X190467256Y-45075869D02*
X190467256Y-45218726D01*
X190467256Y-45218726D02*
X190419637Y-45313964D01*
X190419637Y-45313964D02*
X190372018Y-45361583D01*
X190372018Y-45361583D02*
X190276780Y-45409202D01*
X190276780Y-45409202D02*
X189895828Y-45409202D01*
X191372018Y-44885393D02*
X190895828Y-44885393D01*
X190895828Y-44885393D02*
X190848209Y-45361583D01*
X190848209Y-45361583D02*
X190895828Y-45313964D01*
X190895828Y-45313964D02*
X190991066Y-45266345D01*
X190991066Y-45266345D02*
X191229161Y-45266345D01*
X191229161Y-45266345D02*
X191324399Y-45313964D01*
X191324399Y-45313964D02*
X191372018Y-45361583D01*
X191372018Y-45361583D02*
X191419637Y-45456821D01*
X191419637Y-45456821D02*
X191419637Y-45694916D01*
X191419637Y-45694916D02*
X191372018Y-45790154D01*
X191372018Y-45790154D02*
X191324399Y-45837774D01*
X191324399Y-45837774D02*
X191229161Y-45885393D01*
X191229161Y-45885393D02*
X190991066Y-45885393D01*
X190991066Y-45885393D02*
X190895828Y-45837774D01*
X190895828Y-45837774D02*
X190848209Y-45790154D01*
X186453447Y-28105393D02*
X186120114Y-27629202D01*
X185882019Y-28105393D02*
X185882019Y-27105393D01*
X185882019Y-27105393D02*
X186262971Y-27105393D01*
X186262971Y-27105393D02*
X186358209Y-27153012D01*
X186358209Y-27153012D02*
X186405828Y-27200631D01*
X186405828Y-27200631D02*
X186453447Y-27295869D01*
X186453447Y-27295869D02*
X186453447Y-27438726D01*
X186453447Y-27438726D02*
X186405828Y-27533964D01*
X186405828Y-27533964D02*
X186358209Y-27581583D01*
X186358209Y-27581583D02*
X186262971Y-27629202D01*
X186262971Y-27629202D02*
X185882019Y-27629202D01*
X186834400Y-27819678D02*
X187310590Y-27819678D01*
X186739162Y-28105393D02*
X187072495Y-27105393D01*
X187072495Y-27105393D02*
X187405828Y-28105393D01*
X187643924Y-27105393D02*
X187882019Y-28105393D01*
X187882019Y-28105393D02*
X188072495Y-27391107D01*
X188072495Y-27391107D02*
X188262971Y-28105393D01*
X188262971Y-28105393D02*
X188501067Y-27105393D01*
X186382020Y-29693012D02*
X186286782Y-29645393D01*
X186286782Y-29645393D02*
X186143925Y-29645393D01*
X186143925Y-29645393D02*
X186001068Y-29693012D01*
X186001068Y-29693012D02*
X185905830Y-29788250D01*
X185905830Y-29788250D02*
X185858211Y-29883488D01*
X185858211Y-29883488D02*
X185810592Y-30073964D01*
X185810592Y-30073964D02*
X185810592Y-30216821D01*
X185810592Y-30216821D02*
X185858211Y-30407297D01*
X185858211Y-30407297D02*
X185905830Y-30502535D01*
X185905830Y-30502535D02*
X186001068Y-30597774D01*
X186001068Y-30597774D02*
X186143925Y-30645393D01*
X186143925Y-30645393D02*
X186239163Y-30645393D01*
X186239163Y-30645393D02*
X186382020Y-30597774D01*
X186382020Y-30597774D02*
X186429639Y-30550154D01*
X186429639Y-30550154D02*
X186429639Y-30216821D01*
X186429639Y-30216821D02*
X186239163Y-30216821D01*
X186858211Y-30645393D02*
X186858211Y-29645393D01*
X186858211Y-29645393D02*
X187429639Y-30645393D01*
X187429639Y-30645393D02*
X187429639Y-29645393D01*
X187905830Y-30645393D02*
X187905830Y-29645393D01*
X187905830Y-29645393D02*
X188143925Y-29645393D01*
X188143925Y-29645393D02*
X188286782Y-29693012D01*
X188286782Y-29693012D02*
X188382020Y-29788250D01*
X188382020Y-29788250D02*
X188429639Y-29883488D01*
X188429639Y-29883488D02*
X188477258Y-30073964D01*
X188477258Y-30073964D02*
X188477258Y-30216821D01*
X188477258Y-30216821D02*
X188429639Y-30407297D01*
X188429639Y-30407297D02*
X188382020Y-30502535D01*
X188382020Y-30502535D02*
X188286782Y-30597774D01*
X188286782Y-30597774D02*
X188143925Y-30645393D01*
X188143925Y-30645393D02*
X187905830Y-30645393D01*
X185810593Y-34725391D02*
X186143926Y-35725391D01*
X186143926Y-35725391D02*
X186477259Y-34725391D01*
X187382021Y-35630152D02*
X187334402Y-35677772D01*
X187334402Y-35677772D02*
X187191545Y-35725391D01*
X187191545Y-35725391D02*
X187096307Y-35725391D01*
X187096307Y-35725391D02*
X186953450Y-35677772D01*
X186953450Y-35677772D02*
X186858212Y-35582533D01*
X186858212Y-35582533D02*
X186810593Y-35487295D01*
X186810593Y-35487295D02*
X186762974Y-35296819D01*
X186762974Y-35296819D02*
X186762974Y-35153962D01*
X186762974Y-35153962D02*
X186810593Y-34963486D01*
X186810593Y-34963486D02*
X186858212Y-34868248D01*
X186858212Y-34868248D02*
X186953450Y-34773010D01*
X186953450Y-34773010D02*
X187096307Y-34725391D01*
X187096307Y-34725391D02*
X187191545Y-34725391D01*
X187191545Y-34725391D02*
X187334402Y-34773010D01*
X187334402Y-34773010D02*
X187382021Y-34820629D01*
X188382021Y-35630152D02*
X188334402Y-35677772D01*
X188334402Y-35677772D02*
X188191545Y-35725391D01*
X188191545Y-35725391D02*
X188096307Y-35725391D01*
X188096307Y-35725391D02*
X187953450Y-35677772D01*
X187953450Y-35677772D02*
X187858212Y-35582533D01*
X187858212Y-35582533D02*
X187810593Y-35487295D01*
X187810593Y-35487295D02*
X187762974Y-35296819D01*
X187762974Y-35296819D02*
X187762974Y-35153962D01*
X187762974Y-35153962D02*
X187810593Y-34963486D01*
X187810593Y-34963486D02*
X187858212Y-34868248D01*
X187858212Y-34868248D02*
X187953450Y-34773010D01*
X187953450Y-34773010D02*
X188096307Y-34725391D01*
X188096307Y-34725391D02*
X188191545Y-34725391D01*
X188191545Y-34725391D02*
X188334402Y-34773010D01*
X188334402Y-34773010D02*
X188382021Y-34820629D01*
X186596305Y-33185393D02*
X186262972Y-32709202D01*
X186024877Y-33185393D02*
X186024877Y-32185393D01*
X186024877Y-32185393D02*
X186405829Y-32185393D01*
X186405829Y-32185393D02*
X186501067Y-32233012D01*
X186501067Y-32233012D02*
X186548686Y-32280631D01*
X186548686Y-32280631D02*
X186596305Y-32375869D01*
X186596305Y-32375869D02*
X186596305Y-32518726D01*
X186596305Y-32518726D02*
X186548686Y-32613964D01*
X186548686Y-32613964D02*
X186501067Y-32661583D01*
X186501067Y-32661583D02*
X186405829Y-32709202D01*
X186405829Y-32709202D02*
X186024877Y-32709202D01*
X186977258Y-33137774D02*
X187120115Y-33185393D01*
X187120115Y-33185393D02*
X187358210Y-33185393D01*
X187358210Y-33185393D02*
X187453448Y-33137774D01*
X187453448Y-33137774D02*
X187501067Y-33090154D01*
X187501067Y-33090154D02*
X187548686Y-32994916D01*
X187548686Y-32994916D02*
X187548686Y-32899678D01*
X187548686Y-32899678D02*
X187501067Y-32804440D01*
X187501067Y-32804440D02*
X187453448Y-32756821D01*
X187453448Y-32756821D02*
X187358210Y-32709202D01*
X187358210Y-32709202D02*
X187167734Y-32661583D01*
X187167734Y-32661583D02*
X187072496Y-32613964D01*
X187072496Y-32613964D02*
X187024877Y-32566345D01*
X187024877Y-32566345D02*
X186977258Y-32471107D01*
X186977258Y-32471107D02*
X186977258Y-32375869D01*
X186977258Y-32375869D02*
X187024877Y-32280631D01*
X187024877Y-32280631D02*
X187072496Y-32233012D01*
X187072496Y-32233012D02*
X187167734Y-32185393D01*
X187167734Y-32185393D02*
X187405829Y-32185393D01*
X187405829Y-32185393D02*
X187548686Y-32233012D01*
X187834401Y-32185393D02*
X188405829Y-32185393D01*
X188120115Y-33185393D02*
X188120115Y-32185393D01*
X189282020Y-32233012D02*
X189186782Y-32185393D01*
X189186782Y-32185393D02*
X189043925Y-32185393D01*
X189043925Y-32185393D02*
X188901068Y-32233012D01*
X188901068Y-32233012D02*
X188805830Y-32328250D01*
X188805830Y-32328250D02*
X188758211Y-32423488D01*
X188758211Y-32423488D02*
X188710592Y-32613964D01*
X188710592Y-32613964D02*
X188710592Y-32756821D01*
X188710592Y-32756821D02*
X188758211Y-32947297D01*
X188758211Y-32947297D02*
X188805830Y-33042535D01*
X188805830Y-33042535D02*
X188901068Y-33137774D01*
X188901068Y-33137774D02*
X189043925Y-33185393D01*
X189043925Y-33185393D02*
X189139163Y-33185393D01*
X189139163Y-33185393D02*
X189282020Y-33137774D01*
X189282020Y-33137774D02*
X189329639Y-33090154D01*
X189329639Y-33090154D02*
X189329639Y-32756821D01*
X189329639Y-32756821D02*
X189139163Y-32756821D01*
X189758211Y-33185393D02*
X189758211Y-32185393D01*
X189758211Y-32185393D02*
X190329639Y-33185393D01*
X190329639Y-33185393D02*
X190329639Y-32185393D01*
X190805830Y-33185393D02*
X190805830Y-32185393D01*
X190805830Y-32185393D02*
X191043925Y-32185393D01*
X191043925Y-32185393D02*
X191186782Y-32233012D01*
X191186782Y-32233012D02*
X191282020Y-32328250D01*
X191282020Y-32328250D02*
X191329639Y-32423488D01*
X191329639Y-32423488D02*
X191377258Y-32613964D01*
X191377258Y-32613964D02*
X191377258Y-32756821D01*
X191377258Y-32756821D02*
X191329639Y-32947297D01*
X191329639Y-32947297D02*
X191282020Y-33042535D01*
X191282020Y-33042535D02*
X191186782Y-33137774D01*
X191186782Y-33137774D02*
X191043925Y-33185393D01*
X191043925Y-33185393D02*
X190805830Y-33185393D01*
X185929638Y-53505393D02*
X185929638Y-52505393D01*
X185929638Y-52505393D02*
X186310590Y-52505393D01*
X186310590Y-52505393D02*
X186405828Y-52553012D01*
X186405828Y-52553012D02*
X186453447Y-52600631D01*
X186453447Y-52600631D02*
X186501066Y-52695869D01*
X186501066Y-52695869D02*
X186501066Y-52838726D01*
X186501066Y-52838726D02*
X186453447Y-52933964D01*
X186453447Y-52933964D02*
X186405828Y-52981583D01*
X186405828Y-52981583D02*
X186310590Y-53029202D01*
X186310590Y-53029202D02*
X185929638Y-53029202D01*
X187453447Y-53505393D02*
X186882019Y-53505393D01*
X187167733Y-53505393D02*
X187167733Y-52505393D01*
X187167733Y-52505393D02*
X187072495Y-52648250D01*
X187072495Y-52648250D02*
X186977257Y-52743488D01*
X186977257Y-52743488D02*
X186882019Y-52791107D01*
X188310590Y-52505393D02*
X188120114Y-52505393D01*
X188120114Y-52505393D02*
X188024876Y-52553012D01*
X188024876Y-52553012D02*
X187977257Y-52600631D01*
X187977257Y-52600631D02*
X187882019Y-52743488D01*
X187882019Y-52743488D02*
X187834400Y-52933964D01*
X187834400Y-52933964D02*
X187834400Y-53314916D01*
X187834400Y-53314916D02*
X187882019Y-53410154D01*
X187882019Y-53410154D02*
X187929638Y-53457774D01*
X187929638Y-53457774D02*
X188024876Y-53505393D01*
X188024876Y-53505393D02*
X188215352Y-53505393D01*
X188215352Y-53505393D02*
X188310590Y-53457774D01*
X188310590Y-53457774D02*
X188358209Y-53410154D01*
X188358209Y-53410154D02*
X188405828Y-53314916D01*
X188405828Y-53314916D02*
X188405828Y-53076821D01*
X188405828Y-53076821D02*
X188358209Y-52981583D01*
X188358209Y-52981583D02*
X188310590Y-52933964D01*
X188310590Y-52933964D02*
X188215352Y-52886345D01*
X188215352Y-52886345D02*
X188024876Y-52886345D01*
X188024876Y-52886345D02*
X187929638Y-52933964D01*
X187929638Y-52933964D02*
X187882019Y-52981583D01*
X187882019Y-52981583D02*
X187834400Y-53076821D01*
X189895830Y-50965393D02*
X189895830Y-49965393D01*
X189895830Y-49965393D02*
X190276782Y-49965393D01*
X190276782Y-49965393D02*
X190372020Y-50013012D01*
X190372020Y-50013012D02*
X190419639Y-50060631D01*
X190419639Y-50060631D02*
X190467258Y-50155869D01*
X190467258Y-50155869D02*
X190467258Y-50298726D01*
X190467258Y-50298726D02*
X190419639Y-50393964D01*
X190419639Y-50393964D02*
X190372020Y-50441583D01*
X190372020Y-50441583D02*
X190276782Y-50489202D01*
X190276782Y-50489202D02*
X189895830Y-50489202D01*
X190800592Y-49965393D02*
X191467258Y-49965393D01*
X191467258Y-49965393D02*
X191038687Y-50965393D01*
X185929639Y-40805393D02*
X185929639Y-39805393D01*
X185929639Y-39805393D02*
X186310591Y-39805393D01*
X186310591Y-39805393D02*
X186405829Y-39853012D01*
X186405829Y-39853012D02*
X186453448Y-39900631D01*
X186453448Y-39900631D02*
X186501067Y-39995869D01*
X186501067Y-39995869D02*
X186501067Y-40138726D01*
X186501067Y-40138726D02*
X186453448Y-40233964D01*
X186453448Y-40233964D02*
X186405829Y-40281583D01*
X186405829Y-40281583D02*
X186310591Y-40329202D01*
X186310591Y-40329202D02*
X185929639Y-40329202D01*
X186882020Y-39900631D02*
X186929639Y-39853012D01*
X186929639Y-39853012D02*
X187024877Y-39805393D01*
X187024877Y-39805393D02*
X187262972Y-39805393D01*
X187262972Y-39805393D02*
X187358210Y-39853012D01*
X187358210Y-39853012D02*
X187405829Y-39900631D01*
X187405829Y-39900631D02*
X187453448Y-39995869D01*
X187453448Y-39995869D02*
X187453448Y-40091107D01*
X187453448Y-40091107D02*
X187405829Y-40233964D01*
X187405829Y-40233964D02*
X186834401Y-40805393D01*
X186834401Y-40805393D02*
X187453448Y-40805393D01*
X188072496Y-39805393D02*
X188167734Y-39805393D01*
X188167734Y-39805393D02*
X188262972Y-39853012D01*
X188262972Y-39853012D02*
X188310591Y-39900631D01*
X188310591Y-39900631D02*
X188358210Y-39995869D01*
X188358210Y-39995869D02*
X188405829Y-40186345D01*
X188405829Y-40186345D02*
X188405829Y-40424440D01*
X188405829Y-40424440D02*
X188358210Y-40614916D01*
X188358210Y-40614916D02*
X188310591Y-40710154D01*
X188310591Y-40710154D02*
X188262972Y-40757774D01*
X188262972Y-40757774D02*
X188167734Y-40805393D01*
X188167734Y-40805393D02*
X188072496Y-40805393D01*
X188072496Y-40805393D02*
X187977258Y-40757774D01*
X187977258Y-40757774D02*
X187929639Y-40710154D01*
X187929639Y-40710154D02*
X187882020Y-40614916D01*
X187882020Y-40614916D02*
X187834401Y-40424440D01*
X187834401Y-40424440D02*
X187834401Y-40186345D01*
X187834401Y-40186345D02*
X187882020Y-39995869D01*
X187882020Y-39995869D02*
X187929639Y-39900631D01*
X187929639Y-39900631D02*
X187977258Y-39853012D01*
X187977258Y-39853012D02*
X188072496Y-39805393D01*
X185929639Y-43345393D02*
X185929639Y-42345393D01*
X185929639Y-42345393D02*
X186310591Y-42345393D01*
X186310591Y-42345393D02*
X186405829Y-42393012D01*
X186405829Y-42393012D02*
X186453448Y-42440631D01*
X186453448Y-42440631D02*
X186501067Y-42535869D01*
X186501067Y-42535869D02*
X186501067Y-42678726D01*
X186501067Y-42678726D02*
X186453448Y-42773964D01*
X186453448Y-42773964D02*
X186405829Y-42821583D01*
X186405829Y-42821583D02*
X186310591Y-42869202D01*
X186310591Y-42869202D02*
X185929639Y-42869202D01*
X187453448Y-43345393D02*
X186882020Y-43345393D01*
X187167734Y-43345393D02*
X187167734Y-42345393D01*
X187167734Y-42345393D02*
X187072496Y-42488250D01*
X187072496Y-42488250D02*
X186977258Y-42583488D01*
X186977258Y-42583488D02*
X186882020Y-42631107D01*
X187929639Y-43345393D02*
X188120115Y-43345393D01*
X188120115Y-43345393D02*
X188215353Y-43297774D01*
X188215353Y-43297774D02*
X188262972Y-43250154D01*
X188262972Y-43250154D02*
X188358210Y-43107297D01*
X188358210Y-43107297D02*
X188405829Y-42916821D01*
X188405829Y-42916821D02*
X188405829Y-42535869D01*
X188405829Y-42535869D02*
X188358210Y-42440631D01*
X188358210Y-42440631D02*
X188310591Y-42393012D01*
X188310591Y-42393012D02*
X188215353Y-42345393D01*
X188215353Y-42345393D02*
X188024877Y-42345393D01*
X188024877Y-42345393D02*
X187929639Y-42393012D01*
X187929639Y-42393012D02*
X187882020Y-42440631D01*
X187882020Y-42440631D02*
X187834401Y-42535869D01*
X187834401Y-42535869D02*
X187834401Y-42773964D01*
X187834401Y-42773964D02*
X187882020Y-42869202D01*
X187882020Y-42869202D02*
X187929639Y-42916821D01*
X187929639Y-42916821D02*
X188024877Y-42964440D01*
X188024877Y-42964440D02*
X188215353Y-42964440D01*
X188215353Y-42964440D02*
X188310591Y-42916821D01*
X188310591Y-42916821D02*
X188358210Y-42869202D01*
X188358210Y-42869202D02*
X188405829Y-42773964D01*
X185929639Y-48425393D02*
X185929639Y-47425393D01*
X185929639Y-47425393D02*
X186310591Y-47425393D01*
X186310591Y-47425393D02*
X186405829Y-47473012D01*
X186405829Y-47473012D02*
X186453448Y-47520631D01*
X186453448Y-47520631D02*
X186501067Y-47615869D01*
X186501067Y-47615869D02*
X186501067Y-47758726D01*
X186501067Y-47758726D02*
X186453448Y-47853964D01*
X186453448Y-47853964D02*
X186405829Y-47901583D01*
X186405829Y-47901583D02*
X186310591Y-47949202D01*
X186310591Y-47949202D02*
X185929639Y-47949202D01*
X187453448Y-48425393D02*
X186882020Y-48425393D01*
X187167734Y-48425393D02*
X187167734Y-47425393D01*
X187167734Y-47425393D02*
X187072496Y-47568250D01*
X187072496Y-47568250D02*
X186977258Y-47663488D01*
X186977258Y-47663488D02*
X186882020Y-47711107D01*
X188358210Y-47425393D02*
X187882020Y-47425393D01*
X187882020Y-47425393D02*
X187834401Y-47901583D01*
X187834401Y-47901583D02*
X187882020Y-47853964D01*
X187882020Y-47853964D02*
X187977258Y-47806345D01*
X187977258Y-47806345D02*
X188215353Y-47806345D01*
X188215353Y-47806345D02*
X188310591Y-47853964D01*
X188310591Y-47853964D02*
X188358210Y-47901583D01*
X188358210Y-47901583D02*
X188405829Y-47996821D01*
X188405829Y-47996821D02*
X188405829Y-48234916D01*
X188405829Y-48234916D02*
X188358210Y-48330154D01*
X188358210Y-48330154D02*
X188310591Y-48377774D01*
X188310591Y-48377774D02*
X188215353Y-48425393D01*
X188215353Y-48425393D02*
X187977258Y-48425393D01*
X187977258Y-48425393D02*
X187882020Y-48377774D01*
X187882020Y-48377774D02*
X187834401Y-48330154D01*
X185929639Y-38265393D02*
X185929639Y-37265393D01*
X185929639Y-37265393D02*
X186310591Y-37265393D01*
X186310591Y-37265393D02*
X186405829Y-37313012D01*
X186405829Y-37313012D02*
X186453448Y-37360631D01*
X186453448Y-37360631D02*
X186501067Y-37455869D01*
X186501067Y-37455869D02*
X186501067Y-37598726D01*
X186501067Y-37598726D02*
X186453448Y-37693964D01*
X186453448Y-37693964D02*
X186405829Y-37741583D01*
X186405829Y-37741583D02*
X186310591Y-37789202D01*
X186310591Y-37789202D02*
X185929639Y-37789202D01*
X186882020Y-37360631D02*
X186929639Y-37313012D01*
X186929639Y-37313012D02*
X187024877Y-37265393D01*
X187024877Y-37265393D02*
X187262972Y-37265393D01*
X187262972Y-37265393D02*
X187358210Y-37313012D01*
X187358210Y-37313012D02*
X187405829Y-37360631D01*
X187405829Y-37360631D02*
X187453448Y-37455869D01*
X187453448Y-37455869D02*
X187453448Y-37551107D01*
X187453448Y-37551107D02*
X187405829Y-37693964D01*
X187405829Y-37693964D02*
X186834401Y-38265393D01*
X186834401Y-38265393D02*
X187453448Y-38265393D01*
X188405829Y-38265393D02*
X187834401Y-38265393D01*
X188120115Y-38265393D02*
X188120115Y-37265393D01*
X188120115Y-37265393D02*
X188024877Y-37408250D01*
X188024877Y-37408250D02*
X187929639Y-37503488D01*
X187929639Y-37503488D02*
X187834401Y-37551107D01*
X189895829Y-56045393D02*
X189895829Y-55045393D01*
X189895829Y-55045393D02*
X190276781Y-55045393D01*
X190276781Y-55045393D02*
X190372019Y-55093012D01*
X190372019Y-55093012D02*
X190419638Y-55140631D01*
X190419638Y-55140631D02*
X190467257Y-55235869D01*
X190467257Y-55235869D02*
X190467257Y-55378726D01*
X190467257Y-55378726D02*
X190419638Y-55473964D01*
X190419638Y-55473964D02*
X190372019Y-55521583D01*
X190372019Y-55521583D02*
X190276781Y-55569202D01*
X190276781Y-55569202D02*
X189895829Y-55569202D01*
X190943448Y-56045393D02*
X191133924Y-56045393D01*
X191133924Y-56045393D02*
X191229162Y-55997774D01*
X191229162Y-55997774D02*
X191276781Y-55950154D01*
X191276781Y-55950154D02*
X191372019Y-55807297D01*
X191372019Y-55807297D02*
X191419638Y-55616821D01*
X191419638Y-55616821D02*
X191419638Y-55235869D01*
X191419638Y-55235869D02*
X191372019Y-55140631D01*
X191372019Y-55140631D02*
X191324400Y-55093012D01*
X191324400Y-55093012D02*
X191229162Y-55045393D01*
X191229162Y-55045393D02*
X191038686Y-55045393D01*
X191038686Y-55045393D02*
X190943448Y-55093012D01*
X190943448Y-55093012D02*
X190895829Y-55140631D01*
X190895829Y-55140631D02*
X190848210Y-55235869D01*
X190848210Y-55235869D02*
X190848210Y-55473964D01*
X190848210Y-55473964D02*
X190895829Y-55569202D01*
X190895829Y-55569202D02*
X190943448Y-55616821D01*
X190943448Y-55616821D02*
X191038686Y-55664440D01*
X191038686Y-55664440D02*
X191229162Y-55664440D01*
X191229162Y-55664440D02*
X191324400Y-55616821D01*
X191324400Y-55616821D02*
X191372019Y-55569202D01*
X191372019Y-55569202D02*
X191419638Y-55473964D01*
X189895831Y-48425393D02*
X189895831Y-47425393D01*
X189895831Y-47425393D02*
X190276783Y-47425393D01*
X190276783Y-47425393D02*
X190372021Y-47473012D01*
X190372021Y-47473012D02*
X190419640Y-47520631D01*
X190419640Y-47520631D02*
X190467259Y-47615869D01*
X190467259Y-47615869D02*
X190467259Y-47758726D01*
X190467259Y-47758726D02*
X190419640Y-47853964D01*
X190419640Y-47853964D02*
X190372021Y-47901583D01*
X190372021Y-47901583D02*
X190276783Y-47949202D01*
X190276783Y-47949202D02*
X189895831Y-47949202D01*
X191324402Y-47425393D02*
X191133926Y-47425393D01*
X191133926Y-47425393D02*
X191038688Y-47473012D01*
X191038688Y-47473012D02*
X190991069Y-47520631D01*
X190991069Y-47520631D02*
X190895831Y-47663488D01*
X190895831Y-47663488D02*
X190848212Y-47853964D01*
X190848212Y-47853964D02*
X190848212Y-48234916D01*
X190848212Y-48234916D02*
X190895831Y-48330154D01*
X190895831Y-48330154D02*
X190943450Y-48377774D01*
X190943450Y-48377774D02*
X191038688Y-48425393D01*
X191038688Y-48425393D02*
X191229164Y-48425393D01*
X191229164Y-48425393D02*
X191324402Y-48377774D01*
X191324402Y-48377774D02*
X191372021Y-48330154D01*
X191372021Y-48330154D02*
X191419640Y-48234916D01*
X191419640Y-48234916D02*
X191419640Y-47996821D01*
X191419640Y-47996821D02*
X191372021Y-47901583D01*
X191372021Y-47901583D02*
X191324402Y-47853964D01*
X191324402Y-47853964D02*
X191229164Y-47806345D01*
X191229164Y-47806345D02*
X191038688Y-47806345D01*
X191038688Y-47806345D02*
X190943450Y-47853964D01*
X190943450Y-47853964D02*
X190895831Y-47901583D01*
X190895831Y-47901583D02*
X190848212Y-47996821D01*
X185929639Y-45885393D02*
X185929639Y-44885393D01*
X185929639Y-44885393D02*
X186310591Y-44885393D01*
X186310591Y-44885393D02*
X186405829Y-44933012D01*
X186405829Y-44933012D02*
X186453448Y-44980631D01*
X186453448Y-44980631D02*
X186501067Y-45075869D01*
X186501067Y-45075869D02*
X186501067Y-45218726D01*
X186501067Y-45218726D02*
X186453448Y-45313964D01*
X186453448Y-45313964D02*
X186405829Y-45361583D01*
X186405829Y-45361583D02*
X186310591Y-45409202D01*
X186310591Y-45409202D02*
X185929639Y-45409202D01*
X187453448Y-45885393D02*
X186882020Y-45885393D01*
X187167734Y-45885393D02*
X187167734Y-44885393D01*
X187167734Y-44885393D02*
X187072496Y-45028250D01*
X187072496Y-45028250D02*
X186977258Y-45123488D01*
X186977258Y-45123488D02*
X186882020Y-45171107D01*
X188024877Y-45313964D02*
X187929639Y-45266345D01*
X187929639Y-45266345D02*
X187882020Y-45218726D01*
X187882020Y-45218726D02*
X187834401Y-45123488D01*
X187834401Y-45123488D02*
X187834401Y-45075869D01*
X187834401Y-45075869D02*
X187882020Y-44980631D01*
X187882020Y-44980631D02*
X187929639Y-44933012D01*
X187929639Y-44933012D02*
X188024877Y-44885393D01*
X188024877Y-44885393D02*
X188215353Y-44885393D01*
X188215353Y-44885393D02*
X188310591Y-44933012D01*
X188310591Y-44933012D02*
X188358210Y-44980631D01*
X188358210Y-44980631D02*
X188405829Y-45075869D01*
X188405829Y-45075869D02*
X188405829Y-45123488D01*
X188405829Y-45123488D02*
X188358210Y-45218726D01*
X188358210Y-45218726D02*
X188310591Y-45266345D01*
X188310591Y-45266345D02*
X188215353Y-45313964D01*
X188215353Y-45313964D02*
X188024877Y-45313964D01*
X188024877Y-45313964D02*
X187929639Y-45361583D01*
X187929639Y-45361583D02*
X187882020Y-45409202D01*
X187882020Y-45409202D02*
X187834401Y-45504440D01*
X187834401Y-45504440D02*
X187834401Y-45694916D01*
X187834401Y-45694916D02*
X187882020Y-45790154D01*
X187882020Y-45790154D02*
X187929639Y-45837774D01*
X187929639Y-45837774D02*
X188024877Y-45885393D01*
X188024877Y-45885393D02*
X188215353Y-45885393D01*
X188215353Y-45885393D02*
X188310591Y-45837774D01*
X188310591Y-45837774D02*
X188358210Y-45790154D01*
X188358210Y-45790154D02*
X188405829Y-45694916D01*
X188405829Y-45694916D02*
X188405829Y-45504440D01*
X188405829Y-45504440D02*
X188358210Y-45409202D01*
X188358210Y-45409202D02*
X188310591Y-45361583D01*
X188310591Y-45361583D02*
X188215353Y-45313964D01*
X189895830Y-43345393D02*
X189895830Y-42345393D01*
X189895830Y-42345393D02*
X190276782Y-42345393D01*
X190276782Y-42345393D02*
X190372020Y-42393012D01*
X190372020Y-42393012D02*
X190419639Y-42440631D01*
X190419639Y-42440631D02*
X190467258Y-42535869D01*
X190467258Y-42535869D02*
X190467258Y-42678726D01*
X190467258Y-42678726D02*
X190419639Y-42773964D01*
X190419639Y-42773964D02*
X190372020Y-42821583D01*
X190372020Y-42821583D02*
X190276782Y-42869202D01*
X190276782Y-42869202D02*
X189895830Y-42869202D01*
X191324401Y-42678726D02*
X191324401Y-43345393D01*
X191086306Y-42297774D02*
X190848211Y-43012059D01*
X190848211Y-43012059D02*
X191467258Y-43012059D01*
X189895830Y-28105393D02*
X189895830Y-27105393D01*
X189895830Y-27105393D02*
X190276782Y-27105393D01*
X190276782Y-27105393D02*
X190372020Y-27153012D01*
X190372020Y-27153012D02*
X190419639Y-27200631D01*
X190419639Y-27200631D02*
X190467258Y-27295869D01*
X190467258Y-27295869D02*
X190467258Y-27438726D01*
X190467258Y-27438726D02*
X190419639Y-27533964D01*
X190419639Y-27533964D02*
X190372020Y-27581583D01*
X190372020Y-27581583D02*
X190276782Y-27629202D01*
X190276782Y-27629202D02*
X189895830Y-27629202D01*
X191419639Y-28105393D02*
X190848211Y-28105393D01*
X191133925Y-28105393D02*
X191133925Y-27105393D01*
X191133925Y-27105393D02*
X191038687Y-27248250D01*
X191038687Y-27248250D02*
X190943449Y-27343488D01*
X190943449Y-27343488D02*
X190848211Y-27391107D01*
X185929639Y-50965393D02*
X185929639Y-49965393D01*
X185929639Y-49965393D02*
X186310591Y-49965393D01*
X186310591Y-49965393D02*
X186405829Y-50013012D01*
X186405829Y-50013012D02*
X186453448Y-50060631D01*
X186453448Y-50060631D02*
X186501067Y-50155869D01*
X186501067Y-50155869D02*
X186501067Y-50298726D01*
X186501067Y-50298726D02*
X186453448Y-50393964D01*
X186453448Y-50393964D02*
X186405829Y-50441583D01*
X186405829Y-50441583D02*
X186310591Y-50489202D01*
X186310591Y-50489202D02*
X185929639Y-50489202D01*
X187453448Y-50965393D02*
X186882020Y-50965393D01*
X187167734Y-50965393D02*
X187167734Y-49965393D01*
X187167734Y-49965393D02*
X187072496Y-50108250D01*
X187072496Y-50108250D02*
X186977258Y-50203488D01*
X186977258Y-50203488D02*
X186882020Y-50251107D01*
X188310591Y-50298726D02*
X188310591Y-50965393D01*
X188072496Y-49917774D02*
X187834401Y-50632059D01*
X187834401Y-50632059D02*
X188453448Y-50632059D01*
X185929639Y-56045393D02*
X185929639Y-55045393D01*
X185929639Y-55045393D02*
X186310591Y-55045393D01*
X186310591Y-55045393D02*
X186405829Y-55093012D01*
X186405829Y-55093012D02*
X186453448Y-55140631D01*
X186453448Y-55140631D02*
X186501067Y-55235869D01*
X186501067Y-55235869D02*
X186501067Y-55378726D01*
X186501067Y-55378726D02*
X186453448Y-55473964D01*
X186453448Y-55473964D02*
X186405829Y-55521583D01*
X186405829Y-55521583D02*
X186310591Y-55569202D01*
X186310591Y-55569202D02*
X185929639Y-55569202D01*
X187453448Y-56045393D02*
X186882020Y-56045393D01*
X187167734Y-56045393D02*
X187167734Y-55045393D01*
X187167734Y-55045393D02*
X187072496Y-55188250D01*
X187072496Y-55188250D02*
X186977258Y-55283488D01*
X186977258Y-55283488D02*
X186882020Y-55331107D01*
X188072496Y-55045393D02*
X188167734Y-55045393D01*
X188167734Y-55045393D02*
X188262972Y-55093012D01*
X188262972Y-55093012D02*
X188310591Y-55140631D01*
X188310591Y-55140631D02*
X188358210Y-55235869D01*
X188358210Y-55235869D02*
X188405829Y-55426345D01*
X188405829Y-55426345D02*
X188405829Y-55664440D01*
X188405829Y-55664440D02*
X188358210Y-55854916D01*
X188358210Y-55854916D02*
X188310591Y-55950154D01*
X188310591Y-55950154D02*
X188262972Y-55997774D01*
X188262972Y-55997774D02*
X188167734Y-56045393D01*
X188167734Y-56045393D02*
X188072496Y-56045393D01*
X188072496Y-56045393D02*
X187977258Y-55997774D01*
X187977258Y-55997774D02*
X187929639Y-55950154D01*
X187929639Y-55950154D02*
X187882020Y-55854916D01*
X187882020Y-55854916D02*
X187834401Y-55664440D01*
X187834401Y-55664440D02*
X187834401Y-55426345D01*
X187834401Y-55426345D02*
X187882020Y-55235869D01*
X187882020Y-55235869D02*
X187929639Y-55140631D01*
X187929639Y-55140631D02*
X187977258Y-55093012D01*
X187977258Y-55093012D02*
X188072496Y-55045393D01*
X189895830Y-38265393D02*
X189895830Y-37265393D01*
X189895830Y-37265393D02*
X190276782Y-37265393D01*
X190276782Y-37265393D02*
X190372020Y-37313012D01*
X190372020Y-37313012D02*
X190419639Y-37360631D01*
X190419639Y-37360631D02*
X190467258Y-37455869D01*
X190467258Y-37455869D02*
X190467258Y-37598726D01*
X190467258Y-37598726D02*
X190419639Y-37693964D01*
X190419639Y-37693964D02*
X190372020Y-37741583D01*
X190372020Y-37741583D02*
X190276782Y-37789202D01*
X190276782Y-37789202D02*
X189895830Y-37789202D01*
X190848211Y-37360631D02*
X190895830Y-37313012D01*
X190895830Y-37313012D02*
X190991068Y-37265393D01*
X190991068Y-37265393D02*
X191229163Y-37265393D01*
X191229163Y-37265393D02*
X191324401Y-37313012D01*
X191324401Y-37313012D02*
X191372020Y-37360631D01*
X191372020Y-37360631D02*
X191419639Y-37455869D01*
X191419639Y-37455869D02*
X191419639Y-37551107D01*
X191419639Y-37551107D02*
X191372020Y-37693964D01*
X191372020Y-37693964D02*
X190800592Y-38265393D01*
X190800592Y-38265393D02*
X191419639Y-38265393D01*
X189282020Y-34773012D02*
X189186782Y-34725393D01*
X189186782Y-34725393D02*
X189043925Y-34725393D01*
X189043925Y-34725393D02*
X188901068Y-34773012D01*
X188901068Y-34773012D02*
X188805830Y-34868250D01*
X188805830Y-34868250D02*
X188758211Y-34963488D01*
X188758211Y-34963488D02*
X188710592Y-35153964D01*
X188710592Y-35153964D02*
X188710592Y-35296821D01*
X188710592Y-35296821D02*
X188758211Y-35487297D01*
X188758211Y-35487297D02*
X188805830Y-35582535D01*
X188805830Y-35582535D02*
X188901068Y-35677774D01*
X188901068Y-35677774D02*
X189043925Y-35725393D01*
X189043925Y-35725393D02*
X189139163Y-35725393D01*
X189139163Y-35725393D02*
X189282020Y-35677774D01*
X189282020Y-35677774D02*
X189329639Y-35630154D01*
X189329639Y-35630154D02*
X189329639Y-35296821D01*
X189329639Y-35296821D02*
X189139163Y-35296821D01*
X189758211Y-35725393D02*
X189758211Y-34725393D01*
X189758211Y-34725393D02*
X190329639Y-35725393D01*
X190329639Y-35725393D02*
X190329639Y-34725393D01*
X190805830Y-35725393D02*
X190805830Y-34725393D01*
X190805830Y-34725393D02*
X191043925Y-34725393D01*
X191043925Y-34725393D02*
X191186782Y-34773012D01*
X191186782Y-34773012D02*
X191282020Y-34868250D01*
X191282020Y-34868250D02*
X191329639Y-34963488D01*
X191329639Y-34963488D02*
X191377258Y-35153964D01*
X191377258Y-35153964D02*
X191377258Y-35296821D01*
X191377258Y-35296821D02*
X191329639Y-35487297D01*
X191329639Y-35487297D02*
X191282020Y-35582535D01*
X191282020Y-35582535D02*
X191186782Y-35677774D01*
X191186782Y-35677774D02*
X191043925Y-35725393D01*
X191043925Y-35725393D02*
X190805830Y-35725393D01*
X189895830Y-40805393D02*
X189895830Y-39805393D01*
X189895830Y-39805393D02*
X190276782Y-39805393D01*
X190276782Y-39805393D02*
X190372020Y-39853012D01*
X190372020Y-39853012D02*
X190419639Y-39900631D01*
X190419639Y-39900631D02*
X190467258Y-39995869D01*
X190467258Y-39995869D02*
X190467258Y-40138726D01*
X190467258Y-40138726D02*
X190419639Y-40233964D01*
X190419639Y-40233964D02*
X190372020Y-40281583D01*
X190372020Y-40281583D02*
X190276782Y-40329202D01*
X190276782Y-40329202D02*
X189895830Y-40329202D01*
X190800592Y-39805393D02*
X191419639Y-39805393D01*
X191419639Y-39805393D02*
X191086306Y-40186345D01*
X191086306Y-40186345D02*
X191229163Y-40186345D01*
X191229163Y-40186345D02*
X191324401Y-40233964D01*
X191324401Y-40233964D02*
X191372020Y-40281583D01*
X191372020Y-40281583D02*
X191419639Y-40376821D01*
X191419639Y-40376821D02*
X191419639Y-40614916D01*
X191419639Y-40614916D02*
X191372020Y-40710154D01*
X191372020Y-40710154D02*
X191324401Y-40757774D01*
X191324401Y-40757774D02*
X191229163Y-40805393D01*
X191229163Y-40805393D02*
X190943449Y-40805393D01*
X190943449Y-40805393D02*
X190848211Y-40757774D01*
X190848211Y-40757774D02*
X190800592Y-40710154D01*
X189895829Y-30645394D02*
X189895829Y-29645394D01*
X189895829Y-29645394D02*
X190276781Y-29645394D01*
X190276781Y-29645394D02*
X190372019Y-29693013D01*
X190372019Y-29693013D02*
X190419638Y-29740632D01*
X190419638Y-29740632D02*
X190467257Y-29835870D01*
X190467257Y-29835870D02*
X190467257Y-29978727D01*
X190467257Y-29978727D02*
X190419638Y-30073965D01*
X190419638Y-30073965D02*
X190372019Y-30121584D01*
X190372019Y-30121584D02*
X190276781Y-30169203D01*
X190276781Y-30169203D02*
X189895829Y-30169203D01*
X191086305Y-29645394D02*
X191181543Y-29645394D01*
X191181543Y-29645394D02*
X191276781Y-29693013D01*
X191276781Y-29693013D02*
X191324400Y-29740632D01*
X191324400Y-29740632D02*
X191372019Y-29835870D01*
X191372019Y-29835870D02*
X191419638Y-30026346D01*
X191419638Y-30026346D02*
X191419638Y-30264441D01*
X191419638Y-30264441D02*
X191372019Y-30454917D01*
X191372019Y-30454917D02*
X191324400Y-30550155D01*
X191324400Y-30550155D02*
X191276781Y-30597775D01*
X191276781Y-30597775D02*
X191181543Y-30645394D01*
X191181543Y-30645394D02*
X191086305Y-30645394D01*
X191086305Y-30645394D02*
X190991067Y-30597775D01*
X190991067Y-30597775D02*
X190943448Y-30550155D01*
X190943448Y-30550155D02*
X190895829Y-30454917D01*
X190895829Y-30454917D02*
X190848210Y-30264441D01*
X190848210Y-30264441D02*
X190848210Y-30026346D01*
X190848210Y-30026346D02*
X190895829Y-29835870D01*
X190895829Y-29835870D02*
X190943448Y-29740632D01*
X190943448Y-29740632D02*
X190991067Y-29693013D01*
X190991067Y-29693013D02*
X191086305Y-29645394D01*
X181855829Y-25560393D02*
X181522496Y-25084202D01*
X181284401Y-25560393D02*
X181284401Y-24560393D01*
X181284401Y-24560393D02*
X181665353Y-24560393D01*
X181665353Y-24560393D02*
X181760591Y-24608012D01*
X181760591Y-24608012D02*
X181808210Y-24655631D01*
X181808210Y-24655631D02*
X181855829Y-24750869D01*
X181855829Y-24750869D02*
X181855829Y-24893726D01*
X181855829Y-24893726D02*
X181808210Y-24988964D01*
X181808210Y-24988964D02*
X181760591Y-25036583D01*
X181760591Y-25036583D02*
X181665353Y-25084202D01*
X181665353Y-25084202D02*
X181284401Y-25084202D01*
X183332020Y-24560393D02*
X183332020Y-25274678D01*
X183332020Y-25274678D02*
X183284401Y-25417535D01*
X183284401Y-25417535D02*
X183189163Y-25512774D01*
X183189163Y-25512774D02*
X183046306Y-25560393D01*
X183046306Y-25560393D02*
X182951068Y-25560393D01*
X184236782Y-24893726D02*
X184236782Y-25560393D01*
X183808211Y-24893726D02*
X183808211Y-25417535D01*
X183808211Y-25417535D02*
X183855830Y-25512774D01*
X183855830Y-25512774D02*
X183951068Y-25560393D01*
X183951068Y-25560393D02*
X184093925Y-25560393D01*
X184093925Y-25560393D02*
X184189163Y-25512774D01*
X184189163Y-25512774D02*
X184236782Y-25465154D01*
X184712973Y-25560393D02*
X184712973Y-24893726D01*
X184712973Y-24988964D02*
X184760592Y-24941345D01*
X184760592Y-24941345D02*
X184855830Y-24893726D01*
X184855830Y-24893726D02*
X184998687Y-24893726D01*
X184998687Y-24893726D02*
X185093925Y-24941345D01*
X185093925Y-24941345D02*
X185141544Y-25036583D01*
X185141544Y-25036583D02*
X185141544Y-25560393D01*
X185141544Y-25036583D02*
X185189163Y-24941345D01*
X185189163Y-24941345D02*
X185284401Y-24893726D01*
X185284401Y-24893726D02*
X185427258Y-24893726D01*
X185427258Y-24893726D02*
X185522497Y-24941345D01*
X185522497Y-24941345D02*
X185570116Y-25036583D01*
X185570116Y-25036583D02*
X185570116Y-25560393D01*
X186046306Y-24893726D02*
X186046306Y-25893726D01*
X186046306Y-24941345D02*
X186141544Y-24893726D01*
X186141544Y-24893726D02*
X186332020Y-24893726D01*
X186332020Y-24893726D02*
X186427258Y-24941345D01*
X186427258Y-24941345D02*
X186474877Y-24988964D01*
X186474877Y-24988964D02*
X186522496Y-25084202D01*
X186522496Y-25084202D02*
X186522496Y-25369916D01*
X186522496Y-25369916D02*
X186474877Y-25465154D01*
X186474877Y-25465154D02*
X186427258Y-25512774D01*
X186427258Y-25512774D02*
X186332020Y-25560393D01*
X186332020Y-25560393D02*
X186141544Y-25560393D01*
X186141544Y-25560393D02*
X186046306Y-25512774D01*
X187332020Y-25512774D02*
X187236782Y-25560393D01*
X187236782Y-25560393D02*
X187046306Y-25560393D01*
X187046306Y-25560393D02*
X186951068Y-25512774D01*
X186951068Y-25512774D02*
X186903449Y-25417535D01*
X186903449Y-25417535D02*
X186903449Y-25036583D01*
X186903449Y-25036583D02*
X186951068Y-24941345D01*
X186951068Y-24941345D02*
X187046306Y-24893726D01*
X187046306Y-24893726D02*
X187236782Y-24893726D01*
X187236782Y-24893726D02*
X187332020Y-24941345D01*
X187332020Y-24941345D02*
X187379639Y-25036583D01*
X187379639Y-25036583D02*
X187379639Y-25131821D01*
X187379639Y-25131821D02*
X186903449Y-25227059D01*
X187808211Y-25560393D02*
X187808211Y-24893726D01*
X187808211Y-25084202D02*
X187855830Y-24988964D01*
X187855830Y-24988964D02*
X187903449Y-24941345D01*
X187903449Y-24941345D02*
X187998687Y-24893726D01*
X187998687Y-24893726D02*
X188093925Y-24893726D01*
X188379640Y-25512774D02*
X188474878Y-25560393D01*
X188474878Y-25560393D02*
X188665354Y-25560393D01*
X188665354Y-25560393D02*
X188760592Y-25512774D01*
X188760592Y-25512774D02*
X188808211Y-25417535D01*
X188808211Y-25417535D02*
X188808211Y-25369916D01*
X188808211Y-25369916D02*
X188760592Y-25274678D01*
X188760592Y-25274678D02*
X188665354Y-25227059D01*
X188665354Y-25227059D02*
X188522497Y-25227059D01*
X188522497Y-25227059D02*
X188427259Y-25179440D01*
X188427259Y-25179440D02*
X188379640Y-25084202D01*
X188379640Y-25084202D02*
X188379640Y-25036583D01*
X188379640Y-25036583D02*
X188427259Y-24941345D01*
X188427259Y-24941345D02*
X188522497Y-24893726D01*
X188522497Y-24893726D02*
X188665354Y-24893726D01*
X188665354Y-24893726D02*
X188760592Y-24941345D01*
X189284402Y-25512774D02*
X189284402Y-25560393D01*
X189284402Y-25560393D02*
X189236783Y-25655631D01*
X189236783Y-25655631D02*
X189189164Y-25703250D01*
X190474878Y-25560393D02*
X190474878Y-24560393D01*
X190474878Y-24560393D02*
X190808211Y-25274678D01*
X190808211Y-25274678D02*
X191141544Y-24560393D01*
X191141544Y-24560393D02*
X191141544Y-25560393D01*
X192189163Y-25465154D02*
X192141544Y-25512774D01*
X192141544Y-25512774D02*
X191998687Y-25560393D01*
X191998687Y-25560393D02*
X191903449Y-25560393D01*
X191903449Y-25560393D02*
X191760592Y-25512774D01*
X191760592Y-25512774D02*
X191665354Y-25417535D01*
X191665354Y-25417535D02*
X191617735Y-25322297D01*
X191617735Y-25322297D02*
X191570116Y-25131821D01*
X191570116Y-25131821D02*
X191570116Y-24988964D01*
X191570116Y-24988964D02*
X191617735Y-24798488D01*
X191617735Y-24798488D02*
X191665354Y-24703250D01*
X191665354Y-24703250D02*
X191760592Y-24608012D01*
X191760592Y-24608012D02*
X191903449Y-24560393D01*
X191903449Y-24560393D02*
X191998687Y-24560393D01*
X191998687Y-24560393D02*
X192141544Y-24608012D01*
X192141544Y-24608012D02*
X192189163Y-24655631D01*
X192617735Y-24560393D02*
X192617735Y-25369916D01*
X192617735Y-25369916D02*
X192665354Y-25465154D01*
X192665354Y-25465154D02*
X192712973Y-25512774D01*
X192712973Y-25512774D02*
X192808211Y-25560393D01*
X192808211Y-25560393D02*
X192998687Y-25560393D01*
X192998687Y-25560393D02*
X193093925Y-25512774D01*
X193093925Y-25512774D02*
X193141544Y-25465154D01*
X193141544Y-25465154D02*
X193189163Y-25369916D01*
X193189163Y-25369916D02*
X193189163Y-24560393D01*
X194427259Y-24560393D02*
X194427259Y-25369916D01*
X194427259Y-25369916D02*
X194474878Y-25465154D01*
X194474878Y-25465154D02*
X194522497Y-25512774D01*
X194522497Y-25512774D02*
X194617735Y-25560393D01*
X194617735Y-25560393D02*
X194808211Y-25560393D01*
X194808211Y-25560393D02*
X194903449Y-25512774D01*
X194903449Y-25512774D02*
X194951068Y-25465154D01*
X194951068Y-25465154D02*
X194998687Y-25369916D01*
X194998687Y-25369916D02*
X194998687Y-24560393D01*
X195474878Y-24893726D02*
X195474878Y-25893726D01*
X195474878Y-24941345D02*
X195570116Y-24893726D01*
X195570116Y-24893726D02*
X195760592Y-24893726D01*
X195760592Y-24893726D02*
X195855830Y-24941345D01*
X195855830Y-24941345D02*
X195903449Y-24988964D01*
X195903449Y-24988964D02*
X195951068Y-25084202D01*
X195951068Y-25084202D02*
X195951068Y-25369916D01*
X195951068Y-25369916D02*
X195903449Y-25465154D01*
X195903449Y-25465154D02*
X195855830Y-25512774D01*
X195855830Y-25512774D02*
X195760592Y-25560393D01*
X195760592Y-25560393D02*
X195570116Y-25560393D01*
X195570116Y-25560393D02*
X195474878Y-25512774D01*
X186037739Y-62886104D02*
X185999643Y-62924200D01*
X185999643Y-62924200D02*
X185885358Y-62962295D01*
X185885358Y-62962295D02*
X185809167Y-62962295D01*
X185809167Y-62962295D02*
X185694881Y-62924200D01*
X185694881Y-62924200D02*
X185618691Y-62848009D01*
X185618691Y-62848009D02*
X185580596Y-62771819D01*
X185580596Y-62771819D02*
X185542500Y-62619438D01*
X185542500Y-62619438D02*
X185542500Y-62505152D01*
X185542500Y-62505152D02*
X185580596Y-62352771D01*
X185580596Y-62352771D02*
X185618691Y-62276580D01*
X185618691Y-62276580D02*
X185694881Y-62200390D01*
X185694881Y-62200390D02*
X185809167Y-62162295D01*
X185809167Y-62162295D02*
X185885358Y-62162295D01*
X185885358Y-62162295D02*
X185999643Y-62200390D01*
X185999643Y-62200390D02*
X186037739Y-62238485D01*
X186761548Y-62962295D02*
X186380596Y-62962295D01*
X186380596Y-62962295D02*
X186380596Y-62162295D01*
X190604404Y-62200391D02*
X190528214Y-62162296D01*
X190528214Y-62162296D02*
X190413928Y-62162296D01*
X190413928Y-62162296D02*
X190299642Y-62200391D01*
X190299642Y-62200391D02*
X190223452Y-62276581D01*
X190223452Y-62276581D02*
X190185357Y-62352772D01*
X190185357Y-62352772D02*
X190147261Y-62505153D01*
X190147261Y-62505153D02*
X190147261Y-62619439D01*
X190147261Y-62619439D02*
X190185357Y-62771820D01*
X190185357Y-62771820D02*
X190223452Y-62848010D01*
X190223452Y-62848010D02*
X190299642Y-62924201D01*
X190299642Y-62924201D02*
X190413928Y-62962296D01*
X190413928Y-62962296D02*
X190490119Y-62962296D01*
X190490119Y-62962296D02*
X190604404Y-62924201D01*
X190604404Y-62924201D02*
X190642500Y-62886105D01*
X190642500Y-62886105D02*
X190642500Y-62619439D01*
X190642500Y-62619439D02*
X190490119Y-62619439D01*
X190985357Y-62962296D02*
X190985357Y-62162296D01*
X190985357Y-62162296D02*
X191442500Y-62962296D01*
X191442500Y-62962296D02*
X191442500Y-62162296D01*
X191823452Y-62962296D02*
X191823452Y-62162296D01*
X191823452Y-62162296D02*
X192013928Y-62162296D01*
X192013928Y-62162296D02*
X192128214Y-62200391D01*
X192128214Y-62200391D02*
X192204404Y-62276581D01*
X192204404Y-62276581D02*
X192242499Y-62352772D01*
X192242499Y-62352772D02*
X192280595Y-62505153D01*
X192280595Y-62505153D02*
X192280595Y-62619439D01*
X192280595Y-62619439D02*
X192242499Y-62771820D01*
X192242499Y-62771820D02*
X192204404Y-62848010D01*
X192204404Y-62848010D02*
X192128214Y-62924201D01*
X192128214Y-62924201D02*
X192013928Y-62962296D01*
X192013928Y-62962296D02*
X191823452Y-62962296D01*
X193580595Y-62886104D02*
X193542499Y-62924200D01*
X193542499Y-62924200D02*
X193428214Y-62962295D01*
X193428214Y-62962295D02*
X193352023Y-62962295D01*
X193352023Y-62962295D02*
X193237737Y-62924200D01*
X193237737Y-62924200D02*
X193161547Y-62848009D01*
X193161547Y-62848009D02*
X193123452Y-62771819D01*
X193123452Y-62771819D02*
X193085356Y-62619438D01*
X193085356Y-62619438D02*
X193085356Y-62505152D01*
X193085356Y-62505152D02*
X193123452Y-62352771D01*
X193123452Y-62352771D02*
X193161547Y-62276580D01*
X193161547Y-62276580D02*
X193237737Y-62200390D01*
X193237737Y-62200390D02*
X193352023Y-62162295D01*
X193352023Y-62162295D02*
X193428214Y-62162295D01*
X193428214Y-62162295D02*
X193542499Y-62200390D01*
X193542499Y-62200390D02*
X193580595Y-62238485D01*
X193885356Y-62924200D02*
X193999642Y-62962295D01*
X193999642Y-62962295D02*
X194190118Y-62962295D01*
X194190118Y-62962295D02*
X194266309Y-62924200D01*
X194266309Y-62924200D02*
X194304404Y-62886104D01*
X194304404Y-62886104D02*
X194342499Y-62809914D01*
X194342499Y-62809914D02*
X194342499Y-62733723D01*
X194342499Y-62733723D02*
X194304404Y-62657533D01*
X194304404Y-62657533D02*
X194266309Y-62619438D01*
X194266309Y-62619438D02*
X194190118Y-62581342D01*
X194190118Y-62581342D02*
X194037737Y-62543247D01*
X194037737Y-62543247D02*
X193961547Y-62505152D01*
X193961547Y-62505152D02*
X193923452Y-62467057D01*
X193923452Y-62467057D02*
X193885356Y-62390866D01*
X193885356Y-62390866D02*
X193885356Y-62314676D01*
X193885356Y-62314676D02*
X193923452Y-62238485D01*
X193923452Y-62238485D02*
X193961547Y-62200390D01*
X193961547Y-62200390D02*
X194037737Y-62162295D01*
X194037737Y-62162295D02*
X194228214Y-62162295D01*
X194228214Y-62162295D02*
X194342499Y-62200390D01*
X182961547Y-62962294D02*
X182961547Y-62162294D01*
X182961547Y-62162294D02*
X183152023Y-62162294D01*
X183152023Y-62162294D02*
X183266309Y-62200389D01*
X183266309Y-62200389D02*
X183342499Y-62276579D01*
X183342499Y-62276579D02*
X183380594Y-62352770D01*
X183380594Y-62352770D02*
X183418690Y-62505151D01*
X183418690Y-62505151D02*
X183418690Y-62619437D01*
X183418690Y-62619437D02*
X183380594Y-62771818D01*
X183380594Y-62771818D02*
X183342499Y-62848008D01*
X183342499Y-62848008D02*
X183266309Y-62924199D01*
X183266309Y-62924199D02*
X183152023Y-62962294D01*
X183152023Y-62962294D02*
X182961547Y-62962294D01*
X183723451Y-62733722D02*
X184104404Y-62733722D01*
X183647261Y-62962294D02*
X183913928Y-62162294D01*
X183913928Y-62162294D02*
X184180594Y-62962294D01*
X187410595Y-60755392D02*
X187743928Y-61755392D01*
X187743928Y-61755392D02*
X188077261Y-60755392D01*
X188982023Y-61660153D02*
X188934404Y-61707773D01*
X188934404Y-61707773D02*
X188791547Y-61755392D01*
X188791547Y-61755392D02*
X188696309Y-61755392D01*
X188696309Y-61755392D02*
X188553452Y-61707773D01*
X188553452Y-61707773D02*
X188458214Y-61612534D01*
X188458214Y-61612534D02*
X188410595Y-61517296D01*
X188410595Y-61517296D02*
X188362976Y-61326820D01*
X188362976Y-61326820D02*
X188362976Y-61183963D01*
X188362976Y-61183963D02*
X188410595Y-60993487D01*
X188410595Y-60993487D02*
X188458214Y-60898249D01*
X188458214Y-60898249D02*
X188553452Y-60803011D01*
X188553452Y-60803011D02*
X188696309Y-60755392D01*
X188696309Y-60755392D02*
X188791547Y-60755392D01*
X188791547Y-60755392D02*
X188934404Y-60803011D01*
X188934404Y-60803011D02*
X188982023Y-60850630D01*
X189982023Y-61660153D02*
X189934404Y-61707773D01*
X189934404Y-61707773D02*
X189791547Y-61755392D01*
X189791547Y-61755392D02*
X189696309Y-61755392D01*
X189696309Y-61755392D02*
X189553452Y-61707773D01*
X189553452Y-61707773D02*
X189458214Y-61612534D01*
X189458214Y-61612534D02*
X189410595Y-61517296D01*
X189410595Y-61517296D02*
X189362976Y-61326820D01*
X189362976Y-61326820D02*
X189362976Y-61183963D01*
X189362976Y-61183963D02*
X189410595Y-60993487D01*
X189410595Y-60993487D02*
X189458214Y-60898249D01*
X189458214Y-60898249D02*
X189553452Y-60803011D01*
X189553452Y-60803011D02*
X189696309Y-60755392D01*
X189696309Y-60755392D02*
X189791547Y-60755392D01*
X189791547Y-60755392D02*
X189934404Y-60803011D01*
X189934404Y-60803011D02*
X189982023Y-60850630D01*
X146014390Y-21318436D02*
X146036613Y-21129260D01*
X146036613Y-21129260D02*
X146095018Y-21040228D01*
X146095018Y-21040228D02*
X146200718Y-20956752D01*
X146200718Y-20956752D02*
X146395449Y-20931681D01*
X146395449Y-20931681D02*
X146726506Y-20970572D01*
X146726506Y-20970572D02*
X146910125Y-21040088D01*
X146910125Y-21040088D02*
X146993601Y-21145788D01*
X146993601Y-21145788D02*
X147029784Y-21245931D01*
X147029784Y-21245931D02*
X147007561Y-21435106D01*
X147007561Y-21435106D02*
X146949155Y-21524138D01*
X146949155Y-21524138D02*
X146843456Y-21607615D01*
X146843456Y-21607615D02*
X146648725Y-21632685D01*
X146648725Y-21632685D02*
X146317668Y-21593795D01*
X146317668Y-21593795D02*
X146134049Y-21524278D01*
X146134049Y-21524278D02*
X146050572Y-21418579D01*
X146050572Y-21418579D02*
X146014390Y-21318436D01*
X147107564Y-20583817D02*
X146114394Y-20467147D01*
X146114394Y-20467147D02*
X147174233Y-20016291D01*
X147174233Y-20016291D02*
X146181063Y-19899621D01*
X155907206Y-22816200D02*
X155929429Y-22627025D01*
X155929429Y-22627025D02*
X155987834Y-22537993D01*
X155987834Y-22537993D02*
X156093533Y-22454517D01*
X156093533Y-22454517D02*
X156288264Y-22429446D01*
X156288264Y-22429446D02*
X156619321Y-22468336D01*
X156619321Y-22468336D02*
X156802941Y-22537853D01*
X156802941Y-22537853D02*
X156886417Y-22643552D01*
X156886417Y-22643552D02*
X156922599Y-22743696D01*
X156922599Y-22743696D02*
X156900376Y-22932871D01*
X156900376Y-22932871D02*
X156841971Y-23021903D01*
X156841971Y-23021903D02*
X156736272Y-23105379D01*
X156736272Y-23105379D02*
X156541541Y-23130450D01*
X156541541Y-23130450D02*
X156210484Y-23091560D01*
X156210484Y-23091560D02*
X156026864Y-23022043D01*
X156026864Y-23022043D02*
X155943388Y-22916344D01*
X155943388Y-22916344D02*
X155907206Y-22816200D01*
X156519038Y-21689412D02*
X156480148Y-22020469D01*
X157000380Y-22081582D02*
X156007209Y-21964911D01*
X156007209Y-21964911D02*
X156062767Y-21491973D01*
X156619041Y-20838123D02*
X156580151Y-21169179D01*
X157100383Y-21230293D02*
X156107213Y-21113622D01*
X156107213Y-21113622D02*
X156162770Y-20640684D01*
D11*
%TO.C,D18*%
X168843928Y-75350574D02*
X169243928Y-75350574D01*
X169243928Y-75350574D02*
X169243928Y-74800572D01*
X169243928Y-75350574D02*
X169243928Y-75900575D01*
X169243928Y-75350574D02*
X169843928Y-74950574D01*
X169843928Y-74950574D02*
X169843928Y-75750574D01*
X169843928Y-75350574D02*
X170343928Y-75350574D01*
X169843928Y-75750574D02*
X169243928Y-75350574D01*
%TO.C,D25*%
X187955527Y-111694399D02*
X188341897Y-111797926D01*
X188341897Y-111797926D02*
X188199546Y-112329187D01*
X188341897Y-111797926D02*
X188484248Y-111266665D01*
X188341897Y-111797926D02*
X189024980Y-111566847D01*
X188817925Y-112339588D02*
X188341897Y-111797926D01*
X188921452Y-111953218D02*
X189404415Y-112082627D01*
X189024980Y-111566847D02*
X188817925Y-112339588D01*
%TO.C,D17*%
X168843927Y-92350575D02*
X169243927Y-92350575D01*
X169243927Y-92350575D02*
X169243927Y-91800573D01*
X169243927Y-92350575D02*
X169243927Y-92900576D01*
X169243927Y-92350575D02*
X169843927Y-91950575D01*
X169843927Y-91950575D02*
X169843927Y-92750575D01*
X169843927Y-92350575D02*
X170343927Y-92350575D01*
X169843927Y-92750575D02*
X169243927Y-92350575D01*
%TO.C,D26*%
X205527227Y-118562521D02*
X205873638Y-118762521D01*
X205873638Y-118762521D02*
X205598637Y-119238836D01*
X205873638Y-118762521D02*
X206148637Y-118286207D01*
X205873638Y-118762521D02*
X206593252Y-118716111D01*
X206193252Y-119408931D02*
X205873638Y-118762521D01*
X206393252Y-119062521D02*
X206826265Y-119312521D01*
X206593252Y-118716111D02*
X206193252Y-119408931D01*
%TO.C,D21*%
X187843929Y-92350575D02*
X188243929Y-92350575D01*
X188243929Y-92350575D02*
X188243929Y-91800573D01*
X188243929Y-92350575D02*
X188243929Y-92900576D01*
X188243929Y-92350575D02*
X188843929Y-91950575D01*
X188843929Y-91950575D02*
X188843929Y-92750575D01*
X188843929Y-92350575D02*
X189343929Y-92350575D01*
X188843929Y-92750575D02*
X188243929Y-92350575D01*
%TO.C,D8*%
X114843927Y-38350575D02*
X115243927Y-38350575D01*
X115243927Y-38350575D02*
X115243927Y-37800573D01*
X115243927Y-38350575D02*
X115243927Y-38900576D01*
X115243927Y-38350575D02*
X115843927Y-37950575D01*
X115843927Y-37950575D02*
X115843927Y-38750575D01*
X115843927Y-38350575D02*
X116343927Y-38350575D01*
X115843927Y-38750575D02*
X115243927Y-38350575D01*
%TO.C,D11*%
X132843928Y-50350576D02*
X133243928Y-50350576D01*
X133243928Y-50350576D02*
X133243928Y-49800574D01*
X133243928Y-50350576D02*
X133243928Y-50900577D01*
X133243928Y-50350576D02*
X133843928Y-49950576D01*
X133843928Y-49950576D02*
X133843928Y-50750576D01*
X133843928Y-50350576D02*
X134343928Y-50350576D01*
X133843928Y-50750576D02*
X133243928Y-50350576D01*
D12*
%TO.C,MCU1*%
X179643925Y-26320574D02*
X179643925Y-56920574D01*
X179643925Y-26320574D02*
X182303925Y-26320573D01*
X179643925Y-56920574D02*
X182303925Y-56920574D01*
X182303925Y-26320573D02*
X182303925Y-56920574D01*
X182303925Y-28920574D02*
X179643925Y-28920573D01*
X194883924Y-56920574D02*
X197543927Y-56920574D01*
X194883925Y-26320573D02*
X194883924Y-56920574D01*
X194883925Y-26320573D02*
X197543925Y-26320574D01*
X197543925Y-26320574D02*
X197543927Y-56920574D01*
D11*
%TO.C,D1*%
X96843927Y-101850575D02*
X97243927Y-101850575D01*
X97243927Y-101850575D02*
X97243927Y-101300573D01*
X97243927Y-101850575D02*
X97243927Y-102400576D01*
X97243927Y-101850575D02*
X97843927Y-101450575D01*
X97843927Y-101450575D02*
X97843927Y-102250575D01*
X97843927Y-101850575D02*
X98343927Y-101850575D01*
X97843927Y-102250575D02*
X97243927Y-101850575D01*
%TO.C,D12*%
X132843928Y-33350575D02*
X133243928Y-33350575D01*
X133243928Y-33350575D02*
X133243928Y-32800573D01*
X133243928Y-33350575D02*
X133243928Y-33900576D01*
X133243928Y-33350575D02*
X133843928Y-32950575D01*
X133843928Y-32950575D02*
X133843928Y-33750575D01*
X133843928Y-33350575D02*
X134343928Y-33350575D01*
X133843928Y-33750575D02*
X133243928Y-33350575D01*
%TO.C,D2*%
X96843929Y-84850577D02*
X97243929Y-84850577D01*
X97243929Y-84850577D02*
X97243929Y-84300575D01*
X97243929Y-84850577D02*
X97243929Y-85400578D01*
X97243929Y-84850577D02*
X97843929Y-84450577D01*
X97843929Y-84450577D02*
X97843929Y-85250577D01*
X97843929Y-84850577D02*
X98343929Y-84850577D01*
X97843929Y-85250577D02*
X97243929Y-84850577D01*
%TO.C,D22*%
X187843927Y-75350574D02*
X188243927Y-75350574D01*
X188243927Y-75350574D02*
X188243927Y-74800572D01*
X188243927Y-75350574D02*
X188243927Y-75900575D01*
X188243927Y-75350574D02*
X188843927Y-74950574D01*
X188843927Y-74950574D02*
X188843927Y-75750574D01*
X188843927Y-75350574D02*
X189343927Y-75350574D01*
X188843927Y-75750574D02*
X188243927Y-75350574D01*
%TO.C,D7*%
X114843928Y-55350574D02*
X115243928Y-55350574D01*
X115243928Y-55350574D02*
X115243928Y-54800572D01*
X115243928Y-55350574D02*
X115243928Y-55900575D01*
X115243928Y-55350574D02*
X115843928Y-54950574D01*
X115843928Y-54950574D02*
X115843928Y-55750574D01*
X115843928Y-55350574D02*
X116343928Y-55350574D01*
X115843928Y-55750574D02*
X115243928Y-55350574D01*
%TO.C,D13*%
X150843927Y-89350576D02*
X151243927Y-89350576D01*
X151243927Y-89350576D02*
X151243927Y-88800574D01*
X151243927Y-89350576D02*
X151243927Y-89900577D01*
X151243927Y-89350576D02*
X151843927Y-88950576D01*
X151843927Y-88950576D02*
X151843927Y-89750576D01*
X151843927Y-89350576D02*
X152343927Y-89350576D01*
X151843927Y-89750576D02*
X151243927Y-89350576D01*
%TO.C,D5*%
X114843926Y-89350575D02*
X115243926Y-89350575D01*
X115243926Y-89350575D02*
X115243926Y-88800573D01*
X115243926Y-89350575D02*
X115243926Y-89900576D01*
X115243926Y-89350575D02*
X115843926Y-88950575D01*
X115843926Y-88950575D02*
X115843926Y-89750575D01*
X115843926Y-89350575D02*
X116343926Y-89350575D01*
X115843926Y-89750575D02*
X115243926Y-89350575D01*
D12*
%TO.C,DISP1*%
X182183928Y-57720573D02*
X182183928Y-60380573D01*
X195003928Y-57720573D02*
X182183928Y-57720573D01*
X195003928Y-57720573D02*
X195003928Y-60380573D01*
X195003928Y-60380573D02*
X182183928Y-60380573D01*
D11*
%TO.C,D4*%
X96843927Y-50850577D02*
X97243927Y-50850577D01*
X97243927Y-50850577D02*
X97243927Y-50300575D01*
X97243927Y-50850577D02*
X97243927Y-51400578D01*
X97243927Y-50850577D02*
X97843927Y-50450577D01*
X97843927Y-50450577D02*
X97843927Y-51250577D01*
X97843927Y-50850577D02*
X98343927Y-50850577D01*
X97843927Y-51250577D02*
X97243927Y-50850577D01*
%TO.C,D19*%
X168843926Y-58350575D02*
X169243926Y-58350575D01*
X169243926Y-58350575D02*
X169243926Y-57800573D01*
X169243926Y-58350575D02*
X169243926Y-58900576D01*
X169243926Y-58350575D02*
X169843926Y-57950575D01*
X169843926Y-57950575D02*
X169843926Y-58750575D01*
X169843926Y-58350575D02*
X170343926Y-58350575D01*
X169843926Y-58750575D02*
X169243926Y-58350575D01*
%TO.C,D6*%
X114843928Y-72350575D02*
X115243928Y-72350575D01*
X115243928Y-72350575D02*
X115243928Y-71800573D01*
X115243928Y-72350575D02*
X115243928Y-72900576D01*
X115243928Y-72350575D02*
X115843928Y-71950575D01*
X115843928Y-71950575D02*
X115843928Y-72750575D01*
X115843928Y-72350575D02*
X116343928Y-72350575D01*
X115843928Y-72750575D02*
X115243928Y-72350575D01*
%TO.C,D24*%
X168843929Y-109350575D02*
X169243929Y-109350575D01*
X169243929Y-109350575D02*
X169243929Y-108800573D01*
X169243929Y-109350575D02*
X169243929Y-109900576D01*
X169243929Y-109350575D02*
X169843929Y-108950575D01*
X169843929Y-108950575D02*
X169843929Y-109750575D01*
X169843929Y-109350575D02*
X170343929Y-109350575D01*
X169843929Y-109750575D02*
X169243929Y-109350575D01*
%TO.C,D23*%
X150843927Y-109350575D02*
X151243927Y-109350575D01*
X151243927Y-109350575D02*
X151243927Y-108800573D01*
X151243927Y-109350575D02*
X151243927Y-109900576D01*
X151243927Y-109350575D02*
X151843927Y-108950575D01*
X151843927Y-108950575D02*
X151843927Y-109750575D01*
X151843927Y-109350575D02*
X152343927Y-109350575D01*
X151843927Y-109750575D02*
X151243927Y-109350575D01*
%TO.C,D14*%
X150843927Y-72350574D02*
X151243927Y-72350574D01*
X151243927Y-72350574D02*
X151243927Y-71800572D01*
X151243927Y-72350574D02*
X151243927Y-72900575D01*
X151243927Y-72350574D02*
X151843927Y-71950574D01*
X151843927Y-71950574D02*
X151843927Y-72750574D01*
X151843927Y-72350574D02*
X152343927Y-72350574D01*
X151843927Y-72750574D02*
X151243927Y-72350574D01*
%TO.C,D3*%
X96843928Y-67850575D02*
X97243928Y-67850575D01*
X97243928Y-67850575D02*
X97243928Y-67300573D01*
X97243928Y-67850575D02*
X97243928Y-68400576D01*
X97243928Y-67850575D02*
X97843928Y-67450575D01*
X97843928Y-67450575D02*
X97843928Y-68250575D01*
X97843928Y-67850575D02*
X98343928Y-67850575D01*
X97843928Y-68250575D02*
X97243928Y-67850575D01*
%TO.C,JST1*%
X129193928Y-109850577D02*
X129193929Y-108850576D01*
X129193930Y-106850577D02*
X129193929Y-107850576D01*
X129693929Y-109350576D02*
X128693929Y-109350576D01*
D12*
X130233928Y-106210576D02*
X130233929Y-105290576D01*
X130233929Y-105290576D02*
X131233930Y-105290576D01*
X130233929Y-111410576D02*
X131233929Y-111410576D01*
X130233930Y-110490576D02*
X130233929Y-111410576D01*
X138053929Y-105290576D02*
X137053929Y-105290576D01*
X138053929Y-106290576D02*
X138053929Y-105290576D01*
X138053929Y-110490574D02*
X138053929Y-111410576D01*
X138053929Y-111410576D02*
X137053927Y-111410575D01*
D11*
%TO.C,D20*%
X168843927Y-41350575D02*
X169243927Y-41350575D01*
X169243927Y-41350575D02*
X169243927Y-40800573D01*
X169243927Y-41350575D02*
X169243927Y-41900576D01*
X169243927Y-41350575D02*
X169843927Y-40950575D01*
X169843927Y-40950575D02*
X169843927Y-41750575D01*
X169843927Y-41350575D02*
X170343927Y-41350575D01*
X169843927Y-41750575D02*
X169243927Y-41350575D01*
%TO.C,D15*%
X150843928Y-55350576D02*
X151243928Y-55350576D01*
X151243928Y-55350576D02*
X151243928Y-54800574D01*
X151243928Y-55350576D02*
X151243928Y-55900577D01*
X151243928Y-55350576D02*
X151843928Y-54950576D01*
X151843928Y-54950576D02*
X151843928Y-55750576D01*
X151843928Y-55350576D02*
X152343928Y-55350576D01*
X151843928Y-55750576D02*
X151243928Y-55350576D01*
%TO.C,D16*%
X150843930Y-38350576D02*
X151243930Y-38350576D01*
X151243930Y-38350576D02*
X151243930Y-37800574D01*
X151243930Y-38350576D02*
X151243930Y-38900577D01*
X151243930Y-38350576D02*
X151843930Y-37950576D01*
X151843930Y-37950576D02*
X151843930Y-38750576D01*
X151843930Y-38350576D02*
X152343930Y-38350576D01*
X151843930Y-38750576D02*
X151243930Y-38350576D01*
%TO.C,RST1*%
X163084972Y-24566156D02*
X163055804Y-24814448D01*
X163304097Y-24843616D02*
X163055804Y-24814448D01*
X163434983Y-21586644D02*
X163464152Y-21338351D01*
X163712444Y-21367519D02*
X163464152Y-21338351D01*
X167475414Y-25333633D02*
X167723706Y-25362801D01*
X167752875Y-25114508D02*
X167723706Y-25362801D01*
X167883761Y-21857536D02*
X168132054Y-21886704D01*
X168102886Y-22134996D02*
X168132054Y-21886704D01*
%TO.C,D10*%
X132843925Y-67350576D02*
X133243925Y-67350576D01*
X133243925Y-67350576D02*
X133243925Y-66800574D01*
X133243925Y-67350576D02*
X133243925Y-67900577D01*
X133243925Y-67350576D02*
X133843925Y-66950576D01*
X133843925Y-66950576D02*
X133843925Y-67750576D01*
X133843925Y-67350576D02*
X134343925Y-67350576D01*
X133843925Y-67750576D02*
X133243925Y-67350576D01*
D12*
%TO.C,PWR1*%
X148215908Y-20535897D02*
X148123736Y-21320502D01*
X150037231Y-22602506D02*
X149838597Y-22579172D01*
X153016743Y-22952518D02*
X151328353Y-22754178D01*
X154590718Y-20267820D02*
X148929645Y-19602797D01*
X154976613Y-22125530D02*
X155068783Y-21340925D01*
D11*
%TO.C,D9*%
X132843927Y-84350573D02*
X133243927Y-84350573D01*
X133243927Y-84350573D02*
X133243927Y-83800571D01*
X133243927Y-84350573D02*
X133243927Y-84900574D01*
X133243927Y-84350573D02*
X133843927Y-83950573D01*
X133843927Y-83950573D02*
X133843927Y-84750573D01*
X133843927Y-84350573D02*
X134343927Y-84350573D01*
X133843927Y-84750573D02*
X133243927Y-84350573D01*
%TD*%
M02*
