%TF.GenerationSoftware,KiCad,Pcbnew,8.0.4*%
%TF.CreationDate,2024-09-01T12:28:14-05:00*%
%TF.ProjectId,sweeppp,73776565-7070-4702-9e6b-696361645f70,v1.0.0*%
%TF.SameCoordinates,Original*%
%TF.FileFunction,Legend,Bot*%
%TF.FilePolarity,Positive*%
%FSLAX46Y46*%
G04 Gerber Fmt 4.6, Leading zero omitted, Abs format (unit mm)*
G04 Created by KiCad (PCBNEW 8.0.4) date 2024-09-01 12:28:14*
%MOMM*%
%LPD*%
G01*
G04 APERTURE LIST*
%ADD10C,0.150000*%
%ADD11C,0.100000*%
%ADD12C,0.120000*%
G04 APERTURE END LIST*
D10*
X187292019Y-28105393D02*
X187292019Y-27105393D01*
X187292019Y-27105393D02*
X186911067Y-27105393D01*
X186911067Y-27105393D02*
X186815829Y-27153012D01*
X186815829Y-27153012D02*
X186768210Y-27200631D01*
X186768210Y-27200631D02*
X186720591Y-27295869D01*
X186720591Y-27295869D02*
X186720591Y-27438726D01*
X186720591Y-27438726D02*
X186768210Y-27533964D01*
X186768210Y-27533964D02*
X186815829Y-27581583D01*
X186815829Y-27581583D02*
X186911067Y-27629202D01*
X186911067Y-27629202D02*
X187292019Y-27629202D01*
X185768210Y-28105393D02*
X186339638Y-28105393D01*
X186053924Y-28105393D02*
X186053924Y-27105393D01*
X186053924Y-27105393D02*
X186149162Y-27248250D01*
X186149162Y-27248250D02*
X186244400Y-27343488D01*
X186244400Y-27343488D02*
X186339638Y-27391107D01*
X190734402Y-28105393D02*
X191067735Y-27629202D01*
X191305830Y-28105393D02*
X191305830Y-27105393D01*
X191305830Y-27105393D02*
X190924878Y-27105393D01*
X190924878Y-27105393D02*
X190829640Y-27153012D01*
X190829640Y-27153012D02*
X190782021Y-27200631D01*
X190782021Y-27200631D02*
X190734402Y-27295869D01*
X190734402Y-27295869D02*
X190734402Y-27438726D01*
X190734402Y-27438726D02*
X190782021Y-27533964D01*
X190782021Y-27533964D02*
X190829640Y-27581583D01*
X190829640Y-27581583D02*
X190924878Y-27629202D01*
X190924878Y-27629202D02*
X191305830Y-27629202D01*
X190353449Y-27819678D02*
X189877259Y-27819678D01*
X190448687Y-28105393D02*
X190115354Y-27105393D01*
X190115354Y-27105393D02*
X189782021Y-28105393D01*
X189543925Y-27105393D02*
X189305830Y-28105393D01*
X189305830Y-28105393D02*
X189115354Y-27391107D01*
X189115354Y-27391107D02*
X188924878Y-28105393D01*
X188924878Y-28105393D02*
X188686783Y-27105393D01*
X187292019Y-30645393D02*
X187292019Y-29645393D01*
X187292019Y-29645393D02*
X186911067Y-29645393D01*
X186911067Y-29645393D02*
X186815829Y-29693012D01*
X186815829Y-29693012D02*
X186768210Y-29740631D01*
X186768210Y-29740631D02*
X186720591Y-29835869D01*
X186720591Y-29835869D02*
X186720591Y-29978726D01*
X186720591Y-29978726D02*
X186768210Y-30073964D01*
X186768210Y-30073964D02*
X186815829Y-30121583D01*
X186815829Y-30121583D02*
X186911067Y-30169202D01*
X186911067Y-30169202D02*
X187292019Y-30169202D01*
X186101543Y-29645393D02*
X186006305Y-29645393D01*
X186006305Y-29645393D02*
X185911067Y-29693012D01*
X185911067Y-29693012D02*
X185863448Y-29740631D01*
X185863448Y-29740631D02*
X185815829Y-29835869D01*
X185815829Y-29835869D02*
X185768210Y-30026345D01*
X185768210Y-30026345D02*
X185768210Y-30264440D01*
X185768210Y-30264440D02*
X185815829Y-30454916D01*
X185815829Y-30454916D02*
X185863448Y-30550154D01*
X185863448Y-30550154D02*
X185911067Y-30597774D01*
X185911067Y-30597774D02*
X186006305Y-30645393D01*
X186006305Y-30645393D02*
X186101543Y-30645393D01*
X186101543Y-30645393D02*
X186196781Y-30597774D01*
X186196781Y-30597774D02*
X186244400Y-30550154D01*
X186244400Y-30550154D02*
X186292019Y-30454916D01*
X186292019Y-30454916D02*
X186339638Y-30264440D01*
X186339638Y-30264440D02*
X186339638Y-30026345D01*
X186339638Y-30026345D02*
X186292019Y-29835869D01*
X186292019Y-29835869D02*
X186244400Y-29740631D01*
X186244400Y-29740631D02*
X186196781Y-29693012D01*
X186196781Y-29693012D02*
X186101543Y-29645393D01*
X190805829Y-29693012D02*
X190901067Y-29645393D01*
X190901067Y-29645393D02*
X191043924Y-29645393D01*
X191043924Y-29645393D02*
X191186781Y-29693012D01*
X191186781Y-29693012D02*
X191282019Y-29788250D01*
X191282019Y-29788250D02*
X191329638Y-29883488D01*
X191329638Y-29883488D02*
X191377257Y-30073964D01*
X191377257Y-30073964D02*
X191377257Y-30216821D01*
X191377257Y-30216821D02*
X191329638Y-30407297D01*
X191329638Y-30407297D02*
X191282019Y-30502535D01*
X191282019Y-30502535D02*
X191186781Y-30597774D01*
X191186781Y-30597774D02*
X191043924Y-30645393D01*
X191043924Y-30645393D02*
X190948686Y-30645393D01*
X190948686Y-30645393D02*
X190805829Y-30597774D01*
X190805829Y-30597774D02*
X190758210Y-30550154D01*
X190758210Y-30550154D02*
X190758210Y-30216821D01*
X190758210Y-30216821D02*
X190948686Y-30216821D01*
X190329638Y-30645393D02*
X190329638Y-29645393D01*
X190329638Y-29645393D02*
X189758210Y-30645393D01*
X189758210Y-30645393D02*
X189758210Y-29645393D01*
X189282019Y-30645393D02*
X189282019Y-29645393D01*
X189282019Y-29645393D02*
X189043924Y-29645393D01*
X189043924Y-29645393D02*
X188901067Y-29693012D01*
X188901067Y-29693012D02*
X188805829Y-29788250D01*
X188805829Y-29788250D02*
X188758210Y-29883488D01*
X188758210Y-29883488D02*
X188710591Y-30073964D01*
X188710591Y-30073964D02*
X188710591Y-30216821D01*
X188710591Y-30216821D02*
X188758210Y-30407297D01*
X188758210Y-30407297D02*
X188805829Y-30502535D01*
X188805829Y-30502535D02*
X188901067Y-30597774D01*
X188901067Y-30597774D02*
X189043924Y-30645393D01*
X189043924Y-30645393D02*
X189282019Y-30645393D01*
X187905829Y-32233012D02*
X188001067Y-32185393D01*
X188001067Y-32185393D02*
X188143924Y-32185393D01*
X188143924Y-32185393D02*
X188286781Y-32233012D01*
X188286781Y-32233012D02*
X188382019Y-32328250D01*
X188382019Y-32328250D02*
X188429638Y-32423488D01*
X188429638Y-32423488D02*
X188477257Y-32613964D01*
X188477257Y-32613964D02*
X188477257Y-32756821D01*
X188477257Y-32756821D02*
X188429638Y-32947297D01*
X188429638Y-32947297D02*
X188382019Y-33042535D01*
X188382019Y-33042535D02*
X188286781Y-33137774D01*
X188286781Y-33137774D02*
X188143924Y-33185393D01*
X188143924Y-33185393D02*
X188048686Y-33185393D01*
X188048686Y-33185393D02*
X187905829Y-33137774D01*
X187905829Y-33137774D02*
X187858210Y-33090154D01*
X187858210Y-33090154D02*
X187858210Y-32756821D01*
X187858210Y-32756821D02*
X188048686Y-32756821D01*
X187429638Y-33185393D02*
X187429638Y-32185393D01*
X187429638Y-32185393D02*
X186858210Y-33185393D01*
X186858210Y-33185393D02*
X186858210Y-32185393D01*
X186382019Y-33185393D02*
X186382019Y-32185393D01*
X186382019Y-32185393D02*
X186143924Y-32185393D01*
X186143924Y-32185393D02*
X186001067Y-32233012D01*
X186001067Y-32233012D02*
X185905829Y-32328250D01*
X185905829Y-32328250D02*
X185858210Y-32423488D01*
X185858210Y-32423488D02*
X185810591Y-32613964D01*
X185810591Y-32613964D02*
X185810591Y-32756821D01*
X185810591Y-32756821D02*
X185858210Y-32947297D01*
X185858210Y-32947297D02*
X185905829Y-33042535D01*
X185905829Y-33042535D02*
X186001067Y-33137774D01*
X186001067Y-33137774D02*
X186143924Y-33185393D01*
X186143924Y-33185393D02*
X186382019Y-33185393D01*
X190591544Y-33185393D02*
X190924877Y-32709202D01*
X191162972Y-33185393D02*
X191162972Y-32185393D01*
X191162972Y-32185393D02*
X190782020Y-32185393D01*
X190782020Y-32185393D02*
X190686782Y-32233012D01*
X190686782Y-32233012D02*
X190639163Y-32280631D01*
X190639163Y-32280631D02*
X190591544Y-32375869D01*
X190591544Y-32375869D02*
X190591544Y-32518726D01*
X190591544Y-32518726D02*
X190639163Y-32613964D01*
X190639163Y-32613964D02*
X190686782Y-32661583D01*
X190686782Y-32661583D02*
X190782020Y-32709202D01*
X190782020Y-32709202D02*
X191162972Y-32709202D01*
X190210591Y-33137774D02*
X190067734Y-33185393D01*
X190067734Y-33185393D02*
X189829639Y-33185393D01*
X189829639Y-33185393D02*
X189734401Y-33137774D01*
X189734401Y-33137774D02*
X189686782Y-33090154D01*
X189686782Y-33090154D02*
X189639163Y-32994916D01*
X189639163Y-32994916D02*
X189639163Y-32899678D01*
X189639163Y-32899678D02*
X189686782Y-32804440D01*
X189686782Y-32804440D02*
X189734401Y-32756821D01*
X189734401Y-32756821D02*
X189829639Y-32709202D01*
X189829639Y-32709202D02*
X190020115Y-32661583D01*
X190020115Y-32661583D02*
X190115353Y-32613964D01*
X190115353Y-32613964D02*
X190162972Y-32566345D01*
X190162972Y-32566345D02*
X190210591Y-32471107D01*
X190210591Y-32471107D02*
X190210591Y-32375869D01*
X190210591Y-32375869D02*
X190162972Y-32280631D01*
X190162972Y-32280631D02*
X190115353Y-32233012D01*
X190115353Y-32233012D02*
X190020115Y-32185393D01*
X190020115Y-32185393D02*
X189782020Y-32185393D01*
X189782020Y-32185393D02*
X189639163Y-32233012D01*
X189353448Y-32185393D02*
X188782020Y-32185393D01*
X189067734Y-33185393D02*
X189067734Y-32185393D01*
X187905830Y-34773010D02*
X188001068Y-34725391D01*
X188001068Y-34725391D02*
X188143925Y-34725391D01*
X188143925Y-34725391D02*
X188286782Y-34773010D01*
X188286782Y-34773010D02*
X188382020Y-34868248D01*
X188382020Y-34868248D02*
X188429639Y-34963486D01*
X188429639Y-34963486D02*
X188477258Y-35153962D01*
X188477258Y-35153962D02*
X188477258Y-35296819D01*
X188477258Y-35296819D02*
X188429639Y-35487295D01*
X188429639Y-35487295D02*
X188382020Y-35582533D01*
X188382020Y-35582533D02*
X188286782Y-35677772D01*
X188286782Y-35677772D02*
X188143925Y-35725391D01*
X188143925Y-35725391D02*
X188048687Y-35725391D01*
X188048687Y-35725391D02*
X187905830Y-35677772D01*
X187905830Y-35677772D02*
X187858211Y-35630152D01*
X187858211Y-35630152D02*
X187858211Y-35296819D01*
X187858211Y-35296819D02*
X188048687Y-35296819D01*
X187429639Y-35725391D02*
X187429639Y-34725391D01*
X187429639Y-34725391D02*
X186858211Y-35725391D01*
X186858211Y-35725391D02*
X186858211Y-34725391D01*
X186382020Y-35725391D02*
X186382020Y-34725391D01*
X186382020Y-34725391D02*
X186143925Y-34725391D01*
X186143925Y-34725391D02*
X186001068Y-34773010D01*
X186001068Y-34773010D02*
X185905830Y-34868248D01*
X185905830Y-34868248D02*
X185858211Y-34963486D01*
X185858211Y-34963486D02*
X185810592Y-35153962D01*
X185810592Y-35153962D02*
X185810592Y-35296819D01*
X185810592Y-35296819D02*
X185858211Y-35487295D01*
X185858211Y-35487295D02*
X185905830Y-35582533D01*
X185905830Y-35582533D02*
X186001068Y-35677772D01*
X186001068Y-35677772D02*
X186143925Y-35725391D01*
X186143925Y-35725391D02*
X186382020Y-35725391D01*
X191377257Y-34725393D02*
X191043924Y-35725393D01*
X191043924Y-35725393D02*
X190710591Y-34725393D01*
X189805829Y-35630154D02*
X189853448Y-35677774D01*
X189853448Y-35677774D02*
X189996305Y-35725393D01*
X189996305Y-35725393D02*
X190091543Y-35725393D01*
X190091543Y-35725393D02*
X190234400Y-35677774D01*
X190234400Y-35677774D02*
X190329638Y-35582535D01*
X190329638Y-35582535D02*
X190377257Y-35487297D01*
X190377257Y-35487297D02*
X190424876Y-35296821D01*
X190424876Y-35296821D02*
X190424876Y-35153964D01*
X190424876Y-35153964D02*
X190377257Y-34963488D01*
X190377257Y-34963488D02*
X190329638Y-34868250D01*
X190329638Y-34868250D02*
X190234400Y-34773012D01*
X190234400Y-34773012D02*
X190091543Y-34725393D01*
X190091543Y-34725393D02*
X189996305Y-34725393D01*
X189996305Y-34725393D02*
X189853448Y-34773012D01*
X189853448Y-34773012D02*
X189805829Y-34820631D01*
X188805829Y-35630154D02*
X188853448Y-35677774D01*
X188853448Y-35677774D02*
X188996305Y-35725393D01*
X188996305Y-35725393D02*
X189091543Y-35725393D01*
X189091543Y-35725393D02*
X189234400Y-35677774D01*
X189234400Y-35677774D02*
X189329638Y-35582535D01*
X189329638Y-35582535D02*
X189377257Y-35487297D01*
X189377257Y-35487297D02*
X189424876Y-35296821D01*
X189424876Y-35296821D02*
X189424876Y-35153964D01*
X189424876Y-35153964D02*
X189377257Y-34963488D01*
X189377257Y-34963488D02*
X189329638Y-34868250D01*
X189329638Y-34868250D02*
X189234400Y-34773012D01*
X189234400Y-34773012D02*
X189091543Y-34725393D01*
X189091543Y-34725393D02*
X188996305Y-34725393D01*
X188996305Y-34725393D02*
X188853448Y-34773012D01*
X188853448Y-34773012D02*
X188805829Y-34820631D01*
X187292019Y-38265393D02*
X187292019Y-37265393D01*
X187292019Y-37265393D02*
X186911067Y-37265393D01*
X186911067Y-37265393D02*
X186815829Y-37313012D01*
X186815829Y-37313012D02*
X186768210Y-37360631D01*
X186768210Y-37360631D02*
X186720591Y-37455869D01*
X186720591Y-37455869D02*
X186720591Y-37598726D01*
X186720591Y-37598726D02*
X186768210Y-37693964D01*
X186768210Y-37693964D02*
X186815829Y-37741583D01*
X186815829Y-37741583D02*
X186911067Y-37789202D01*
X186911067Y-37789202D02*
X187292019Y-37789202D01*
X186339638Y-37360631D02*
X186292019Y-37313012D01*
X186292019Y-37313012D02*
X186196781Y-37265393D01*
X186196781Y-37265393D02*
X185958686Y-37265393D01*
X185958686Y-37265393D02*
X185863448Y-37313012D01*
X185863448Y-37313012D02*
X185815829Y-37360631D01*
X185815829Y-37360631D02*
X185768210Y-37455869D01*
X185768210Y-37455869D02*
X185768210Y-37551107D01*
X185768210Y-37551107D02*
X185815829Y-37693964D01*
X185815829Y-37693964D02*
X186387257Y-38265393D01*
X186387257Y-38265393D02*
X185768210Y-38265393D01*
X191258210Y-38265393D02*
X191258210Y-37265393D01*
X191258210Y-37265393D02*
X190877258Y-37265393D01*
X190877258Y-37265393D02*
X190782020Y-37313012D01*
X190782020Y-37313012D02*
X190734401Y-37360631D01*
X190734401Y-37360631D02*
X190686782Y-37455869D01*
X190686782Y-37455869D02*
X190686782Y-37598726D01*
X190686782Y-37598726D02*
X190734401Y-37693964D01*
X190734401Y-37693964D02*
X190782020Y-37741583D01*
X190782020Y-37741583D02*
X190877258Y-37789202D01*
X190877258Y-37789202D02*
X191258210Y-37789202D01*
X190305829Y-37360631D02*
X190258210Y-37313012D01*
X190258210Y-37313012D02*
X190162972Y-37265393D01*
X190162972Y-37265393D02*
X189924877Y-37265393D01*
X189924877Y-37265393D02*
X189829639Y-37313012D01*
X189829639Y-37313012D02*
X189782020Y-37360631D01*
X189782020Y-37360631D02*
X189734401Y-37455869D01*
X189734401Y-37455869D02*
X189734401Y-37551107D01*
X189734401Y-37551107D02*
X189782020Y-37693964D01*
X189782020Y-37693964D02*
X190353448Y-38265393D01*
X190353448Y-38265393D02*
X189734401Y-38265393D01*
X188782020Y-38265393D02*
X189353448Y-38265393D01*
X189067734Y-38265393D02*
X189067734Y-37265393D01*
X189067734Y-37265393D02*
X189162972Y-37408250D01*
X189162972Y-37408250D02*
X189258210Y-37503488D01*
X189258210Y-37503488D02*
X189353448Y-37551107D01*
X187292019Y-40805393D02*
X187292019Y-39805393D01*
X187292019Y-39805393D02*
X186911067Y-39805393D01*
X186911067Y-39805393D02*
X186815829Y-39853012D01*
X186815829Y-39853012D02*
X186768210Y-39900631D01*
X186768210Y-39900631D02*
X186720591Y-39995869D01*
X186720591Y-39995869D02*
X186720591Y-40138726D01*
X186720591Y-40138726D02*
X186768210Y-40233964D01*
X186768210Y-40233964D02*
X186815829Y-40281583D01*
X186815829Y-40281583D02*
X186911067Y-40329202D01*
X186911067Y-40329202D02*
X187292019Y-40329202D01*
X186387257Y-39805393D02*
X185768210Y-39805393D01*
X185768210Y-39805393D02*
X186101543Y-40186345D01*
X186101543Y-40186345D02*
X185958686Y-40186345D01*
X185958686Y-40186345D02*
X185863448Y-40233964D01*
X185863448Y-40233964D02*
X185815829Y-40281583D01*
X185815829Y-40281583D02*
X185768210Y-40376821D01*
X185768210Y-40376821D02*
X185768210Y-40614916D01*
X185768210Y-40614916D02*
X185815829Y-40710154D01*
X185815829Y-40710154D02*
X185863448Y-40757774D01*
X185863448Y-40757774D02*
X185958686Y-40805393D01*
X185958686Y-40805393D02*
X186244400Y-40805393D01*
X186244400Y-40805393D02*
X186339638Y-40757774D01*
X186339638Y-40757774D02*
X186387257Y-40710154D01*
X191258210Y-40805393D02*
X191258210Y-39805393D01*
X191258210Y-39805393D02*
X190877258Y-39805393D01*
X190877258Y-39805393D02*
X190782020Y-39853012D01*
X190782020Y-39853012D02*
X190734401Y-39900631D01*
X190734401Y-39900631D02*
X190686782Y-39995869D01*
X190686782Y-39995869D02*
X190686782Y-40138726D01*
X190686782Y-40138726D02*
X190734401Y-40233964D01*
X190734401Y-40233964D02*
X190782020Y-40281583D01*
X190782020Y-40281583D02*
X190877258Y-40329202D01*
X190877258Y-40329202D02*
X191258210Y-40329202D01*
X190305829Y-39900631D02*
X190258210Y-39853012D01*
X190258210Y-39853012D02*
X190162972Y-39805393D01*
X190162972Y-39805393D02*
X189924877Y-39805393D01*
X189924877Y-39805393D02*
X189829639Y-39853012D01*
X189829639Y-39853012D02*
X189782020Y-39900631D01*
X189782020Y-39900631D02*
X189734401Y-39995869D01*
X189734401Y-39995869D02*
X189734401Y-40091107D01*
X189734401Y-40091107D02*
X189782020Y-40233964D01*
X189782020Y-40233964D02*
X190353448Y-40805393D01*
X190353448Y-40805393D02*
X189734401Y-40805393D01*
X189115353Y-39805393D02*
X189020115Y-39805393D01*
X189020115Y-39805393D02*
X188924877Y-39853012D01*
X188924877Y-39853012D02*
X188877258Y-39900631D01*
X188877258Y-39900631D02*
X188829639Y-39995869D01*
X188829639Y-39995869D02*
X188782020Y-40186345D01*
X188782020Y-40186345D02*
X188782020Y-40424440D01*
X188782020Y-40424440D02*
X188829639Y-40614916D01*
X188829639Y-40614916D02*
X188877258Y-40710154D01*
X188877258Y-40710154D02*
X188924877Y-40757774D01*
X188924877Y-40757774D02*
X189020115Y-40805393D01*
X189020115Y-40805393D02*
X189115353Y-40805393D01*
X189115353Y-40805393D02*
X189210591Y-40757774D01*
X189210591Y-40757774D02*
X189258210Y-40710154D01*
X189258210Y-40710154D02*
X189305829Y-40614916D01*
X189305829Y-40614916D02*
X189353448Y-40424440D01*
X189353448Y-40424440D02*
X189353448Y-40186345D01*
X189353448Y-40186345D02*
X189305829Y-39995869D01*
X189305829Y-39995869D02*
X189258210Y-39900631D01*
X189258210Y-39900631D02*
X189210591Y-39853012D01*
X189210591Y-39853012D02*
X189115353Y-39805393D01*
X187292019Y-43345393D02*
X187292019Y-42345393D01*
X187292019Y-42345393D02*
X186911067Y-42345393D01*
X186911067Y-42345393D02*
X186815829Y-42393012D01*
X186815829Y-42393012D02*
X186768210Y-42440631D01*
X186768210Y-42440631D02*
X186720591Y-42535869D01*
X186720591Y-42535869D02*
X186720591Y-42678726D01*
X186720591Y-42678726D02*
X186768210Y-42773964D01*
X186768210Y-42773964D02*
X186815829Y-42821583D01*
X186815829Y-42821583D02*
X186911067Y-42869202D01*
X186911067Y-42869202D02*
X187292019Y-42869202D01*
X185863448Y-42678726D02*
X185863448Y-43345393D01*
X186101543Y-42297774D02*
X186339638Y-43012059D01*
X186339638Y-43012059D02*
X185720591Y-43012059D01*
X191258210Y-43345393D02*
X191258210Y-42345393D01*
X191258210Y-42345393D02*
X190877258Y-42345393D01*
X190877258Y-42345393D02*
X190782020Y-42393012D01*
X190782020Y-42393012D02*
X190734401Y-42440631D01*
X190734401Y-42440631D02*
X190686782Y-42535869D01*
X190686782Y-42535869D02*
X190686782Y-42678726D01*
X190686782Y-42678726D02*
X190734401Y-42773964D01*
X190734401Y-42773964D02*
X190782020Y-42821583D01*
X190782020Y-42821583D02*
X190877258Y-42869202D01*
X190877258Y-42869202D02*
X191258210Y-42869202D01*
X189734401Y-43345393D02*
X190305829Y-43345393D01*
X190020115Y-43345393D02*
X190020115Y-42345393D01*
X190020115Y-42345393D02*
X190115353Y-42488250D01*
X190115353Y-42488250D02*
X190210591Y-42583488D01*
X190210591Y-42583488D02*
X190305829Y-42631107D01*
X189258210Y-43345393D02*
X189067734Y-43345393D01*
X189067734Y-43345393D02*
X188972496Y-43297774D01*
X188972496Y-43297774D02*
X188924877Y-43250154D01*
X188924877Y-43250154D02*
X188829639Y-43107297D01*
X188829639Y-43107297D02*
X188782020Y-42916821D01*
X188782020Y-42916821D02*
X188782020Y-42535869D01*
X188782020Y-42535869D02*
X188829639Y-42440631D01*
X188829639Y-42440631D02*
X188877258Y-42393012D01*
X188877258Y-42393012D02*
X188972496Y-42345393D01*
X188972496Y-42345393D02*
X189162972Y-42345393D01*
X189162972Y-42345393D02*
X189258210Y-42393012D01*
X189258210Y-42393012D02*
X189305829Y-42440631D01*
X189305829Y-42440631D02*
X189353448Y-42535869D01*
X189353448Y-42535869D02*
X189353448Y-42773964D01*
X189353448Y-42773964D02*
X189305829Y-42869202D01*
X189305829Y-42869202D02*
X189258210Y-42916821D01*
X189258210Y-42916821D02*
X189162972Y-42964440D01*
X189162972Y-42964440D02*
X188972496Y-42964440D01*
X188972496Y-42964440D02*
X188877258Y-42916821D01*
X188877258Y-42916821D02*
X188829639Y-42869202D01*
X188829639Y-42869202D02*
X188782020Y-42773964D01*
X187292019Y-45885393D02*
X187292019Y-44885393D01*
X187292019Y-44885393D02*
X186911067Y-44885393D01*
X186911067Y-44885393D02*
X186815829Y-44933012D01*
X186815829Y-44933012D02*
X186768210Y-44980631D01*
X186768210Y-44980631D02*
X186720591Y-45075869D01*
X186720591Y-45075869D02*
X186720591Y-45218726D01*
X186720591Y-45218726D02*
X186768210Y-45313964D01*
X186768210Y-45313964D02*
X186815829Y-45361583D01*
X186815829Y-45361583D02*
X186911067Y-45409202D01*
X186911067Y-45409202D02*
X187292019Y-45409202D01*
X185815829Y-44885393D02*
X186292019Y-44885393D01*
X186292019Y-44885393D02*
X186339638Y-45361583D01*
X186339638Y-45361583D02*
X186292019Y-45313964D01*
X186292019Y-45313964D02*
X186196781Y-45266345D01*
X186196781Y-45266345D02*
X185958686Y-45266345D01*
X185958686Y-45266345D02*
X185863448Y-45313964D01*
X185863448Y-45313964D02*
X185815829Y-45361583D01*
X185815829Y-45361583D02*
X185768210Y-45456821D01*
X185768210Y-45456821D02*
X185768210Y-45694916D01*
X185768210Y-45694916D02*
X185815829Y-45790154D01*
X185815829Y-45790154D02*
X185863448Y-45837774D01*
X185863448Y-45837774D02*
X185958686Y-45885393D01*
X185958686Y-45885393D02*
X186196781Y-45885393D01*
X186196781Y-45885393D02*
X186292019Y-45837774D01*
X186292019Y-45837774D02*
X186339638Y-45790154D01*
X191258209Y-45885395D02*
X191258209Y-44885395D01*
X191258209Y-44885395D02*
X190877257Y-44885395D01*
X190877257Y-44885395D02*
X190782019Y-44933014D01*
X190782019Y-44933014D02*
X190734400Y-44980633D01*
X190734400Y-44980633D02*
X190686781Y-45075871D01*
X190686781Y-45075871D02*
X190686781Y-45218728D01*
X190686781Y-45218728D02*
X190734400Y-45313966D01*
X190734400Y-45313966D02*
X190782019Y-45361585D01*
X190782019Y-45361585D02*
X190877257Y-45409204D01*
X190877257Y-45409204D02*
X191258209Y-45409204D01*
X189734400Y-45885395D02*
X190305828Y-45885395D01*
X190020114Y-45885395D02*
X190020114Y-44885395D01*
X190020114Y-44885395D02*
X190115352Y-45028252D01*
X190115352Y-45028252D02*
X190210590Y-45123490D01*
X190210590Y-45123490D02*
X190305828Y-45171109D01*
X189162971Y-45313966D02*
X189258209Y-45266347D01*
X189258209Y-45266347D02*
X189305828Y-45218728D01*
X189305828Y-45218728D02*
X189353447Y-45123490D01*
X189353447Y-45123490D02*
X189353447Y-45075871D01*
X189353447Y-45075871D02*
X189305828Y-44980633D01*
X189305828Y-44980633D02*
X189258209Y-44933014D01*
X189258209Y-44933014D02*
X189162971Y-44885395D01*
X189162971Y-44885395D02*
X188972495Y-44885395D01*
X188972495Y-44885395D02*
X188877257Y-44933014D01*
X188877257Y-44933014D02*
X188829638Y-44980633D01*
X188829638Y-44980633D02*
X188782019Y-45075871D01*
X188782019Y-45075871D02*
X188782019Y-45123490D01*
X188782019Y-45123490D02*
X188829638Y-45218728D01*
X188829638Y-45218728D02*
X188877257Y-45266347D01*
X188877257Y-45266347D02*
X188972495Y-45313966D01*
X188972495Y-45313966D02*
X189162971Y-45313966D01*
X189162971Y-45313966D02*
X189258209Y-45361585D01*
X189258209Y-45361585D02*
X189305828Y-45409204D01*
X189305828Y-45409204D02*
X189353447Y-45504442D01*
X189353447Y-45504442D02*
X189353447Y-45694918D01*
X189353447Y-45694918D02*
X189305828Y-45790156D01*
X189305828Y-45790156D02*
X189258209Y-45837776D01*
X189258209Y-45837776D02*
X189162971Y-45885395D01*
X189162971Y-45885395D02*
X188972495Y-45885395D01*
X188972495Y-45885395D02*
X188877257Y-45837776D01*
X188877257Y-45837776D02*
X188829638Y-45790156D01*
X188829638Y-45790156D02*
X188782019Y-45694918D01*
X188782019Y-45694918D02*
X188782019Y-45504442D01*
X188782019Y-45504442D02*
X188829638Y-45409204D01*
X188829638Y-45409204D02*
X188877257Y-45361585D01*
X188877257Y-45361585D02*
X188972495Y-45313966D01*
X187292018Y-48425393D02*
X187292018Y-47425393D01*
X187292018Y-47425393D02*
X186911066Y-47425393D01*
X186911066Y-47425393D02*
X186815828Y-47473012D01*
X186815828Y-47473012D02*
X186768209Y-47520631D01*
X186768209Y-47520631D02*
X186720590Y-47615869D01*
X186720590Y-47615869D02*
X186720590Y-47758726D01*
X186720590Y-47758726D02*
X186768209Y-47853964D01*
X186768209Y-47853964D02*
X186815828Y-47901583D01*
X186815828Y-47901583D02*
X186911066Y-47949202D01*
X186911066Y-47949202D02*
X187292018Y-47949202D01*
X185863447Y-47425393D02*
X186053923Y-47425393D01*
X186053923Y-47425393D02*
X186149161Y-47473012D01*
X186149161Y-47473012D02*
X186196780Y-47520631D01*
X186196780Y-47520631D02*
X186292018Y-47663488D01*
X186292018Y-47663488D02*
X186339637Y-47853964D01*
X186339637Y-47853964D02*
X186339637Y-48234916D01*
X186339637Y-48234916D02*
X186292018Y-48330154D01*
X186292018Y-48330154D02*
X186244399Y-48377774D01*
X186244399Y-48377774D02*
X186149161Y-48425393D01*
X186149161Y-48425393D02*
X185958685Y-48425393D01*
X185958685Y-48425393D02*
X185863447Y-48377774D01*
X185863447Y-48377774D02*
X185815828Y-48330154D01*
X185815828Y-48330154D02*
X185768209Y-48234916D01*
X185768209Y-48234916D02*
X185768209Y-47996821D01*
X185768209Y-47996821D02*
X185815828Y-47901583D01*
X185815828Y-47901583D02*
X185863447Y-47853964D01*
X185863447Y-47853964D02*
X185958685Y-47806345D01*
X185958685Y-47806345D02*
X186149161Y-47806345D01*
X186149161Y-47806345D02*
X186244399Y-47853964D01*
X186244399Y-47853964D02*
X186292018Y-47901583D01*
X186292018Y-47901583D02*
X186339637Y-47996821D01*
X191258210Y-48425393D02*
X191258210Y-47425393D01*
X191258210Y-47425393D02*
X190877258Y-47425393D01*
X190877258Y-47425393D02*
X190782020Y-47473012D01*
X190782020Y-47473012D02*
X190734401Y-47520631D01*
X190734401Y-47520631D02*
X190686782Y-47615869D01*
X190686782Y-47615869D02*
X190686782Y-47758726D01*
X190686782Y-47758726D02*
X190734401Y-47853964D01*
X190734401Y-47853964D02*
X190782020Y-47901583D01*
X190782020Y-47901583D02*
X190877258Y-47949202D01*
X190877258Y-47949202D02*
X191258210Y-47949202D01*
X189734401Y-48425393D02*
X190305829Y-48425393D01*
X190020115Y-48425393D02*
X190020115Y-47425393D01*
X190020115Y-47425393D02*
X190115353Y-47568250D01*
X190115353Y-47568250D02*
X190210591Y-47663488D01*
X190210591Y-47663488D02*
X190305829Y-47711107D01*
X188829639Y-47425393D02*
X189305829Y-47425393D01*
X189305829Y-47425393D02*
X189353448Y-47901583D01*
X189353448Y-47901583D02*
X189305829Y-47853964D01*
X189305829Y-47853964D02*
X189210591Y-47806345D01*
X189210591Y-47806345D02*
X188972496Y-47806345D01*
X188972496Y-47806345D02*
X188877258Y-47853964D01*
X188877258Y-47853964D02*
X188829639Y-47901583D01*
X188829639Y-47901583D02*
X188782020Y-47996821D01*
X188782020Y-47996821D02*
X188782020Y-48234916D01*
X188782020Y-48234916D02*
X188829639Y-48330154D01*
X188829639Y-48330154D02*
X188877258Y-48377774D01*
X188877258Y-48377774D02*
X188972496Y-48425393D01*
X188972496Y-48425393D02*
X189210591Y-48425393D01*
X189210591Y-48425393D02*
X189305829Y-48377774D01*
X189305829Y-48377774D02*
X189353448Y-48330154D01*
X187292020Y-50965392D02*
X187292020Y-49965392D01*
X187292020Y-49965392D02*
X186911068Y-49965392D01*
X186911068Y-49965392D02*
X186815830Y-50013011D01*
X186815830Y-50013011D02*
X186768211Y-50060630D01*
X186768211Y-50060630D02*
X186720592Y-50155868D01*
X186720592Y-50155868D02*
X186720592Y-50298725D01*
X186720592Y-50298725D02*
X186768211Y-50393963D01*
X186768211Y-50393963D02*
X186815830Y-50441582D01*
X186815830Y-50441582D02*
X186911068Y-50489201D01*
X186911068Y-50489201D02*
X187292020Y-50489201D01*
X186387258Y-49965392D02*
X185720592Y-49965392D01*
X185720592Y-49965392D02*
X186149163Y-50965392D01*
X191258210Y-50965393D02*
X191258210Y-49965393D01*
X191258210Y-49965393D02*
X190877258Y-49965393D01*
X190877258Y-49965393D02*
X190782020Y-50013012D01*
X190782020Y-50013012D02*
X190734401Y-50060631D01*
X190734401Y-50060631D02*
X190686782Y-50155869D01*
X190686782Y-50155869D02*
X190686782Y-50298726D01*
X190686782Y-50298726D02*
X190734401Y-50393964D01*
X190734401Y-50393964D02*
X190782020Y-50441583D01*
X190782020Y-50441583D02*
X190877258Y-50489202D01*
X190877258Y-50489202D02*
X191258210Y-50489202D01*
X189734401Y-50965393D02*
X190305829Y-50965393D01*
X190020115Y-50965393D02*
X190020115Y-49965393D01*
X190020115Y-49965393D02*
X190115353Y-50108250D01*
X190115353Y-50108250D02*
X190210591Y-50203488D01*
X190210591Y-50203488D02*
X190305829Y-50251107D01*
X188877258Y-50298726D02*
X188877258Y-50965393D01*
X189115353Y-49917774D02*
X189353448Y-50632059D01*
X189353448Y-50632059D02*
X188734401Y-50632059D01*
X187292019Y-53505393D02*
X187292019Y-52505393D01*
X187292019Y-52505393D02*
X186911067Y-52505393D01*
X186911067Y-52505393D02*
X186815829Y-52553012D01*
X186815829Y-52553012D02*
X186768210Y-52600631D01*
X186768210Y-52600631D02*
X186720591Y-52695869D01*
X186720591Y-52695869D02*
X186720591Y-52838726D01*
X186720591Y-52838726D02*
X186768210Y-52933964D01*
X186768210Y-52933964D02*
X186815829Y-52981583D01*
X186815829Y-52981583D02*
X186911067Y-53029202D01*
X186911067Y-53029202D02*
X187292019Y-53029202D01*
X186149162Y-52933964D02*
X186244400Y-52886345D01*
X186244400Y-52886345D02*
X186292019Y-52838726D01*
X186292019Y-52838726D02*
X186339638Y-52743488D01*
X186339638Y-52743488D02*
X186339638Y-52695869D01*
X186339638Y-52695869D02*
X186292019Y-52600631D01*
X186292019Y-52600631D02*
X186244400Y-52553012D01*
X186244400Y-52553012D02*
X186149162Y-52505393D01*
X186149162Y-52505393D02*
X185958686Y-52505393D01*
X185958686Y-52505393D02*
X185863448Y-52553012D01*
X185863448Y-52553012D02*
X185815829Y-52600631D01*
X185815829Y-52600631D02*
X185768210Y-52695869D01*
X185768210Y-52695869D02*
X185768210Y-52743488D01*
X185768210Y-52743488D02*
X185815829Y-52838726D01*
X185815829Y-52838726D02*
X185863448Y-52886345D01*
X185863448Y-52886345D02*
X185958686Y-52933964D01*
X185958686Y-52933964D02*
X186149162Y-52933964D01*
X186149162Y-52933964D02*
X186244400Y-52981583D01*
X186244400Y-52981583D02*
X186292019Y-53029202D01*
X186292019Y-53029202D02*
X186339638Y-53124440D01*
X186339638Y-53124440D02*
X186339638Y-53314916D01*
X186339638Y-53314916D02*
X186292019Y-53410154D01*
X186292019Y-53410154D02*
X186244400Y-53457774D01*
X186244400Y-53457774D02*
X186149162Y-53505393D01*
X186149162Y-53505393D02*
X185958686Y-53505393D01*
X185958686Y-53505393D02*
X185863448Y-53457774D01*
X185863448Y-53457774D02*
X185815829Y-53410154D01*
X185815829Y-53410154D02*
X185768210Y-53314916D01*
X185768210Y-53314916D02*
X185768210Y-53124440D01*
X185768210Y-53124440D02*
X185815829Y-53029202D01*
X185815829Y-53029202D02*
X185863448Y-52981583D01*
X185863448Y-52981583D02*
X185958686Y-52933964D01*
X191258211Y-53505393D02*
X191258211Y-52505393D01*
X191258211Y-52505393D02*
X190877259Y-52505393D01*
X190877259Y-52505393D02*
X190782021Y-52553012D01*
X190782021Y-52553012D02*
X190734402Y-52600631D01*
X190734402Y-52600631D02*
X190686783Y-52695869D01*
X190686783Y-52695869D02*
X190686783Y-52838726D01*
X190686783Y-52838726D02*
X190734402Y-52933964D01*
X190734402Y-52933964D02*
X190782021Y-52981583D01*
X190782021Y-52981583D02*
X190877259Y-53029202D01*
X190877259Y-53029202D02*
X191258211Y-53029202D01*
X189734402Y-53505393D02*
X190305830Y-53505393D01*
X190020116Y-53505393D02*
X190020116Y-52505393D01*
X190020116Y-52505393D02*
X190115354Y-52648250D01*
X190115354Y-52648250D02*
X190210592Y-52743488D01*
X190210592Y-52743488D02*
X190305830Y-52791107D01*
X188877259Y-52505393D02*
X189067735Y-52505393D01*
X189067735Y-52505393D02*
X189162973Y-52553012D01*
X189162973Y-52553012D02*
X189210592Y-52600631D01*
X189210592Y-52600631D02*
X189305830Y-52743488D01*
X189305830Y-52743488D02*
X189353449Y-52933964D01*
X189353449Y-52933964D02*
X189353449Y-53314916D01*
X189353449Y-53314916D02*
X189305830Y-53410154D01*
X189305830Y-53410154D02*
X189258211Y-53457774D01*
X189258211Y-53457774D02*
X189162973Y-53505393D01*
X189162973Y-53505393D02*
X188972497Y-53505393D01*
X188972497Y-53505393D02*
X188877259Y-53457774D01*
X188877259Y-53457774D02*
X188829640Y-53410154D01*
X188829640Y-53410154D02*
X188782021Y-53314916D01*
X188782021Y-53314916D02*
X188782021Y-53076821D01*
X188782021Y-53076821D02*
X188829640Y-52981583D01*
X188829640Y-52981583D02*
X188877259Y-52933964D01*
X188877259Y-52933964D02*
X188972497Y-52886345D01*
X188972497Y-52886345D02*
X189162973Y-52886345D01*
X189162973Y-52886345D02*
X189258211Y-52933964D01*
X189258211Y-52933964D02*
X189305830Y-52981583D01*
X189305830Y-52981583D02*
X189353449Y-53076821D01*
X187292019Y-56045391D02*
X187292019Y-55045391D01*
X187292019Y-55045391D02*
X186911067Y-55045391D01*
X186911067Y-55045391D02*
X186815829Y-55093010D01*
X186815829Y-55093010D02*
X186768210Y-55140629D01*
X186768210Y-55140629D02*
X186720591Y-55235867D01*
X186720591Y-55235867D02*
X186720591Y-55378724D01*
X186720591Y-55378724D02*
X186768210Y-55473962D01*
X186768210Y-55473962D02*
X186815829Y-55521581D01*
X186815829Y-55521581D02*
X186911067Y-55569200D01*
X186911067Y-55569200D02*
X187292019Y-55569200D01*
X186244400Y-56045391D02*
X186053924Y-56045391D01*
X186053924Y-56045391D02*
X185958686Y-55997772D01*
X185958686Y-55997772D02*
X185911067Y-55950152D01*
X185911067Y-55950152D02*
X185815829Y-55807295D01*
X185815829Y-55807295D02*
X185768210Y-55616819D01*
X185768210Y-55616819D02*
X185768210Y-55235867D01*
X185768210Y-55235867D02*
X185815829Y-55140629D01*
X185815829Y-55140629D02*
X185863448Y-55093010D01*
X185863448Y-55093010D02*
X185958686Y-55045391D01*
X185958686Y-55045391D02*
X186149162Y-55045391D01*
X186149162Y-55045391D02*
X186244400Y-55093010D01*
X186244400Y-55093010D02*
X186292019Y-55140629D01*
X186292019Y-55140629D02*
X186339638Y-55235867D01*
X186339638Y-55235867D02*
X186339638Y-55473962D01*
X186339638Y-55473962D02*
X186292019Y-55569200D01*
X186292019Y-55569200D02*
X186244400Y-55616819D01*
X186244400Y-55616819D02*
X186149162Y-55664438D01*
X186149162Y-55664438D02*
X185958686Y-55664438D01*
X185958686Y-55664438D02*
X185863448Y-55616819D01*
X185863448Y-55616819D02*
X185815829Y-55569200D01*
X185815829Y-55569200D02*
X185768210Y-55473962D01*
X191258210Y-56045393D02*
X191258210Y-55045393D01*
X191258210Y-55045393D02*
X190877258Y-55045393D01*
X190877258Y-55045393D02*
X190782020Y-55093012D01*
X190782020Y-55093012D02*
X190734401Y-55140631D01*
X190734401Y-55140631D02*
X190686782Y-55235869D01*
X190686782Y-55235869D02*
X190686782Y-55378726D01*
X190686782Y-55378726D02*
X190734401Y-55473964D01*
X190734401Y-55473964D02*
X190782020Y-55521583D01*
X190782020Y-55521583D02*
X190877258Y-55569202D01*
X190877258Y-55569202D02*
X191258210Y-55569202D01*
X189734401Y-56045393D02*
X190305829Y-56045393D01*
X190020115Y-56045393D02*
X190020115Y-55045393D01*
X190020115Y-55045393D02*
X190115353Y-55188250D01*
X190115353Y-55188250D02*
X190210591Y-55283488D01*
X190210591Y-55283488D02*
X190305829Y-55331107D01*
X189115353Y-55045393D02*
X189020115Y-55045393D01*
X189020115Y-55045393D02*
X188924877Y-55093012D01*
X188924877Y-55093012D02*
X188877258Y-55140631D01*
X188877258Y-55140631D02*
X188829639Y-55235869D01*
X188829639Y-55235869D02*
X188782020Y-55426345D01*
X188782020Y-55426345D02*
X188782020Y-55664440D01*
X188782020Y-55664440D02*
X188829639Y-55854916D01*
X188829639Y-55854916D02*
X188877258Y-55950154D01*
X188877258Y-55950154D02*
X188924877Y-55997774D01*
X188924877Y-55997774D02*
X189020115Y-56045393D01*
X189020115Y-56045393D02*
X189115353Y-56045393D01*
X189115353Y-56045393D02*
X189210591Y-55997774D01*
X189210591Y-55997774D02*
X189258210Y-55950154D01*
X189258210Y-55950154D02*
X189305829Y-55854916D01*
X189305829Y-55854916D02*
X189353448Y-55664440D01*
X189353448Y-55664440D02*
X189353448Y-55426345D01*
X189353448Y-55426345D02*
X189305829Y-55235869D01*
X189305829Y-55235869D02*
X189258210Y-55140631D01*
X189258210Y-55140631D02*
X189210591Y-55093012D01*
X189210591Y-55093012D02*
X189115353Y-55045393D01*
X195332020Y-25560393D02*
X195808210Y-25560393D01*
X195808210Y-25560393D02*
X195808210Y-24560393D01*
X193951067Y-24560393D02*
X193951067Y-25274678D01*
X193951067Y-25274678D02*
X193998686Y-25417535D01*
X193998686Y-25417535D02*
X194093924Y-25512774D01*
X194093924Y-25512774D02*
X194236781Y-25560393D01*
X194236781Y-25560393D02*
X194332019Y-25560393D01*
X193046305Y-24893726D02*
X193046305Y-25560393D01*
X193474876Y-24893726D02*
X193474876Y-25417535D01*
X193474876Y-25417535D02*
X193427257Y-25512774D01*
X193427257Y-25512774D02*
X193332019Y-25560393D01*
X193332019Y-25560393D02*
X193189162Y-25560393D01*
X193189162Y-25560393D02*
X193093924Y-25512774D01*
X193093924Y-25512774D02*
X193046305Y-25465154D01*
X192570114Y-25560393D02*
X192570114Y-24893726D01*
X192570114Y-24988964D02*
X192522495Y-24941345D01*
X192522495Y-24941345D02*
X192427257Y-24893726D01*
X192427257Y-24893726D02*
X192284400Y-24893726D01*
X192284400Y-24893726D02*
X192189162Y-24941345D01*
X192189162Y-24941345D02*
X192141543Y-25036583D01*
X192141543Y-25036583D02*
X192141543Y-25560393D01*
X192141543Y-25036583D02*
X192093924Y-24941345D01*
X192093924Y-24941345D02*
X191998686Y-24893726D01*
X191998686Y-24893726D02*
X191855829Y-24893726D01*
X191855829Y-24893726D02*
X191760590Y-24941345D01*
X191760590Y-24941345D02*
X191712971Y-25036583D01*
X191712971Y-25036583D02*
X191712971Y-25560393D01*
X191236781Y-24893726D02*
X191236781Y-25893726D01*
X191236781Y-24941345D02*
X191141543Y-24893726D01*
X191141543Y-24893726D02*
X190951067Y-24893726D01*
X190951067Y-24893726D02*
X190855829Y-24941345D01*
X190855829Y-24941345D02*
X190808210Y-24988964D01*
X190808210Y-24988964D02*
X190760591Y-25084202D01*
X190760591Y-25084202D02*
X190760591Y-25369916D01*
X190760591Y-25369916D02*
X190808210Y-25465154D01*
X190808210Y-25465154D02*
X190855829Y-25512774D01*
X190855829Y-25512774D02*
X190951067Y-25560393D01*
X190951067Y-25560393D02*
X191141543Y-25560393D01*
X191141543Y-25560393D02*
X191236781Y-25512774D01*
X189951067Y-25512774D02*
X190046305Y-25560393D01*
X190046305Y-25560393D02*
X190236781Y-25560393D01*
X190236781Y-25560393D02*
X190332019Y-25512774D01*
X190332019Y-25512774D02*
X190379638Y-25417535D01*
X190379638Y-25417535D02*
X190379638Y-25036583D01*
X190379638Y-25036583D02*
X190332019Y-24941345D01*
X190332019Y-24941345D02*
X190236781Y-24893726D01*
X190236781Y-24893726D02*
X190046305Y-24893726D01*
X190046305Y-24893726D02*
X189951067Y-24941345D01*
X189951067Y-24941345D02*
X189903448Y-25036583D01*
X189903448Y-25036583D02*
X189903448Y-25131821D01*
X189903448Y-25131821D02*
X190379638Y-25227059D01*
X189474876Y-25560393D02*
X189474876Y-24893726D01*
X189474876Y-25084202D02*
X189427257Y-24988964D01*
X189427257Y-24988964D02*
X189379638Y-24941345D01*
X189379638Y-24941345D02*
X189284400Y-24893726D01*
X189284400Y-24893726D02*
X189189162Y-24893726D01*
X188903447Y-25512774D02*
X188808209Y-25560393D01*
X188808209Y-25560393D02*
X188617733Y-25560393D01*
X188617733Y-25560393D02*
X188522495Y-25512774D01*
X188522495Y-25512774D02*
X188474876Y-25417535D01*
X188474876Y-25417535D02*
X188474876Y-25369916D01*
X188474876Y-25369916D02*
X188522495Y-25274678D01*
X188522495Y-25274678D02*
X188617733Y-25227059D01*
X188617733Y-25227059D02*
X188760590Y-25227059D01*
X188760590Y-25227059D02*
X188855828Y-25179440D01*
X188855828Y-25179440D02*
X188903447Y-25084202D01*
X188903447Y-25084202D02*
X188903447Y-25036583D01*
X188903447Y-25036583D02*
X188855828Y-24941345D01*
X188855828Y-24941345D02*
X188760590Y-24893726D01*
X188760590Y-24893726D02*
X188617733Y-24893726D01*
X188617733Y-24893726D02*
X188522495Y-24941345D01*
X187998685Y-25512774D02*
X187998685Y-25560393D01*
X187998685Y-25560393D02*
X188046304Y-25655631D01*
X188046304Y-25655631D02*
X188093923Y-25703250D01*
X186808209Y-25560393D02*
X186808209Y-24560393D01*
X186808209Y-24560393D02*
X186474876Y-25274678D01*
X186474876Y-25274678D02*
X186141543Y-24560393D01*
X186141543Y-24560393D02*
X186141543Y-25560393D01*
X185093924Y-25465154D02*
X185141543Y-25512774D01*
X185141543Y-25512774D02*
X185284400Y-25560393D01*
X185284400Y-25560393D02*
X185379638Y-25560393D01*
X185379638Y-25560393D02*
X185522495Y-25512774D01*
X185522495Y-25512774D02*
X185617733Y-25417535D01*
X185617733Y-25417535D02*
X185665352Y-25322297D01*
X185665352Y-25322297D02*
X185712971Y-25131821D01*
X185712971Y-25131821D02*
X185712971Y-24988964D01*
X185712971Y-24988964D02*
X185665352Y-24798488D01*
X185665352Y-24798488D02*
X185617733Y-24703250D01*
X185617733Y-24703250D02*
X185522495Y-24608012D01*
X185522495Y-24608012D02*
X185379638Y-24560393D01*
X185379638Y-24560393D02*
X185284400Y-24560393D01*
X185284400Y-24560393D02*
X185141543Y-24608012D01*
X185141543Y-24608012D02*
X185093924Y-24655631D01*
X184665352Y-24560393D02*
X184665352Y-25369916D01*
X184665352Y-25369916D02*
X184617733Y-25465154D01*
X184617733Y-25465154D02*
X184570114Y-25512774D01*
X184570114Y-25512774D02*
X184474876Y-25560393D01*
X184474876Y-25560393D02*
X184284400Y-25560393D01*
X184284400Y-25560393D02*
X184189162Y-25512774D01*
X184189162Y-25512774D02*
X184141543Y-25465154D01*
X184141543Y-25465154D02*
X184093924Y-25369916D01*
X184093924Y-25369916D02*
X184093924Y-24560393D01*
X182855828Y-24560393D02*
X182855828Y-25369916D01*
X182855828Y-25369916D02*
X182808209Y-25465154D01*
X182808209Y-25465154D02*
X182760590Y-25512774D01*
X182760590Y-25512774D02*
X182665352Y-25560393D01*
X182665352Y-25560393D02*
X182474876Y-25560393D01*
X182474876Y-25560393D02*
X182379638Y-25512774D01*
X182379638Y-25512774D02*
X182332019Y-25465154D01*
X182332019Y-25465154D02*
X182284400Y-25369916D01*
X182284400Y-25369916D02*
X182284400Y-24560393D01*
X181808209Y-24893726D02*
X181808209Y-25893726D01*
X181808209Y-24941345D02*
X181712971Y-24893726D01*
X181712971Y-24893726D02*
X181522495Y-24893726D01*
X181522495Y-24893726D02*
X181427257Y-24941345D01*
X181427257Y-24941345D02*
X181379638Y-24988964D01*
X181379638Y-24988964D02*
X181332019Y-25084202D01*
X181332019Y-25084202D02*
X181332019Y-25369916D01*
X181332019Y-25369916D02*
X181379638Y-25465154D01*
X181379638Y-25465154D02*
X181427257Y-25512774D01*
X181427257Y-25512774D02*
X181522495Y-25560393D01*
X181522495Y-25560393D02*
X181712971Y-25560393D01*
X181712971Y-25560393D02*
X181808209Y-25512774D01*
X183747260Y-62886104D02*
X183785356Y-62924200D01*
X183785356Y-62924200D02*
X183899641Y-62962295D01*
X183899641Y-62962295D02*
X183975832Y-62962295D01*
X183975832Y-62962295D02*
X184090118Y-62924200D01*
X184090118Y-62924200D02*
X184166308Y-62848009D01*
X184166308Y-62848009D02*
X184204403Y-62771819D01*
X184204403Y-62771819D02*
X184242499Y-62619438D01*
X184242499Y-62619438D02*
X184242499Y-62505152D01*
X184242499Y-62505152D02*
X184204403Y-62352771D01*
X184204403Y-62352771D02*
X184166308Y-62276580D01*
X184166308Y-62276580D02*
X184090118Y-62200390D01*
X184090118Y-62200390D02*
X183975832Y-62162295D01*
X183975832Y-62162295D02*
X183899641Y-62162295D01*
X183899641Y-62162295D02*
X183785356Y-62200390D01*
X183785356Y-62200390D02*
X183747260Y-62238485D01*
X183442499Y-62924200D02*
X183328213Y-62962295D01*
X183328213Y-62962295D02*
X183137737Y-62962295D01*
X183137737Y-62962295D02*
X183061546Y-62924200D01*
X183061546Y-62924200D02*
X183023451Y-62886104D01*
X183023451Y-62886104D02*
X182985356Y-62809914D01*
X182985356Y-62809914D02*
X182985356Y-62733723D01*
X182985356Y-62733723D02*
X183023451Y-62657533D01*
X183023451Y-62657533D02*
X183061546Y-62619438D01*
X183061546Y-62619438D02*
X183137737Y-62581342D01*
X183137737Y-62581342D02*
X183290118Y-62543247D01*
X183290118Y-62543247D02*
X183366308Y-62505152D01*
X183366308Y-62505152D02*
X183404403Y-62467057D01*
X183404403Y-62467057D02*
X183442499Y-62390866D01*
X183442499Y-62390866D02*
X183442499Y-62314676D01*
X183442499Y-62314676D02*
X183404403Y-62238485D01*
X183404403Y-62238485D02*
X183366308Y-62200390D01*
X183366308Y-62200390D02*
X183290118Y-62162295D01*
X183290118Y-62162295D02*
X183099641Y-62162295D01*
X183099641Y-62162295D02*
X182985356Y-62200390D01*
X190077260Y-60755392D02*
X189743927Y-61755392D01*
X189743927Y-61755392D02*
X189410594Y-60755392D01*
X188505832Y-61660153D02*
X188553451Y-61707773D01*
X188553451Y-61707773D02*
X188696308Y-61755392D01*
X188696308Y-61755392D02*
X188791546Y-61755392D01*
X188791546Y-61755392D02*
X188934403Y-61707773D01*
X188934403Y-61707773D02*
X189029641Y-61612534D01*
X189029641Y-61612534D02*
X189077260Y-61517296D01*
X189077260Y-61517296D02*
X189124879Y-61326820D01*
X189124879Y-61326820D02*
X189124879Y-61183963D01*
X189124879Y-61183963D02*
X189077260Y-60993487D01*
X189077260Y-60993487D02*
X189029641Y-60898249D01*
X189029641Y-60898249D02*
X188934403Y-60803011D01*
X188934403Y-60803011D02*
X188791546Y-60755392D01*
X188791546Y-60755392D02*
X188696308Y-60755392D01*
X188696308Y-60755392D02*
X188553451Y-60803011D01*
X188553451Y-60803011D02*
X188505832Y-60850630D01*
X187505832Y-61660153D02*
X187553451Y-61707773D01*
X187553451Y-61707773D02*
X187696308Y-61755392D01*
X187696308Y-61755392D02*
X187791546Y-61755392D01*
X187791546Y-61755392D02*
X187934403Y-61707773D01*
X187934403Y-61707773D02*
X188029641Y-61612534D01*
X188029641Y-61612534D02*
X188077260Y-61517296D01*
X188077260Y-61517296D02*
X188124879Y-61326820D01*
X188124879Y-61326820D02*
X188124879Y-61183963D01*
X188124879Y-61183963D02*
X188077260Y-60993487D01*
X188077260Y-60993487D02*
X188029641Y-60898249D01*
X188029641Y-60898249D02*
X187934403Y-60803011D01*
X187934403Y-60803011D02*
X187791546Y-60755392D01*
X187791546Y-60755392D02*
X187696308Y-60755392D01*
X187696308Y-60755392D02*
X187553451Y-60803011D01*
X187553451Y-60803011D02*
X187505832Y-60850630D01*
X194366308Y-62962294D02*
X194366308Y-62162294D01*
X194366308Y-62162294D02*
X194175832Y-62162294D01*
X194175832Y-62162294D02*
X194061546Y-62200389D01*
X194061546Y-62200389D02*
X193985356Y-62276579D01*
X193985356Y-62276579D02*
X193947261Y-62352770D01*
X193947261Y-62352770D02*
X193909165Y-62505151D01*
X193909165Y-62505151D02*
X193909165Y-62619437D01*
X193909165Y-62619437D02*
X193947261Y-62771818D01*
X193947261Y-62771818D02*
X193985356Y-62848008D01*
X193985356Y-62848008D02*
X194061546Y-62924199D01*
X194061546Y-62924199D02*
X194175832Y-62962294D01*
X194175832Y-62962294D02*
X194366308Y-62962294D01*
X193604404Y-62733722D02*
X193223451Y-62733722D01*
X193680594Y-62962294D02*
X193413927Y-62162294D01*
X193413927Y-62162294D02*
X193147261Y-62962294D01*
X191390117Y-62886104D02*
X191428213Y-62924200D01*
X191428213Y-62924200D02*
X191542498Y-62962295D01*
X191542498Y-62962295D02*
X191618689Y-62962295D01*
X191618689Y-62962295D02*
X191732975Y-62924200D01*
X191732975Y-62924200D02*
X191809165Y-62848009D01*
X191809165Y-62848009D02*
X191847260Y-62771819D01*
X191847260Y-62771819D02*
X191885356Y-62619438D01*
X191885356Y-62619438D02*
X191885356Y-62505152D01*
X191885356Y-62505152D02*
X191847260Y-62352771D01*
X191847260Y-62352771D02*
X191809165Y-62276580D01*
X191809165Y-62276580D02*
X191732975Y-62200390D01*
X191732975Y-62200390D02*
X191618689Y-62162295D01*
X191618689Y-62162295D02*
X191542498Y-62162295D01*
X191542498Y-62162295D02*
X191428213Y-62200390D01*
X191428213Y-62200390D02*
X191390117Y-62238485D01*
X190666308Y-62962295D02*
X191047260Y-62962295D01*
X191047260Y-62962295D02*
X191047260Y-62162295D01*
X186823451Y-62200390D02*
X186899641Y-62162295D01*
X186899641Y-62162295D02*
X187013927Y-62162295D01*
X187013927Y-62162295D02*
X187128213Y-62200390D01*
X187128213Y-62200390D02*
X187204403Y-62276580D01*
X187204403Y-62276580D02*
X187242498Y-62352771D01*
X187242498Y-62352771D02*
X187280594Y-62505152D01*
X187280594Y-62505152D02*
X187280594Y-62619438D01*
X187280594Y-62619438D02*
X187242498Y-62771819D01*
X187242498Y-62771819D02*
X187204403Y-62848009D01*
X187204403Y-62848009D02*
X187128213Y-62924200D01*
X187128213Y-62924200D02*
X187013927Y-62962295D01*
X187013927Y-62962295D02*
X186937736Y-62962295D01*
X186937736Y-62962295D02*
X186823451Y-62924200D01*
X186823451Y-62924200D02*
X186785355Y-62886104D01*
X186785355Y-62886104D02*
X186785355Y-62619438D01*
X186785355Y-62619438D02*
X186937736Y-62619438D01*
X186442498Y-62962295D02*
X186442498Y-62162295D01*
X186442498Y-62162295D02*
X185985355Y-62962295D01*
X185985355Y-62962295D02*
X185985355Y-62162295D01*
X185604403Y-62962295D02*
X185604403Y-62162295D01*
X185604403Y-62162295D02*
X185413927Y-62162295D01*
X185413927Y-62162295D02*
X185299641Y-62200390D01*
X185299641Y-62200390D02*
X185223451Y-62276580D01*
X185223451Y-62276580D02*
X185185356Y-62352771D01*
X185185356Y-62352771D02*
X185147260Y-62505152D01*
X185147260Y-62505152D02*
X185147260Y-62619438D01*
X185147260Y-62619438D02*
X185185356Y-62771819D01*
X185185356Y-62771819D02*
X185223451Y-62848009D01*
X185223451Y-62848009D02*
X185299641Y-62924200D01*
X185299641Y-62924200D02*
X185413927Y-62962295D01*
X185413927Y-62962295D02*
X185604403Y-62962295D01*
X146158840Y-20088796D02*
X146136617Y-20277971D01*
X146136617Y-20277971D02*
X146172799Y-20378115D01*
X146172799Y-20378115D02*
X146256275Y-20483814D01*
X146256275Y-20483814D02*
X146439895Y-20553331D01*
X146439895Y-20553331D02*
X146770952Y-20592221D01*
X146770952Y-20592221D02*
X146965683Y-20567150D01*
X146965683Y-20567150D02*
X147071382Y-20483674D01*
X147071382Y-20483674D02*
X147129787Y-20394642D01*
X147129787Y-20394642D02*
X147152010Y-20205467D01*
X147152010Y-20205467D02*
X147115828Y-20105323D01*
X147115828Y-20105323D02*
X147032352Y-19999624D01*
X147032352Y-19999624D02*
X146848732Y-19930107D01*
X146848732Y-19930107D02*
X146517675Y-19891217D01*
X146517675Y-19891217D02*
X146322944Y-19916288D01*
X146322944Y-19916288D02*
X146217245Y-19999764D01*
X146217245Y-19999764D02*
X146158840Y-20088796D01*
X147052007Y-21056756D02*
X146058836Y-20940085D01*
X146058836Y-20940085D02*
X146985338Y-21624282D01*
X146985338Y-21624282D02*
X145992167Y-21507611D01*
X156129436Y-20924447D02*
X156107213Y-21113623D01*
X156107213Y-21113623D02*
X156143395Y-21213766D01*
X156143395Y-21213766D02*
X156226871Y-21319465D01*
X156226871Y-21319465D02*
X156410491Y-21388982D01*
X156410491Y-21388982D02*
X156741548Y-21427872D01*
X156741548Y-21427872D02*
X156936279Y-21402802D01*
X156936279Y-21402802D02*
X157041978Y-21319325D01*
X157041978Y-21319325D02*
X157100383Y-21230294D01*
X157100383Y-21230294D02*
X157122606Y-21041118D01*
X157122606Y-21041118D02*
X157086424Y-20940975D01*
X157086424Y-20940975D02*
X157002948Y-20835276D01*
X157002948Y-20835276D02*
X156819328Y-20765759D01*
X156819328Y-20765759D02*
X156488271Y-20726868D01*
X156488271Y-20726868D02*
X156293540Y-20751939D01*
X156293540Y-20751939D02*
X156187841Y-20835415D01*
X156187841Y-20835415D02*
X156129436Y-20924447D01*
X156463480Y-22162351D02*
X156502371Y-21831294D01*
X157022603Y-21892407D02*
X156029432Y-21775736D01*
X156029432Y-21775736D02*
X155973875Y-22248675D01*
X156363477Y-23013640D02*
X156402367Y-22682583D01*
X156922599Y-22743696D02*
X155929429Y-22627026D01*
X155929429Y-22627026D02*
X155873871Y-23099964D01*
D11*
%TO.C,D1*%
X97843927Y-101850575D02*
X98343927Y-101850575D01*
X97843927Y-102250575D02*
X97243927Y-101850575D01*
X97843927Y-101450575D02*
X97843927Y-102250575D01*
X97243927Y-101850575D02*
X97843927Y-101450575D01*
X97243927Y-101850575D02*
X97243927Y-102400576D01*
X97243927Y-101850575D02*
X97243927Y-101300573D01*
X96843927Y-101850575D02*
X97243927Y-101850575D01*
%TO.C,D2*%
X97843929Y-84850577D02*
X98343929Y-84850577D01*
X97843929Y-85250577D02*
X97243929Y-84850577D01*
X97843929Y-84450577D02*
X97843929Y-85250577D01*
X97243929Y-84850577D02*
X97843929Y-84450577D01*
X97243929Y-84850577D02*
X97243929Y-85400578D01*
X97243929Y-84850577D02*
X97243929Y-84300575D01*
X96843929Y-84850577D02*
X97243929Y-84850577D01*
%TO.C,D3*%
X97843928Y-67850575D02*
X98343928Y-67850575D01*
X97843928Y-68250575D02*
X97243928Y-67850575D01*
X97843928Y-67450575D02*
X97843928Y-68250575D01*
X97243928Y-67850575D02*
X97843928Y-67450575D01*
X97243928Y-67850575D02*
X97243928Y-68400576D01*
X97243928Y-67850575D02*
X97243928Y-67300573D01*
X96843928Y-67850575D02*
X97243928Y-67850575D01*
%TO.C,D4*%
X97843927Y-50850577D02*
X98343927Y-50850577D01*
X97843927Y-51250577D02*
X97243927Y-50850577D01*
X97843927Y-50450577D02*
X97843927Y-51250577D01*
X97243927Y-50850577D02*
X97843927Y-50450577D01*
X97243927Y-50850577D02*
X97243927Y-51400578D01*
X97243927Y-50850577D02*
X97243927Y-50300575D01*
X96843927Y-50850577D02*
X97243927Y-50850577D01*
%TO.C,D5*%
X115843926Y-89350575D02*
X116343926Y-89350575D01*
X115843926Y-89750575D02*
X115243926Y-89350575D01*
X115843926Y-88950575D02*
X115843926Y-89750575D01*
X115243926Y-89350575D02*
X115843926Y-88950575D01*
X115243926Y-89350575D02*
X115243926Y-89900576D01*
X115243926Y-89350575D02*
X115243926Y-88800573D01*
X114843926Y-89350575D02*
X115243926Y-89350575D01*
%TO.C,D6*%
X115843928Y-72350575D02*
X116343928Y-72350575D01*
X115843928Y-72750575D02*
X115243928Y-72350575D01*
X115843928Y-71950575D02*
X115843928Y-72750575D01*
X115243928Y-72350575D02*
X115843928Y-71950575D01*
X115243928Y-72350575D02*
X115243928Y-72900576D01*
X115243928Y-72350575D02*
X115243928Y-71800573D01*
X114843928Y-72350575D02*
X115243928Y-72350575D01*
%TO.C,D7*%
X115843928Y-55350574D02*
X116343928Y-55350574D01*
X115843928Y-55750574D02*
X115243928Y-55350574D01*
X115843928Y-54950574D02*
X115843928Y-55750574D01*
X115243928Y-55350574D02*
X115843928Y-54950574D01*
X115243928Y-55350574D02*
X115243928Y-55900575D01*
X115243928Y-55350574D02*
X115243928Y-54800572D01*
X114843928Y-55350574D02*
X115243928Y-55350574D01*
%TO.C,D8*%
X115843927Y-38350575D02*
X116343927Y-38350575D01*
X115843927Y-38750575D02*
X115243927Y-38350575D01*
X115843927Y-37950575D02*
X115843927Y-38750575D01*
X115243927Y-38350575D02*
X115843927Y-37950575D01*
X115243927Y-38350575D02*
X115243927Y-38900576D01*
X115243927Y-38350575D02*
X115243927Y-37800573D01*
X114843927Y-38350575D02*
X115243927Y-38350575D01*
%TO.C,D9*%
X133843927Y-84350573D02*
X134343927Y-84350573D01*
X133843927Y-84750573D02*
X133243927Y-84350573D01*
X133843927Y-83950573D02*
X133843927Y-84750573D01*
X133243927Y-84350573D02*
X133843927Y-83950573D01*
X133243927Y-84350573D02*
X133243927Y-84900574D01*
X133243927Y-84350573D02*
X133243927Y-83800571D01*
X132843927Y-84350573D02*
X133243927Y-84350573D01*
%TO.C,D10*%
X133843925Y-67350576D02*
X134343925Y-67350576D01*
X133843925Y-67750576D02*
X133243925Y-67350576D01*
X133843925Y-66950576D02*
X133843925Y-67750576D01*
X133243925Y-67350576D02*
X133843925Y-66950576D01*
X133243925Y-67350576D02*
X133243925Y-67900577D01*
X133243925Y-67350576D02*
X133243925Y-66800574D01*
X132843925Y-67350576D02*
X133243925Y-67350576D01*
%TO.C,D11*%
X133843928Y-50350576D02*
X134343928Y-50350576D01*
X133843928Y-50750576D02*
X133243928Y-50350576D01*
X133843928Y-49950576D02*
X133843928Y-50750576D01*
X133243928Y-50350576D02*
X133843928Y-49950576D01*
X133243928Y-50350576D02*
X133243928Y-50900577D01*
X133243928Y-50350576D02*
X133243928Y-49800574D01*
X132843928Y-50350576D02*
X133243928Y-50350576D01*
%TO.C,D12*%
X133843928Y-33350575D02*
X134343928Y-33350575D01*
X133843928Y-33750575D02*
X133243928Y-33350575D01*
X133843928Y-32950575D02*
X133843928Y-33750575D01*
X133243928Y-33350575D02*
X133843928Y-32950575D01*
X133243928Y-33350575D02*
X133243928Y-33900576D01*
X133243928Y-33350575D02*
X133243928Y-32800573D01*
X132843928Y-33350575D02*
X133243928Y-33350575D01*
%TO.C,D13*%
X151843927Y-89350576D02*
X152343927Y-89350576D01*
X151843927Y-89750576D02*
X151243927Y-89350576D01*
X151843927Y-88950576D02*
X151843927Y-89750576D01*
X151243927Y-89350576D02*
X151843927Y-88950576D01*
X151243927Y-89350576D02*
X151243927Y-89900577D01*
X151243927Y-89350576D02*
X151243927Y-88800574D01*
X150843927Y-89350576D02*
X151243927Y-89350576D01*
%TO.C,D14*%
X151843927Y-72350574D02*
X152343927Y-72350574D01*
X151843927Y-72750574D02*
X151243927Y-72350574D01*
X151843927Y-71950574D02*
X151843927Y-72750574D01*
X151243927Y-72350574D02*
X151843927Y-71950574D01*
X151243927Y-72350574D02*
X151243927Y-72900575D01*
X151243927Y-72350574D02*
X151243927Y-71800572D01*
X150843927Y-72350574D02*
X151243927Y-72350574D01*
%TO.C,D15*%
X151843928Y-55350576D02*
X152343928Y-55350576D01*
X151843928Y-55750576D02*
X151243928Y-55350576D01*
X151843928Y-54950576D02*
X151843928Y-55750576D01*
X151243928Y-55350576D02*
X151843928Y-54950576D01*
X151243928Y-55350576D02*
X151243928Y-55900577D01*
X151243928Y-55350576D02*
X151243928Y-54800574D01*
X150843928Y-55350576D02*
X151243928Y-55350576D01*
%TO.C,D16*%
X151843930Y-38350576D02*
X152343930Y-38350576D01*
X151843930Y-38750576D02*
X151243930Y-38350576D01*
X151843930Y-37950576D02*
X151843930Y-38750576D01*
X151243930Y-38350576D02*
X151843930Y-37950576D01*
X151243930Y-38350576D02*
X151243930Y-38900577D01*
X151243930Y-38350576D02*
X151243930Y-37800574D01*
X150843930Y-38350576D02*
X151243930Y-38350576D01*
%TO.C,D17*%
X169843927Y-92350575D02*
X170343927Y-92350575D01*
X169843927Y-92750575D02*
X169243927Y-92350575D01*
X169843927Y-91950575D02*
X169843927Y-92750575D01*
X169243927Y-92350575D02*
X169843927Y-91950575D01*
X169243927Y-92350575D02*
X169243927Y-92900576D01*
X169243927Y-92350575D02*
X169243927Y-91800573D01*
X168843927Y-92350575D02*
X169243927Y-92350575D01*
%TO.C,D18*%
X169843928Y-75350574D02*
X170343928Y-75350574D01*
X169843928Y-75750574D02*
X169243928Y-75350574D01*
X169843928Y-74950574D02*
X169843928Y-75750574D01*
X169243928Y-75350574D02*
X169843928Y-74950574D01*
X169243928Y-75350574D02*
X169243928Y-75900575D01*
X169243928Y-75350574D02*
X169243928Y-74800572D01*
X168843928Y-75350574D02*
X169243928Y-75350574D01*
%TO.C,D19*%
X169843926Y-58350575D02*
X170343926Y-58350575D01*
X169843926Y-58750575D02*
X169243926Y-58350575D01*
X169843926Y-57950575D02*
X169843926Y-58750575D01*
X169243926Y-58350575D02*
X169843926Y-57950575D01*
X169243926Y-58350575D02*
X169243926Y-58900576D01*
X169243926Y-58350575D02*
X169243926Y-57800573D01*
X168843926Y-58350575D02*
X169243926Y-58350575D01*
%TO.C,D20*%
X169843927Y-41350575D02*
X170343927Y-41350575D01*
X169843927Y-41750575D02*
X169243927Y-41350575D01*
X169843927Y-40950575D02*
X169843927Y-41750575D01*
X169243927Y-41350575D02*
X169843927Y-40950575D01*
X169243927Y-41350575D02*
X169243927Y-41900576D01*
X169243927Y-41350575D02*
X169243927Y-40800573D01*
X168843927Y-41350575D02*
X169243927Y-41350575D01*
%TO.C,D21*%
X188843929Y-92350575D02*
X189343929Y-92350575D01*
X188843929Y-92750575D02*
X188243929Y-92350575D01*
X188843929Y-91950575D02*
X188843929Y-92750575D01*
X188243929Y-92350575D02*
X188843929Y-91950575D01*
X188243929Y-92350575D02*
X188243929Y-92900576D01*
X188243929Y-92350575D02*
X188243929Y-91800573D01*
X187843929Y-92350575D02*
X188243929Y-92350575D01*
%TO.C,D22*%
X188843927Y-75350574D02*
X189343927Y-75350574D01*
X188843927Y-75750574D02*
X188243927Y-75350574D01*
X188843927Y-74950574D02*
X188843927Y-75750574D01*
X188243927Y-75350574D02*
X188843927Y-74950574D01*
X188243927Y-75350574D02*
X188243927Y-75900575D01*
X188243927Y-75350574D02*
X188243927Y-74800572D01*
X187843927Y-75350574D02*
X188243927Y-75350574D01*
%TO.C,D23*%
X151843927Y-109350575D02*
X152343927Y-109350575D01*
X151843927Y-109750575D02*
X151243927Y-109350575D01*
X151843927Y-108950575D02*
X151843927Y-109750575D01*
X151243927Y-109350575D02*
X151843927Y-108950575D01*
X151243927Y-109350575D02*
X151243927Y-109900576D01*
X151243927Y-109350575D02*
X151243927Y-108800573D01*
X150843927Y-109350575D02*
X151243927Y-109350575D01*
%TO.C,D24*%
X169843929Y-109350575D02*
X170343929Y-109350575D01*
X169843929Y-109750575D02*
X169243929Y-109350575D01*
X169843929Y-108950575D02*
X169843929Y-109750575D01*
X169243929Y-109350575D02*
X169843929Y-108950575D01*
X169243929Y-109350575D02*
X169243929Y-109900576D01*
X169243929Y-109350575D02*
X169243929Y-108800573D01*
X168843929Y-109350575D02*
X169243929Y-109350575D01*
%TO.C,D25*%
X188921452Y-111953218D02*
X189404415Y-112082627D01*
X188817925Y-112339588D02*
X188341897Y-111797926D01*
X189024980Y-111566847D02*
X188817925Y-112339588D01*
X188341897Y-111797926D02*
X189024980Y-111566847D01*
X188341897Y-111797926D02*
X188199546Y-112329187D01*
X188341897Y-111797926D02*
X188484248Y-111266665D01*
X187955527Y-111694399D02*
X188341897Y-111797926D01*
%TO.C,D26*%
X206393252Y-119062521D02*
X206826265Y-119312521D01*
X206193252Y-119408931D02*
X205873638Y-118762521D01*
X206593252Y-118716111D02*
X206193252Y-119408931D01*
X205873638Y-118762521D02*
X206593252Y-118716111D01*
X205873638Y-118762521D02*
X205598636Y-119238836D01*
X205873638Y-118762521D02*
X206148637Y-118286207D01*
X205527227Y-118562521D02*
X205873638Y-118762521D01*
D12*
%TO.C,MCU1*%
X182303925Y-26320573D02*
X179643925Y-26320574D01*
X182303925Y-26320573D02*
X182303925Y-56920574D01*
X182303925Y-56920574D02*
X179643925Y-56920574D01*
X179643925Y-26320574D02*
X179643925Y-56920574D01*
X197543925Y-26320574D02*
X194883925Y-26320573D01*
X197543925Y-26320574D02*
X197543927Y-56920574D01*
X197543927Y-56920574D02*
X194883924Y-56920574D01*
X194883925Y-26320573D02*
X194883924Y-56920574D01*
X197543925Y-28920574D02*
X194883925Y-28920574D01*
%TO.C,DISP1*%
X195003928Y-57720573D02*
X195003928Y-60380573D01*
X195003928Y-57720573D02*
X182183928Y-57720573D01*
X195003928Y-60380573D02*
X182183928Y-60380573D01*
X182183928Y-57720573D02*
X182183928Y-60380573D01*
D11*
%TO.C,RST1*%
X163434983Y-21586644D02*
X163464152Y-21338351D01*
X163084972Y-24566156D02*
X163055804Y-24814448D01*
X163712444Y-21367519D02*
X163464152Y-21338351D01*
X163304097Y-24843616D02*
X163055804Y-24814448D01*
X167883761Y-21857536D02*
X168132054Y-21886704D01*
X167475414Y-25333633D02*
X167723706Y-25362801D01*
X168102886Y-22134996D02*
X168132054Y-21886704D01*
X167752875Y-25114508D02*
X167723706Y-25362801D01*
D12*
%TO.C,PWR1*%
X152818110Y-22929184D02*
X153016743Y-22952518D01*
X155068783Y-21340925D02*
X154976613Y-22125530D01*
X148123736Y-21320502D02*
X148215908Y-20535897D01*
X149838597Y-22579172D02*
X151526987Y-22777512D01*
X148929645Y-19602797D02*
X154590718Y-20267820D01*
D11*
%TO.C,JST1*%
X129193928Y-109850577D02*
X129193929Y-108850576D01*
X129193930Y-106850577D02*
X129193929Y-107850576D01*
X129693929Y-107350576D02*
X128693930Y-107350576D01*
D12*
X138053929Y-106290576D02*
X138053929Y-105290576D01*
X138053929Y-105290576D02*
X137053929Y-105290576D01*
X138053929Y-110490574D02*
X138053929Y-111410576D01*
X138053929Y-111410576D02*
X137053927Y-111410575D01*
X130233928Y-106210576D02*
X130233929Y-105290576D01*
X130233929Y-105290576D02*
X131233930Y-105290576D01*
X130233930Y-110490576D02*
X130233929Y-111410576D01*
X130233929Y-111410576D02*
X131233929Y-111410576D01*
%TD*%
M02*
