%TF.GenerationSoftware,KiCad,Pcbnew,8.0.5-dirty*%
%TF.CreationDate,2024-10-12T09:21:05-05:00*%
%TF.ProjectId,sweeppp,73776565-7070-4702-9e6b-696361645f70,v1.0.0*%
%TF.SameCoordinates,Original*%
%TF.FileFunction,Copper,L1,Top*%
%TF.FilePolarity,Positive*%
%FSLAX46Y46*%
G04 Gerber Fmt 4.6, Leading zero omitted, Abs format (unit mm)*
G04 Created by KiCad (PCBNEW 8.0.5-dirty) date 2024-10-12 09:21:05*
%MOMM*%
%LPD*%
G01*
G04 APERTURE LIST*
G04 Aperture macros list*
%AMRotRect*
0 Rectangle, with rotation*
0 The origin of the aperture is its center*
0 $1 length*
0 $2 width*
0 $3 Rotation angle, in degrees counterclockwise*
0 Add horizontal line*
21,1,$1,$2,0,0,$3*%
%AMFreePoly0*
4,1,6,0.250000,0.000000,-0.250000,-0.625000,-0.500000,-0.625000,-0.500000,0.625000,-0.250000,0.625000,0.250000,0.000000,0.250000,0.000000,$1*%
%AMFreePoly1*
4,1,6,0.500000,-0.625000,-0.650000,-0.625000,-0.150000,0.000000,-0.650000,0.625000,0.500000,0.625000,0.500000,-0.625000,0.500000,-0.625000,$1*%
%AMFreePoly2*
4,1,6,0.600000,-1.000000,0.000000,-0.400000,-0.600000,-1.000000,-0.600000,0.250000,0.600000,0.250000,0.600000,-1.000000,0.600000,-1.000000,$1*%
%AMFreePoly3*
4,1,6,0.600000,-0.200000,0.600000,-0.400000,-0.600000,-0.400000,-0.600000,-0.200000,0.000000,0.400000,0.600000,-0.200000,0.600000,-0.200000,$1*%
G04 Aperture macros list end*
%TA.AperFunction,SMDPad,CuDef*%
%ADD10R,2.600000X2.600000*%
%TD*%
%TA.AperFunction,ComponentPad*%
%ADD11C,0.700000*%
%TD*%
%TA.AperFunction,ComponentPad*%
%ADD12C,4.400000*%
%TD*%
%TA.AperFunction,ComponentPad*%
%ADD13R,1.778000X1.778000*%
%TD*%
%TA.AperFunction,SMDPad,CuDef*%
%ADD14R,0.900000X1.200000*%
%TD*%
%TA.AperFunction,ComponentPad*%
%ADD15C,1.905000*%
%TD*%
%TA.AperFunction,ComponentPad*%
%ADD16RotRect,1.778000X1.778000X345.000000*%
%TD*%
%TA.AperFunction,SMDPad,CuDef*%
%ADD17RotRect,0.900000X1.200000X345.000000*%
%TD*%
%TA.AperFunction,ComponentPad*%
%ADD18RotRect,1.778000X1.778000X330.000000*%
%TD*%
%TA.AperFunction,SMDPad,CuDef*%
%ADD19RotRect,0.900000X1.200000X330.000000*%
%TD*%
%TA.AperFunction,SMDPad,CuDef*%
%ADD20FreePoly0,180.000000*%
%TD*%
%TA.AperFunction,ComponentPad*%
%ADD21C,1.700000*%
%TD*%
%TA.AperFunction,SMDPad,CuDef*%
%ADD22FreePoly0,0.000000*%
%TD*%
%TA.AperFunction,ComponentPad*%
%ADD23C,0.800000*%
%TD*%
%TA.AperFunction,SMDPad,CuDef*%
%ADD24FreePoly1,180.000000*%
%TD*%
%TA.AperFunction,SMDPad,CuDef*%
%ADD25FreePoly1,0.000000*%
%TD*%
%TA.AperFunction,SMDPad,CuDef*%
%ADD26RotRect,2.600000X2.600000X345.000000*%
%TD*%
%TA.AperFunction,ComponentPad*%
%ADD27O,1.700000X1.700000*%
%TD*%
%TA.AperFunction,SMDPad,CuDef*%
%ADD28R,1.200000X0.600000*%
%TD*%
%TA.AperFunction,SMDPad,CuDef*%
%ADD29RotRect,2.600000X2.600000X330.000000*%
%TD*%
%TA.AperFunction,SMDPad,CuDef*%
%ADD30FreePoly2,90.000000*%
%TD*%
%TA.AperFunction,ComponentPad*%
%ADD31O,1.750000X1.200000*%
%TD*%
%TA.AperFunction,SMDPad,CuDef*%
%ADD32FreePoly3,90.000000*%
%TD*%
%TA.AperFunction,SMDPad,CuDef*%
%ADD33RotRect,1.550000X1.000000X173.300000*%
%TD*%
%TA.AperFunction,SMDPad,CuDef*%
%ADD34RotRect,1.000000X0.800000X173.300000*%
%TD*%
%TA.AperFunction,SMDPad,CuDef*%
%ADD35RotRect,0.700000X1.500000X173.300000*%
%TD*%
%TA.AperFunction,ViaPad*%
%ADD36C,0.800000*%
%TD*%
%TA.AperFunction,Conductor*%
%ADD37C,0.250000*%
%TD*%
G04 APERTURE END LIST*
D10*
%TO.P,S1,1*%
%TO.N,P20*%
X100868928Y-90900575D03*
%TO.P,S1,2*%
%TO.N,pinky_bottom*%
X89318928Y-93100575D03*
%TD*%
%TO.P,S23,1*%
%TO.N,P18*%
X154868928Y-98400576D03*
%TO.P,S23,2*%
%TO.N,outer2_cluster*%
X143318928Y-100600576D03*
%TD*%
%TO.P,S6,1*%
%TO.N,P19*%
X118868928Y-61400574D03*
%TO.P,S6,2*%
%TO.N,ring_home*%
X107318928Y-63600574D03*
%TD*%
D11*
%TO.P,_2,1*%
%TO.N,N/C*%
X107943928Y-105850575D03*
X108427202Y-104683850D03*
X108427202Y-107017302D03*
X109593927Y-107500576D03*
D12*
X109593928Y-105850576D03*
D11*
X109593929Y-104200576D03*
X110760654Y-104683850D03*
X110760654Y-107017302D03*
X111243928Y-105850577D03*
%TD*%
D13*
%TO.P,D18,1*%
%TO.N,P8*%
X165783928Y-75350575D03*
D14*
X167943928Y-75350573D03*
%TO.P,D18,2*%
%TO.N,inner_home*%
X171243928Y-75350575D03*
D15*
X173403928Y-75350573D03*
%TD*%
D10*
%TO.P,S18,1*%
%TO.N,P10*%
X172868926Y-64400576D03*
%TO.P,S18,2*%
%TO.N,inner_home*%
X161318926Y-66600576D03*
%TD*%
%TO.P,S15,1*%
%TO.N,P15*%
X154868927Y-44400575D03*
%TO.P,S15,2*%
%TO.N,index_top*%
X143318927Y-46600575D03*
%TD*%
D16*
%TO.P,D25,1*%
%TO.N,P6*%
X184999793Y-110902410D03*
D17*
X187086193Y-111461463D03*
%TO.P,D25,2*%
%TO.N,home_cluster*%
X190273749Y-112315563D03*
D15*
X192360149Y-112874616D03*
%TD*%
D13*
%TO.P,D17,1*%
%TO.N,P7*%
X165783927Y-92350576D03*
D14*
X167943927Y-92350574D03*
%TO.P,D17,2*%
%TO.N,inner_bottom*%
X171243927Y-92350576D03*
D15*
X173403927Y-92350574D03*
%TD*%
D10*
%TO.P,S14,1*%
%TO.N,P15*%
X154868927Y-61400576D03*
%TO.P,S14,2*%
%TO.N,index_home*%
X143318927Y-63600576D03*
%TD*%
D18*
%TO.P,D26,1*%
%TO.N,P6*%
X202877189Y-117032520D03*
D19*
X204747803Y-118112521D03*
%TO.P,D26,2*%
%TO.N,inner_cluster*%
X207605689Y-119762521D03*
D15*
X209476303Y-120842522D03*
%TD*%
D13*
%TO.P,D21,1*%
%TO.N,P7*%
X184783929Y-92350576D03*
D14*
X186943929Y-92350574D03*
%TO.P,D21,2*%
%TO.N,inner2_bottom*%
X190243929Y-92350576D03*
D15*
X192403929Y-92350574D03*
%TD*%
D10*
%TO.P,S7,1*%
%TO.N,P19*%
X118868927Y-44400574D03*
%TO.P,S7,2*%
%TO.N,ring_top*%
X107318927Y-46600574D03*
%TD*%
D13*
%TO.P,D8,1*%
%TO.N,P21*%
X111783927Y-38350576D03*
D14*
X113943927Y-38350574D03*
%TO.P,D8,2*%
%TO.N,ring_num*%
X117243927Y-38350576D03*
D15*
X119403927Y-38350574D03*
%TD*%
D10*
%TO.P,S13,1*%
%TO.N,P15*%
X154868927Y-78400576D03*
%TO.P,S13,2*%
%TO.N,index_bottom*%
X143318927Y-80600576D03*
%TD*%
D13*
%TO.P,D11,1*%
%TO.N,P16*%
X129783928Y-50350577D03*
D14*
X131943928Y-50350575D03*
%TO.P,D11,2*%
%TO.N,middle_top*%
X135243928Y-50350577D03*
D15*
X137403928Y-50350575D03*
%TD*%
D20*
%TO.P,MCU1,1*%
%TO.N,MCU1_1*%
X194093925Y-27650574D03*
D21*
X196213925Y-27650574D03*
D20*
%TO.P,MCU1,2*%
%TO.N,MCU1_2*%
X194093925Y-30190574D03*
D21*
X196213925Y-30190573D03*
D20*
%TO.P,MCU1,3*%
%TO.N,MCU1_3*%
X194093925Y-32730574D03*
D21*
X196213925Y-32730574D03*
D20*
%TO.P,MCU1,4*%
%TO.N,MCU1_4*%
X194093925Y-35270574D03*
D21*
X196213925Y-35270574D03*
D20*
%TO.P,MCU1,5*%
%TO.N,MCU1_5*%
X194093925Y-37810574D03*
D21*
X196213925Y-37810575D03*
D20*
%TO.P,MCU1,6*%
%TO.N,MCU1_6*%
X194093925Y-40350574D03*
D21*
X196213925Y-40350574D03*
D20*
%TO.P,MCU1,7*%
%TO.N,MCU1_7*%
X194093925Y-42890574D03*
D21*
X196213925Y-42890573D03*
D20*
%TO.P,MCU1,8*%
%TO.N,MCU1_8*%
X194093925Y-45430574D03*
D21*
X196213925Y-45430574D03*
D20*
%TO.P,MCU1,9*%
%TO.N,MCU1_9*%
X194093925Y-47970575D03*
D21*
X196213925Y-47970574D03*
D20*
%TO.P,MCU1,10*%
%TO.N,MCU1_10*%
X194093925Y-50510574D03*
D21*
X196213925Y-50510575D03*
D20*
%TO.P,MCU1,11*%
%TO.N,MCU1_11*%
X194093925Y-53050574D03*
D21*
X196213925Y-53050574D03*
D20*
%TO.P,MCU1,12*%
%TO.N,MCU1_12*%
X194093925Y-55590574D03*
D21*
X196213926Y-55590573D03*
%TO.P,MCU1,13*%
%TO.N,MCU1_13*%
X180973924Y-55590574D03*
D22*
X183093925Y-55590574D03*
D21*
%TO.P,MCU1,14*%
%TO.N,MCU1_14*%
X180973925Y-53050574D03*
D22*
X183093925Y-53050574D03*
D21*
%TO.P,MCU1,15*%
%TO.N,MCU1_15*%
X180973925Y-50510575D03*
D22*
X183093925Y-50510574D03*
D21*
%TO.P,MCU1,16*%
%TO.N,MCU1_16*%
X180973925Y-47970574D03*
D22*
X183093925Y-47970574D03*
D21*
%TO.P,MCU1,17*%
%TO.N,MCU1_17*%
X180973925Y-45430574D03*
D22*
X183093925Y-45430574D03*
D21*
%TO.P,MCU1,18*%
%TO.N,MCU1_18*%
X180973925Y-42890573D03*
D22*
X183093925Y-42890574D03*
D21*
%TO.P,MCU1,19*%
%TO.N,MCU1_19*%
X180973925Y-40350574D03*
D22*
X183093925Y-40350574D03*
D21*
%TO.P,MCU1,20*%
%TO.N,MCU1_20*%
X180973925Y-37810575D03*
D22*
X183093925Y-37810574D03*
D21*
%TO.P,MCU1,21*%
%TO.N,MCU1_21*%
X180973925Y-35270574D03*
D22*
X183093925Y-35270574D03*
D21*
%TO.P,MCU1,22*%
%TO.N,MCU1_22*%
X180973925Y-32730574D03*
D22*
X183093925Y-32730573D03*
D21*
%TO.P,MCU1,23*%
%TO.N,MCU1_23*%
X180973925Y-30190573D03*
D22*
X183093925Y-30190574D03*
D21*
%TO.P,MCU1,24*%
%TO.N,MCU1_24*%
X180973925Y-27650574D03*
D22*
X183093925Y-27650574D03*
D23*
%TO.P,MCU1,101*%
%TO.N,P1*%
X191993925Y-27650574D03*
D24*
X193368925Y-27650574D03*
D23*
%TO.P,MCU1,102*%
%TO.N,P0*%
X191993925Y-30190574D03*
D24*
X193368925Y-30190575D03*
D23*
%TO.P,MCU1,103*%
%TO.N,GND*%
X191993925Y-32730574D03*
D24*
X193368925Y-32730574D03*
D23*
%TO.P,MCU1,104*%
X191993926Y-35270574D03*
D24*
X193368927Y-35270574D03*
D23*
%TO.P,MCU1,105*%
%TO.N,P2*%
X191993924Y-37810574D03*
D24*
X193368924Y-37810573D03*
D23*
%TO.P,MCU1,106*%
%TO.N,P3*%
X191993924Y-40350574D03*
D24*
X193368925Y-40350574D03*
D23*
%TO.P,MCU1,107*%
%TO.N,P4*%
X191993924Y-42890574D03*
D24*
X193368924Y-42890575D03*
D23*
%TO.P,MCU1,108*%
%TO.N,P5*%
X191993925Y-45430575D03*
D24*
X193368925Y-45430574D03*
D23*
%TO.P,MCU1,109*%
%TO.N,P6*%
X191993923Y-47970573D03*
D24*
X193368925Y-47970574D03*
D23*
%TO.P,MCU1,110*%
%TO.N,P7*%
X191993925Y-50510574D03*
D24*
X193368925Y-50510573D03*
D23*
%TO.P,MCU1,111*%
%TO.N,P8*%
X191993925Y-53050574D03*
D24*
X193368926Y-53050574D03*
D23*
%TO.P,MCU1,112*%
%TO.N,P9*%
X191993925Y-55590574D03*
D24*
X193368926Y-55590574D03*
D25*
%TO.P,MCU1,113*%
%TO.N,P10*%
X183818924Y-55590574D03*
D23*
X185193925Y-55590574D03*
D25*
%TO.P,MCU1,114*%
%TO.N,P16*%
X183818925Y-53050574D03*
D23*
X185193925Y-53050574D03*
D25*
%TO.P,MCU1,115*%
%TO.N,P14*%
X183818925Y-50510573D03*
D23*
X185193925Y-50510574D03*
D25*
%TO.P,MCU1,116*%
%TO.N,P15*%
X183818925Y-47970574D03*
D23*
X185193925Y-47970574D03*
D25*
%TO.P,MCU1,117*%
%TO.N,P18*%
X183818923Y-45430574D03*
D23*
X185193924Y-45430574D03*
D25*
%TO.P,MCU1,118*%
%TO.N,P19*%
X183818926Y-42890575D03*
D23*
X185193926Y-42890574D03*
D25*
%TO.P,MCU1,119*%
%TO.N,P20*%
X183818925Y-40350574D03*
D23*
X185193926Y-40350574D03*
D25*
%TO.P,MCU1,120*%
%TO.N,P21*%
X183818926Y-37810573D03*
D23*
X185193926Y-37810574D03*
D25*
%TO.P,MCU1,121*%
%TO.N,VCC*%
X183818925Y-35270574D03*
D23*
X185193925Y-35270573D03*
D25*
%TO.P,MCU1,122*%
%TO.N,RST*%
X183818925Y-32730574D03*
D23*
X185193927Y-32730575D03*
D25*
%TO.P,MCU1,123*%
%TO.N,GND*%
X183818925Y-30190575D03*
D23*
X185193925Y-30190574D03*
D25*
%TO.P,MCU1,124*%
%TO.N,RAW*%
X183818924Y-27650574D03*
D23*
X185193925Y-27650574D03*
%TD*%
D10*
%TO.P,S24,1*%
%TO.N,P15*%
X172868929Y-98400576D03*
%TO.P,S24,2*%
%TO.N,outer_cluster*%
X161318929Y-100600576D03*
%TD*%
%TO.P,S5,1*%
%TO.N,P19*%
X118868927Y-78400574D03*
%TO.P,S5,2*%
%TO.N,ring_bottom*%
X107318927Y-80600574D03*
%TD*%
%TO.P,S17,1*%
%TO.N,P10*%
X172868929Y-81400576D03*
%TO.P,S17,2*%
%TO.N,inner_bottom*%
X161318929Y-83600576D03*
%TD*%
%TO.P,S3,1*%
%TO.N,P20*%
X100868929Y-56900576D03*
%TO.P,S3,2*%
%TO.N,pinky_top*%
X89318929Y-59100576D03*
%TD*%
D13*
%TO.P,D1,1*%
%TO.N,P7*%
X93783927Y-101850576D03*
D14*
X95943927Y-101850574D03*
%TO.P,D1,2*%
%TO.N,pinky_bottom*%
X99243927Y-101850576D03*
D15*
X101403927Y-101850574D03*
%TD*%
D13*
%TO.P,D12,1*%
%TO.N,P21*%
X129783928Y-33350576D03*
D14*
X131943928Y-33350574D03*
%TO.P,D12,2*%
%TO.N,middle_num*%
X135243928Y-33350576D03*
D15*
X137403928Y-33350574D03*
%TD*%
D13*
%TO.P,D2,1*%
%TO.N,P8*%
X93783929Y-84850578D03*
D14*
X95943929Y-84850576D03*
%TO.P,D2,2*%
%TO.N,pinky_home*%
X99243929Y-84850578D03*
D15*
X101403929Y-84850576D03*
%TD*%
D10*
%TO.P,S2,1*%
%TO.N,P20*%
X100868928Y-73900576D03*
%TO.P,S2,2*%
%TO.N,pinky_home*%
X89318928Y-76100576D03*
%TD*%
D13*
%TO.P,D22,1*%
%TO.N,P8*%
X184783927Y-75350575D03*
D14*
X186943927Y-75350573D03*
%TO.P,D22,2*%
%TO.N,inner2_home*%
X190243927Y-75350575D03*
D15*
X192403927Y-75350573D03*
%TD*%
D13*
%TO.P,D7,1*%
%TO.N,P16*%
X111783928Y-55350575D03*
D14*
X113943928Y-55350573D03*
%TO.P,D7,2*%
%TO.N,ring_top*%
X117243928Y-55350575D03*
D15*
X119403928Y-55350573D03*
%TD*%
D13*
%TO.P,D13,1*%
%TO.N,P7*%
X147783927Y-89350577D03*
D14*
X149943927Y-89350575D03*
%TO.P,D13,2*%
%TO.N,index_bottom*%
X153243927Y-89350577D03*
D15*
X155403927Y-89350575D03*
%TD*%
D10*
%TO.P,S12,1*%
%TO.N,P18*%
X136868927Y-22400576D03*
%TO.P,S12,2*%
%TO.N,middle_num*%
X125318927Y-24600576D03*
%TD*%
D13*
%TO.P,D5,1*%
%TO.N,P7*%
X111783926Y-89350576D03*
D14*
X113943926Y-89350574D03*
%TO.P,D5,2*%
%TO.N,ring_bottom*%
X117243926Y-89350576D03*
D15*
X119403926Y-89350574D03*
%TD*%
D26*
%TO.P,S25,1*%
%TO.N,P10*%
X194677444Y-102159258D03*
%TO.P,S25,2*%
%TO.N,home_cluster*%
X182951599Y-101294935D03*
%TD*%
D10*
%TO.P,S20,1*%
%TO.N,P10*%
X172868928Y-30400575D03*
%TO.P,S20,2*%
%TO.N,inner_num*%
X161318928Y-32600575D03*
%TD*%
%TO.P,S9,1*%
%TO.N,P18*%
X136868926Y-73400577D03*
%TO.P,S9,2*%
%TO.N,middle_bottom*%
X125318926Y-75600577D03*
%TD*%
D27*
%TO.P,DISP1,1*%
%TO.N,DISP1_1*%
X183513928Y-59050573D03*
%TO.P,DISP1,2*%
%TO.N,DISP1_2*%
X186053927Y-59050573D03*
%TO.P,DISP1,3*%
%TO.N,VCC*%
X188593928Y-59050573D03*
%TO.P,DISP1,4*%
%TO.N,DISP1_4*%
X191133929Y-59050573D03*
D21*
%TO.P,DISP1,5*%
%TO.N,DISP1_5*%
X193673928Y-59050573D03*
D28*
%TO.P,DISP1,10*%
%TO.N,P4*%
X183513929Y-61700573D03*
%TO.P,DISP1,11*%
%TO.N,GND*%
X186053929Y-61700573D03*
%TO.P,DISP1,12*%
%TO.N,P3*%
X191133928Y-61700573D03*
%TO.P,DISP1,13*%
%TO.N,P2*%
X193673928Y-61700572D03*
%TO.P,DISP1,14*%
%TO.N,DISP1_1*%
X183513928Y-60800574D03*
%TO.P,DISP1,15*%
%TO.N,DISP1_2*%
X186053928Y-60800573D03*
%TO.P,DISP1,16*%
%TO.N,DISP1_4*%
X191133928Y-60800574D03*
%TO.P,DISP1,17*%
%TO.N,DISP1_5*%
X193673928Y-60800573D03*
%TD*%
D10*
%TO.P,S4,1*%
%TO.N,P20*%
X100868925Y-39900576D03*
%TO.P,S4,2*%
%TO.N,pinky_num*%
X89318925Y-42100576D03*
%TD*%
%TO.P,S10,1*%
%TO.N,P18*%
X136868928Y-56400573D03*
%TO.P,S10,2*%
%TO.N,middle_home*%
X125318928Y-58600573D03*
%TD*%
%TO.P,S8,1*%
%TO.N,P19*%
X118868928Y-27400576D03*
%TO.P,S8,2*%
%TO.N,ring_num*%
X107318928Y-29600576D03*
%TD*%
D13*
%TO.P,D4,1*%
%TO.N,P21*%
X93783927Y-50850578D03*
D14*
X95943927Y-50850576D03*
%TO.P,D4,2*%
%TO.N,pinky_num*%
X99243927Y-50850578D03*
D15*
X101403927Y-50850576D03*
%TD*%
D11*
%TO.P,_4,1*%
%TO.N,N/C*%
X202943927Y-99350575D03*
X203427201Y-98183850D03*
X203427201Y-100517302D03*
X204593926Y-101000576D03*
D12*
X204593927Y-99350576D03*
D11*
X204593928Y-97700576D03*
X205760653Y-98183850D03*
X205760653Y-100517302D03*
X206243927Y-99350577D03*
%TD*%
D13*
%TO.P,D19,1*%
%TO.N,P16*%
X165783926Y-58350576D03*
D14*
X167943926Y-58350574D03*
%TO.P,D19,2*%
%TO.N,inner_top*%
X171243926Y-58350576D03*
D15*
X173403926Y-58350574D03*
%TD*%
D10*
%TO.P,S21,1*%
%TO.N,P9*%
X191868927Y-81400574D03*
%TO.P,S21,2*%
%TO.N,inner2_bottom*%
X180318927Y-83600574D03*
%TD*%
D11*
%TO.P,_3,1*%
%TO.N,N/C*%
X174943926Y-25350574D03*
X175427200Y-24183849D03*
X175427200Y-26517301D03*
X176593925Y-27000575D03*
D12*
X176593926Y-25350575D03*
D11*
X176593927Y-23700575D03*
X177760652Y-24183849D03*
X177760652Y-26517301D03*
X178243926Y-25350576D03*
%TD*%
D29*
%TO.P,S26,1*%
%TO.N,P9*%
X214487975Y-111092045D03*
%TO.P,S26,2*%
%TO.N,inner_cluster*%
X203385380Y-107222301D03*
%TD*%
D13*
%TO.P,D6,1*%
%TO.N,P8*%
X111783928Y-72350576D03*
D14*
X113943928Y-72350574D03*
%TO.P,D6,2*%
%TO.N,ring_home*%
X117243928Y-72350576D03*
D15*
X119403928Y-72350574D03*
%TD*%
D10*
%TO.P,S19,1*%
%TO.N,P10*%
X172868926Y-47400574D03*
%TO.P,S19,2*%
%TO.N,inner_top*%
X161318926Y-49600574D03*
%TD*%
D13*
%TO.P,D24,1*%
%TO.N,P6*%
X165783929Y-109350576D03*
D14*
X167943929Y-109350574D03*
%TO.P,D24,2*%
%TO.N,outer_cluster*%
X171243929Y-109350576D03*
D15*
X173403929Y-109350574D03*
%TD*%
D10*
%TO.P,S16,1*%
%TO.N,P15*%
X154868929Y-27400576D03*
%TO.P,S16,2*%
%TO.N,index_num*%
X143318929Y-29600576D03*
%TD*%
D13*
%TO.P,D23,1*%
%TO.N,P6*%
X147783927Y-109350576D03*
D14*
X149943927Y-109350574D03*
%TO.P,D23,2*%
%TO.N,outer2_cluster*%
X153243927Y-109350576D03*
D15*
X155403927Y-109350574D03*
%TD*%
D13*
%TO.P,D14,1*%
%TO.N,P8*%
X147783927Y-72350575D03*
D14*
X149943927Y-72350573D03*
%TO.P,D14,2*%
%TO.N,index_home*%
X153243927Y-72350575D03*
D15*
X155403927Y-72350573D03*
%TD*%
D13*
%TO.P,D3,1*%
%TO.N,P16*%
X93783928Y-67850576D03*
D14*
X95943928Y-67850574D03*
%TO.P,D3,2*%
%TO.N,pinky_top*%
X99243928Y-67850576D03*
D15*
X101403928Y-67850574D03*
%TD*%
D10*
%TO.P,S22,1*%
%TO.N,P9*%
X191868928Y-64400573D03*
%TO.P,S22,2*%
%TO.N,inner2_home*%
X180318928Y-66600573D03*
%TD*%
D11*
%TO.P,_1,1*%
%TO.N,N/C*%
X95943926Y-33850572D03*
X96427200Y-32683847D03*
X96427200Y-35017299D03*
X97593925Y-35500573D03*
D12*
X97593926Y-33850573D03*
D11*
X97593927Y-32200573D03*
X98760652Y-32683847D03*
X98760652Y-35017299D03*
X99243926Y-33850574D03*
%TD*%
D30*
%TO.P,JST1,1*%
%TO.N,BAT_P*%
X133777929Y-107350576D03*
%TO.P,JST1,2*%
%TO.N,GND*%
X133777929Y-109350576D03*
D31*
%TO.P,JST1,11*%
%TO.N,JST1_1*%
X136593929Y-107350576D03*
%TO.P,JST1,12*%
%TO.N,JST1_2*%
X136593929Y-109350576D03*
D32*
%TO.P,JST1,21*%
%TO.N,JST1_1*%
X134793929Y-107350574D03*
%TO.P,JST1,22*%
%TO.N,JST1_2*%
X134793929Y-109350577D03*
%TD*%
D13*
%TO.P,D20,1*%
%TO.N,P21*%
X165783927Y-41350576D03*
D14*
X167943927Y-41350574D03*
%TO.P,D20,2*%
%TO.N,inner_num*%
X171243927Y-41350576D03*
D15*
X173403927Y-41350574D03*
%TD*%
D13*
%TO.P,D15,1*%
%TO.N,P16*%
X147783928Y-55350577D03*
D14*
X149943928Y-55350575D03*
%TO.P,D15,2*%
%TO.N,index_top*%
X153243928Y-55350577D03*
D15*
X155403928Y-55350575D03*
%TD*%
D13*
%TO.P,D16,1*%
%TO.N,P21*%
X147783930Y-38350577D03*
D14*
X149943930Y-38350575D03*
%TO.P,D16,2*%
%TO.N,index_num*%
X153243930Y-38350577D03*
D15*
X155403930Y-38350575D03*
%TD*%
D33*
%TO.P,RST1,1*%
%TO.N,GND*%
X168300172Y-22812641D03*
%TO.P,RST1,2*%
%TO.N,RST*%
X168101831Y-24501032D03*
%TO.P,RST1,3*%
%TO.N,GND*%
X163086027Y-22200120D03*
%TO.P,RST1,4*%
%TO.N,RST*%
X162887686Y-23888511D03*
%TD*%
D13*
%TO.P,D10,1*%
%TO.N,P8*%
X129783925Y-67350577D03*
D14*
X131943925Y-67350575D03*
%TO.P,D10,2*%
%TO.N,middle_home*%
X135243925Y-67350577D03*
D15*
X137403925Y-67350575D03*
%TD*%
D34*
%TO.P,PWR1,*%
%TO.N,*%
X147842265Y-22002319D03*
X155092411Y-22854015D03*
X148100107Y-19807412D03*
X155350253Y-20659107D03*
D35*
%TO.P,PWR1,1*%
%TO.N,N/C*%
X153626136Y-23336237D03*
%TO.P,PWR1,2*%
%TO.N,RAW*%
X150646624Y-22986224D03*
%TO.P,PWR1,3*%
%TO.N,BAT_P*%
X149156868Y-22811219D03*
%TD*%
D10*
%TO.P,S11,1*%
%TO.N,P18*%
X136868927Y-39400576D03*
%TO.P,S11,2*%
%TO.N,middle_top*%
X125318927Y-41600576D03*
%TD*%
D13*
%TO.P,D9,1*%
%TO.N,P7*%
X129783927Y-84350574D03*
D14*
X131943927Y-84350572D03*
%TO.P,D9,2*%
%TO.N,middle_bottom*%
X135243927Y-84350574D03*
D15*
X137403927Y-84350572D03*
%TD*%
D36*
%TO.N,P20*%
X97620484Y-42421792D03*
X97620483Y-76421793D03*
X97645483Y-59371792D03*
X97645484Y-93371794D03*
%TO.N,P19*%
X115645483Y-80871793D03*
X115620484Y-63921793D03*
X115620484Y-29921793D03*
X115645484Y-46871795D03*
%TO.N,P18*%
X133645484Y-75871792D03*
X133620484Y-58921792D03*
X151568926Y-100900577D03*
X139500000Y-90900000D03*
X133620484Y-24921794D03*
X133645484Y-41871793D03*
%TO.N,P15*%
X151620483Y-29921792D03*
X151645483Y-80871793D03*
X169568928Y-100900576D03*
X151645483Y-46871793D03*
X151620482Y-63921794D03*
%TO.N,P10*%
X169620483Y-32921793D03*
X169645483Y-49871791D03*
X190851372Y-103665898D03*
X169620486Y-66921793D03*
X169645482Y-83871792D03*
%TO.N,P9*%
X210428800Y-111646911D03*
X188568928Y-66900575D03*
X188593927Y-83850575D03*
%TO.N,P7*%
X186200000Y-51800000D03*
%TO.N,P8*%
X186200000Y-54400000D03*
%TO.N,RAW*%
X151745484Y-24771793D03*
%TO.N,GND*%
X131889436Y-108407036D03*
X167600000Y-94800000D03*
X165755562Y-22497239D03*
X188605108Y-60672833D03*
%TO.N,RST*%
X165557225Y-24185629D03*
%TO.N,P2*%
X192705107Y-57172833D03*
%TO.N,P3*%
X188605106Y-61672832D03*
X189905105Y-41672833D03*
%TO.N,P4*%
X186305106Y-44172834D03*
X184805106Y-57872833D03*
%TO.N,BAT_P*%
X145489437Y-24207037D03*
X132889437Y-108407036D03*
%TD*%
D37*
%TO.N,P20*%
X98445485Y-76935817D02*
X98445485Y-76421792D01*
X98470483Y-93371792D02*
X97645484Y-93371794D01*
X102681427Y-55088078D02*
X102681427Y-47171762D01*
X100920483Y-56921791D02*
X98470483Y-59371792D01*
X100868929Y-56900576D02*
X102681427Y-55088078D01*
X103500000Y-81990332D02*
X98445485Y-76935817D01*
X103500000Y-88269503D02*
X103500000Y-81990332D01*
X98445484Y-42421793D02*
X97620484Y-42421792D01*
X100868928Y-73900576D02*
X102681428Y-72088076D01*
X98445484Y-42935819D02*
X98445484Y-42421793D01*
X100868928Y-90900575D02*
X103500000Y-88269503D01*
X98445485Y-76421792D02*
X97620483Y-76421793D01*
X100895483Y-73971795D02*
X98445485Y-76421792D01*
X102681428Y-72088076D02*
X102681428Y-64171759D01*
X98470483Y-59371792D02*
X97645483Y-59371792D01*
X98470483Y-59960814D02*
X98470483Y-59371792D01*
X102681428Y-64171759D02*
X98470483Y-59960814D01*
X100895483Y-39971794D02*
X98445484Y-42421793D01*
X100920483Y-90921793D02*
X98470483Y-93371792D01*
X102681427Y-47171762D02*
X98445484Y-42935819D01*
X183818926Y-40350575D02*
X185193929Y-40350573D01*
%TO.N,pinky_bottom*%
X92795484Y-95371793D02*
X99295482Y-101871793D01*
X91620485Y-95371794D02*
X92795484Y-95371793D01*
X89370482Y-93121792D02*
X91620485Y-95371794D01*
X99295482Y-101871793D02*
X101455485Y-101871792D01*
%TO.N,pinky_home*%
X91595482Y-78421792D02*
X92770484Y-78421795D01*
X99270482Y-84921791D02*
X101430483Y-84921793D01*
X92770484Y-78421795D02*
X99270482Y-84921791D01*
X89345485Y-76171793D02*
X91595482Y-78421792D01*
%TO.N,pinky_top*%
X99295483Y-67871794D02*
X101455484Y-67871793D01*
X92795484Y-61371793D02*
X99295483Y-67871794D01*
X89370483Y-59121792D02*
X91620485Y-61371794D01*
X91620485Y-61371794D02*
X92795484Y-61371793D01*
%TO.N,pinky_num*%
X91595484Y-44421794D02*
X92770485Y-44421794D01*
X99270482Y-50921793D02*
X101430484Y-50921792D01*
X92770485Y-44421794D02*
X99270482Y-50921793D01*
X89345483Y-42171792D02*
X91595484Y-44421794D01*
%TO.N,P19*%
X120681428Y-59588074D02*
X120681428Y-51681428D01*
X183818927Y-42890574D02*
X185193928Y-42890575D01*
X116445484Y-64445484D02*
X116445484Y-63921793D01*
X118895481Y-61471792D02*
X116445484Y-63921793D01*
X116470485Y-47470485D02*
X116470485Y-46871793D01*
X118920483Y-44421793D02*
X116470485Y-46871793D01*
X116445484Y-63921793D02*
X115620484Y-63921793D01*
X120681428Y-76588073D02*
X120681428Y-68681428D01*
X120681428Y-51681428D02*
X116470485Y-47470485D01*
X120681427Y-34681427D02*
X116445485Y-30445485D01*
X116470485Y-46871793D02*
X115645484Y-46871795D01*
X120681427Y-42588074D02*
X120681427Y-34681427D01*
X116445485Y-29921794D02*
X115620484Y-29921793D01*
X118895483Y-27471792D02*
X116445485Y-29921794D01*
X118868927Y-44400574D02*
X120681427Y-42588074D01*
X118868928Y-61400574D02*
X120681428Y-59588074D01*
X118868927Y-78400574D02*
X120681428Y-76588073D01*
X116470484Y-80871793D02*
X115645483Y-80871793D01*
X116445485Y-30445485D02*
X116445485Y-29921794D01*
X120681428Y-68681428D02*
X116445484Y-64445484D01*
X118920483Y-78421792D02*
X116470484Y-80871793D01*
%TO.N,ring_bottom*%
X117295484Y-89371794D02*
X119455481Y-89371792D01*
X110795484Y-82871792D02*
X117295484Y-89371794D01*
X109620483Y-82871793D02*
X110795484Y-82871792D01*
X107370482Y-80621794D02*
X109620483Y-82871793D01*
%TO.N,ring_home*%
X110770485Y-65921792D02*
X117270484Y-72421793D01*
X117270484Y-72421793D02*
X119430482Y-72421792D01*
X107345484Y-63671794D02*
X109595482Y-65921796D01*
X109595482Y-65921796D02*
X110770485Y-65921792D01*
%TO.N,ring_top*%
X117295482Y-55371795D02*
X119455482Y-55371793D01*
X110795484Y-48871793D02*
X117295482Y-55371795D01*
X107370483Y-46621793D02*
X109620483Y-48871793D01*
X109620483Y-48871793D02*
X110795484Y-48871793D01*
%TO.N,ring_num*%
X117270484Y-38421793D02*
X119430483Y-38421792D01*
X110770483Y-31921793D02*
X117270484Y-38421793D01*
X107345485Y-29671794D02*
X109595481Y-31921795D01*
X109595481Y-31921795D02*
X110770483Y-31921793D01*
%TO.N,P18*%
X134470484Y-41871792D02*
X133645484Y-41871793D01*
X138681428Y-29671761D02*
X134445483Y-25435816D01*
X138681425Y-71588078D02*
X138681425Y-63671754D01*
X136868928Y-56400573D02*
X138681428Y-54588073D01*
X139500000Y-81490335D02*
X134470485Y-76460820D01*
X134470485Y-75871792D02*
X133645484Y-75871792D01*
X138681428Y-37588075D02*
X138681428Y-29671761D01*
X139500000Y-90900000D02*
X139500000Y-81490335D01*
X134470485Y-76460820D02*
X134470485Y-75871792D01*
X134445483Y-24921792D02*
X133620484Y-24921794D01*
X136920483Y-73421794D02*
X134470485Y-75871792D01*
X134445483Y-25435816D02*
X134445483Y-24921792D01*
X136868927Y-39400576D02*
X138681428Y-37588075D01*
X154843928Y-98450575D02*
X152393928Y-100900575D01*
X134445485Y-58921793D02*
X133620484Y-58921792D01*
X136868926Y-73400577D02*
X138681425Y-71588078D01*
X183818927Y-45430574D02*
X185193927Y-45430576D01*
X136895484Y-22471793D02*
X134445483Y-24921792D01*
X134445485Y-59435814D02*
X134445485Y-58921793D01*
X138681428Y-46781428D02*
X134470484Y-42570484D01*
X136920484Y-39421793D02*
X134470484Y-41871792D01*
X138681428Y-54588073D02*
X138681428Y-46781428D01*
X152393928Y-100900575D02*
X151568926Y-100900577D01*
X138681425Y-63671754D02*
X134445485Y-59435814D01*
X134470484Y-42570484D02*
X134470484Y-41871792D01*
X136895482Y-56471793D02*
X134445485Y-58921793D01*
%TO.N,middle_bottom*%
X128795485Y-77871795D02*
X135295482Y-84371793D01*
X127620483Y-77871793D02*
X128795485Y-77871795D01*
X125370482Y-75621793D02*
X127620483Y-77871793D01*
X135295482Y-84371793D02*
X137455483Y-84371793D01*
%TO.N,middle_home*%
X135270484Y-67421794D02*
X137430482Y-67421794D01*
X125345485Y-58671793D02*
X127595482Y-60921794D01*
X127595482Y-60921794D02*
X128770484Y-60921793D01*
X128770484Y-60921793D02*
X135270484Y-67421794D01*
%TO.N,middle_top*%
X125370482Y-41621794D02*
X127620483Y-43871794D01*
X135295484Y-50371793D02*
X137455483Y-50371792D01*
X128795484Y-43871794D02*
X135295484Y-50371793D01*
X127620483Y-43871794D02*
X128795484Y-43871794D01*
%TO.N,middle_num*%
X127595483Y-26921795D02*
X128770484Y-26921794D01*
X135270483Y-33421793D02*
X137430483Y-33421793D01*
X125345484Y-24671792D02*
X127595483Y-26921795D01*
X128770484Y-26921794D02*
X135270483Y-33421793D01*
%TO.N,P15*%
X154920483Y-78421794D02*
X152470484Y-80871793D01*
X183818928Y-47970574D02*
X185193928Y-47970575D01*
X172843927Y-98450575D02*
X170393929Y-100900577D01*
X168032929Y-93564576D02*
X164574243Y-93564576D01*
X152470484Y-80871793D02*
X151645483Y-80871793D01*
X154895483Y-61471792D02*
X152445485Y-63921792D01*
X156681428Y-51671760D02*
X152470482Y-47460814D01*
X156681427Y-76588076D02*
X156681427Y-68981427D01*
X156681428Y-59588075D02*
X156681428Y-51671760D01*
X154868927Y-61400576D02*
X156681428Y-59588075D01*
X152470482Y-46871793D02*
X151645483Y-46871793D01*
X154920484Y-44421794D02*
X152470482Y-46871793D01*
X154868927Y-78400576D02*
X156681427Y-76588076D01*
X170393929Y-100900577D02*
X169568928Y-100900576D01*
X172868929Y-98400576D02*
X168032929Y-93564576D01*
X157000000Y-42269502D02*
X157000000Y-35000000D01*
X154895484Y-27471793D02*
X152445485Y-29921792D01*
X152470484Y-81460817D02*
X152470484Y-80871793D01*
X152445485Y-63921792D02*
X151620482Y-63921794D01*
X152470482Y-47460814D02*
X152470482Y-46871793D01*
X152533638Y-64833638D02*
X152533638Y-63833638D01*
X164574243Y-93564576D02*
X152470484Y-81460817D01*
X152445485Y-30445485D02*
X152445485Y-29921792D01*
X152445485Y-29921792D02*
X151620483Y-29921792D01*
X154868927Y-44400575D02*
X157000000Y-42269502D01*
X157000000Y-35000000D02*
X152445485Y-30445485D01*
X156681427Y-68981427D02*
X152533638Y-64833638D01*
%TO.N,index_bottom*%
X143370484Y-80621793D02*
X145620484Y-82871794D01*
X153295482Y-89371794D02*
X155455482Y-89371793D01*
X145620484Y-82871794D02*
X146795483Y-82871793D01*
X146795483Y-82871793D02*
X153295482Y-89371794D01*
%TO.N,index_home*%
X153270483Y-72421792D02*
X155430482Y-72421793D01*
X145595482Y-65921795D02*
X146770483Y-65921791D01*
X143345484Y-63671792D02*
X145595482Y-65921795D01*
X146770483Y-65921791D02*
X153270483Y-72421792D01*
%TO.N,index_top*%
X153295481Y-55371794D02*
X155455484Y-55371792D01*
X143370482Y-46621794D02*
X145620485Y-48871794D01*
X145620485Y-48871794D02*
X146795483Y-48871793D01*
X146795483Y-48871793D02*
X153295481Y-55371794D01*
%TO.N,index_num*%
X153270482Y-38421794D02*
X155430483Y-38421793D01*
X145595483Y-31921793D02*
X146770484Y-31921794D01*
X143345483Y-29671794D02*
X145595483Y-31921793D01*
X146770484Y-31921794D02*
X153270482Y-38421794D01*
%TO.N,P10*%
X186925000Y-48676344D02*
X186925000Y-54700305D01*
X170470484Y-49871792D02*
X169645483Y-49871791D01*
X174681427Y-45588073D02*
X175698928Y-46605574D01*
X170470484Y-84570484D02*
X170470484Y-83871793D01*
X174681427Y-45588073D02*
X174681427Y-37681427D01*
X170470484Y-83871793D02*
X169645482Y-83871792D01*
X174681428Y-79588077D02*
X174681428Y-71671762D01*
X170445485Y-66921793D02*
X169620486Y-66921793D01*
X172868926Y-47400574D02*
X174681427Y-45588073D01*
X186034731Y-55590574D02*
X185193925Y-55590574D01*
X172868929Y-81400576D02*
X174681428Y-79588077D01*
X183818928Y-55590575D02*
X185193928Y-55590576D01*
X174681426Y-54681426D02*
X170470484Y-50470484D01*
X172920483Y-81421793D02*
X170470484Y-83871793D01*
X179464576Y-93564576D02*
X170470484Y-84570484D01*
X170445485Y-67435819D02*
X170445485Y-66921793D01*
X172895483Y-64471794D02*
X170445485Y-66921793D01*
X175698928Y-46605574D02*
X184854230Y-46605574D01*
X170470484Y-50470484D02*
X170470484Y-49871792D01*
X174681426Y-62588076D02*
X174681426Y-54681426D01*
X184854230Y-46605574D02*
X186925000Y-48676344D01*
X174681428Y-71671762D02*
X170445485Y-67435819D01*
X172868926Y-64400576D02*
X174681426Y-62588076D01*
X194648887Y-102147010D02*
X191648261Y-103879425D01*
X186925000Y-54700305D02*
X186034731Y-55590574D01*
X187428621Y-93564576D02*
X179464576Y-93564576D01*
X174681427Y-37681427D02*
X170445484Y-33445484D01*
X194677444Y-100813399D02*
X187428621Y-93564576D01*
X170445484Y-33445484D02*
X170445484Y-32921794D01*
X194677444Y-102159258D02*
X194677444Y-100813399D01*
X170445484Y-32921794D02*
X169620483Y-32921793D01*
X191648261Y-103879425D02*
X190851372Y-103665898D01*
X172895483Y-30471793D02*
X170445484Y-32921794D01*
X172920483Y-47421793D02*
X170470484Y-49871792D01*
%TO.N,inner_bottom*%
X161370484Y-83621792D02*
X163620485Y-85871792D01*
X164795483Y-85871794D02*
X171295483Y-92371794D01*
X171295483Y-92371794D02*
X173455483Y-92371793D01*
X163620485Y-85871792D02*
X164795483Y-85871794D01*
%TO.N,inner_home*%
X164770484Y-68921795D02*
X171270483Y-75421792D01*
X163595483Y-68921794D02*
X164770484Y-68921795D01*
X161345483Y-66671791D02*
X163595483Y-68921794D01*
X171270483Y-75421792D02*
X173430483Y-75421793D01*
%TO.N,inner_top*%
X164795484Y-51871792D02*
X171295481Y-58371795D01*
X163620483Y-51871794D02*
X164795484Y-51871792D01*
X161370483Y-49621794D02*
X163620483Y-51871794D01*
X171295481Y-58371795D02*
X173455482Y-58371793D01*
%TO.N,inner_num*%
X163595481Y-34921796D02*
X164770484Y-34921793D01*
X161345484Y-32671793D02*
X163595481Y-34921796D01*
X171270485Y-41421793D02*
X173430482Y-41421792D01*
X164770484Y-34921793D02*
X171270485Y-41421793D01*
%TO.N,P9*%
X211143270Y-112059410D02*
X210428800Y-111646911D01*
X193368928Y-55590576D02*
X191993926Y-55590575D01*
X214490034Y-111162648D02*
X211143270Y-112059410D01*
X193681427Y-79588074D02*
X193681427Y-71671756D01*
X189393928Y-67384257D02*
X189393928Y-66900576D01*
X214487975Y-111092045D02*
X214487975Y-105673734D01*
X189393928Y-66900576D02*
X188568928Y-66900575D01*
X191843927Y-64450573D02*
X189393928Y-66900576D01*
X191868927Y-81400574D02*
X193681427Y-79588074D01*
X194714241Y-85900000D02*
X191468353Y-85900000D01*
X191868927Y-81400577D02*
X189418929Y-83850576D01*
X214487975Y-105673734D02*
X194714241Y-85900000D01*
X193681427Y-71671756D02*
X189393928Y-67384257D01*
X189418929Y-83850576D02*
X188593927Y-83850575D01*
X191468353Y-85900000D02*
X189418929Y-83850576D01*
%TO.N,inner2_bottom*%
X182568928Y-85850575D02*
X183743927Y-85850574D01*
X190243927Y-92350576D02*
X192403927Y-92350575D01*
X180318927Y-83600575D02*
X182568928Y-85850575D01*
X183743927Y-85850574D02*
X190243927Y-92350576D01*
%TO.N,inner2_home*%
X183718929Y-68900575D02*
X190218928Y-75400574D01*
X182543926Y-68900575D02*
X183718929Y-68900575D01*
X190218928Y-75400574D02*
X192378927Y-75400574D01*
X180293927Y-66650575D02*
X182543926Y-68900575D01*
%TO.N,outer2_cluster*%
X143293926Y-100650577D02*
X145543926Y-102900574D01*
X146718928Y-102900574D02*
X153218928Y-109400574D01*
X153218928Y-109400574D02*
X155378926Y-109400575D01*
X145543926Y-102900574D02*
X146718928Y-102900574D01*
%TO.N,outer_cluster*%
X171218928Y-109400575D02*
X173378927Y-109400574D01*
X164718927Y-102900575D02*
X171218928Y-109400575D01*
X161293928Y-100650577D02*
X163543927Y-102900574D01*
X163543927Y-102900574D02*
X164718927Y-102900575D01*
%TO.N,home_cluster*%
X184514030Y-104038365D02*
X185648995Y-104342475D01*
X190245188Y-112303320D02*
X192331588Y-112862369D01*
X185648995Y-104342475D02*
X190245188Y-112303320D01*
X182923041Y-101282689D02*
X184514030Y-104038365D01*
%TO.N,inner_cluster*%
X203387443Y-107292904D02*
X204211000Y-110366463D01*
X204211000Y-110366463D02*
X205228576Y-110953961D01*
X207607742Y-119833128D02*
X209478357Y-120913125D01*
X205228576Y-110953961D02*
X207607742Y-119833128D01*
%TO.N,P7*%
X186943929Y-92350574D02*
X185818927Y-92350574D01*
X149995482Y-89371794D02*
X147835484Y-89371795D01*
X180562798Y-51800000D02*
X186200000Y-51800000D01*
X178243928Y-54118870D02*
X180562798Y-51800000D01*
X95995482Y-101871793D02*
X93835484Y-101871794D01*
X178243928Y-84775575D02*
X178243928Y-54118870D01*
X193368929Y-50510576D02*
X191993928Y-50510574D01*
X113995484Y-89371794D02*
X111835482Y-89371794D01*
X185818927Y-92350574D02*
X178243928Y-84775575D01*
X167995482Y-92371793D02*
X165835482Y-92371793D01*
X186943927Y-92350575D02*
X184783926Y-92350576D01*
X131995483Y-84371793D02*
X129835483Y-84371794D01*
%TO.N,P8*%
X184783927Y-75350575D02*
X178693928Y-69260576D01*
X149970484Y-72421792D02*
X147810481Y-72421793D01*
X131970484Y-67421792D02*
X129810483Y-67421793D01*
X178693928Y-55200000D02*
X179493928Y-54400000D01*
X193368925Y-53050573D02*
X191993926Y-53050575D01*
X186918926Y-75400576D02*
X184758927Y-75400573D01*
X95970483Y-84921794D02*
X93810483Y-84921793D01*
X179493928Y-54400000D02*
X186200000Y-54400000D01*
X167970483Y-75421792D02*
X165810482Y-75421792D01*
X178693928Y-69260576D02*
X178693928Y-55200000D01*
X113970483Y-72421791D02*
X111810483Y-72421792D01*
%TO.N,P16*%
X113995483Y-55371790D02*
X111835483Y-55371794D01*
X149995483Y-55371791D02*
X147835483Y-55371794D01*
X95995482Y-67871792D02*
X93835483Y-67871794D01*
X183818928Y-53050576D02*
X185193928Y-53050575D01*
X131995483Y-50371792D02*
X129835484Y-50371794D01*
X167995484Y-58371794D02*
X165835484Y-58371793D01*
%TO.N,P21*%
X167970484Y-41421793D02*
X165810482Y-41421793D01*
X183818926Y-37810574D02*
X185193927Y-37810577D01*
X131970482Y-33421793D02*
X129810484Y-33421793D01*
X95970482Y-50921794D02*
X93810482Y-50921793D01*
X113970483Y-38421793D02*
X111810484Y-38421792D01*
X149970483Y-38421794D02*
X147810482Y-38421794D01*
%TO.N,P6*%
X193368926Y-47970575D02*
X191993926Y-47970576D01*
X167918927Y-109400577D02*
X165758928Y-109400573D01*
X149918929Y-109400574D02*
X147758926Y-109400576D01*
X187057633Y-111449217D02*
X184971233Y-110890168D01*
X204749858Y-118183126D02*
X202879244Y-117103127D01*
%TO.N,RAW*%
X151745484Y-24771793D02*
X154084553Y-25046570D01*
X150646625Y-23672932D02*
X151745484Y-24771793D01*
X180776086Y-22857901D02*
X183818925Y-25900741D01*
X183818928Y-27650575D02*
X185193928Y-27650576D01*
X159953218Y-20411776D02*
X180776086Y-22857901D01*
X150646625Y-22986224D02*
X150646625Y-23672932D01*
X154084553Y-25046570D02*
X159953218Y-20411776D01*
X183818925Y-25900741D02*
X183818925Y-27650573D01*
%TO.N,GND*%
X132807670Y-109350576D02*
X133777928Y-109350576D01*
X188605108Y-60672833D02*
X188633372Y-60672833D01*
X193368928Y-35270573D02*
X191993927Y-35270577D01*
X165755562Y-22497239D02*
X165258979Y-22438903D01*
X189100000Y-57894944D02*
X189100000Y-38164501D01*
X188579801Y-60672833D02*
X188605108Y-60672833D01*
X141039437Y-99060563D02*
X145300000Y-94800000D01*
X193368926Y-32730575D02*
X191993926Y-32730575D01*
X138124424Y-110275576D02*
X138124424Y-103640478D01*
X189768929Y-59537276D02*
X189768930Y-58563874D01*
X165258979Y-22438903D02*
X165240815Y-22453250D01*
X188633372Y-60672833D02*
X189768929Y-59537276D01*
X189100000Y-38164501D02*
X191993927Y-35270574D01*
X168300171Y-22812637D02*
X165769908Y-22515401D01*
X165769908Y-22515401D02*
X165755562Y-22497239D01*
X134702929Y-110275576D02*
X138124424Y-110275576D01*
X183976186Y-28972832D02*
X185193926Y-30190575D01*
X131889437Y-108432342D02*
X132807670Y-109350576D01*
X141039437Y-100725465D02*
X141039437Y-99060563D01*
X145300000Y-94800000D02*
X167600000Y-94800000D01*
X138124424Y-103640478D02*
X141039437Y-100725465D01*
X131889436Y-108407036D02*
X131889437Y-108432342D01*
X168300171Y-22812641D02*
X169070131Y-22812641D01*
X165240815Y-22453250D02*
X163086026Y-22200118D01*
X133777929Y-109350576D02*
X134702929Y-110275576D01*
X187552061Y-61700575D02*
X188579801Y-60672833D01*
X175230324Y-28972833D02*
X183976186Y-28972832D01*
X189768930Y-58563874D02*
X189100000Y-57894944D01*
X169070131Y-22812641D02*
X175230324Y-28972833D01*
X186053930Y-61700573D02*
X187552061Y-61700575D01*
X183818928Y-30190574D02*
X185193927Y-30190574D01*
%TO.N,RST*%
X162887687Y-23888512D02*
X165539058Y-24199976D01*
X183818926Y-31886653D02*
X183818926Y-32730573D01*
X183487846Y-31555575D02*
X183818926Y-31886653D01*
X168101830Y-24501032D02*
X170122128Y-24501032D01*
X165571568Y-24203795D02*
X165557225Y-24185629D01*
X168101830Y-24501030D02*
X165571568Y-24203795D01*
X177176668Y-31555574D02*
X183487846Y-31555575D01*
X170122128Y-24501032D02*
X177176668Y-31555574D01*
X165539058Y-24199976D02*
X165557225Y-24185629D01*
X183818925Y-32730576D02*
X185193928Y-32730576D01*
%TO.N,VCC*%
X183818928Y-35270574D02*
X185193928Y-35270576D01*
X188593928Y-38670574D02*
X185193925Y-35270573D01*
X188593928Y-59050574D02*
X188593928Y-38670574D01*
%TO.N,P14*%
X183818926Y-50510574D02*
X185193928Y-50510575D01*
%TO.N,P1*%
X193368927Y-27650576D02*
X191993927Y-27650573D01*
%TO.N,P0*%
X193368929Y-30190575D02*
X191993928Y-30190575D01*
%TO.N,P2*%
X193368925Y-37810574D02*
X191993927Y-37810575D01*
X192705107Y-57172833D02*
X193505106Y-57172833D01*
X194905106Y-61319396D02*
X194523928Y-61700575D01*
X190000000Y-54621953D02*
X190000000Y-42603243D01*
X194905105Y-58572832D02*
X194905106Y-61319396D01*
X193505106Y-57172833D02*
X194905105Y-58572832D01*
X194523928Y-61700575D02*
X193673928Y-61700573D01*
X190000000Y-42603243D02*
X190630105Y-41973138D01*
X190630105Y-39174394D02*
X191993925Y-37810574D01*
X190630105Y-41973138D02*
X190630105Y-39174394D01*
X192705107Y-57172833D02*
X192550880Y-57172833D01*
X192550880Y-57172833D02*
X190000000Y-54621953D01*
%TO.N,P3*%
X189550000Y-42027938D02*
X189550000Y-55117727D01*
X192405106Y-61279396D02*
X191983928Y-61700574D01*
X192405105Y-57972832D02*
X192405106Y-61279396D01*
X193368927Y-40350574D02*
X191993925Y-40350575D01*
X188632847Y-61700575D02*
X188605106Y-61672832D01*
X191983928Y-61700574D02*
X191133929Y-61700573D01*
X191133929Y-61700573D02*
X188632847Y-61700575D01*
X189905105Y-41672833D02*
X189550000Y-42027938D01*
X189550000Y-55117727D02*
X192405105Y-57972832D01*
%TO.N,P4*%
X184805106Y-57872833D02*
X188100000Y-54577939D01*
X188100000Y-54577939D02*
X188100000Y-45967728D01*
X184805106Y-57872833D02*
X184805106Y-61259397D01*
X188100000Y-45967728D02*
X186305106Y-44172834D01*
X184363928Y-61700573D02*
X183513928Y-61700573D01*
X193368928Y-42890575D02*
X191993927Y-42890577D01*
X184805106Y-61259397D02*
X184363928Y-61700573D01*
%TO.N,P5*%
X193368927Y-45430573D02*
X191993928Y-45430575D01*
%TO.N,MCU1_24*%
X180973928Y-27650575D02*
X183093928Y-27650576D01*
%TO.N,MCU1_1*%
X194093927Y-27650573D02*
X196213926Y-27650577D01*
%TO.N,MCU1_23*%
X180973926Y-30190576D02*
X183093928Y-30190575D01*
%TO.N,MCU1_2*%
X194093927Y-30190574D02*
X196213927Y-30190574D01*
%TO.N,MCU1_22*%
X180973929Y-32730576D02*
X183093927Y-32730576D01*
%TO.N,MCU1_3*%
X194093927Y-32730573D02*
X196213928Y-32730574D01*
%TO.N,MCU1_21*%
X180973930Y-35270575D02*
X183093928Y-35270575D01*
%TO.N,MCU1_4*%
X194093927Y-35270577D02*
X196213927Y-35270575D01*
%TO.N,MCU1_20*%
X180973927Y-37810573D02*
X183093928Y-37810575D01*
%TO.N,MCU1_5*%
X194093927Y-37810575D02*
X196213928Y-37810575D01*
%TO.N,MCU1_19*%
X180973929Y-40350575D02*
X183093928Y-40350575D01*
%TO.N,MCU1_6*%
X194093927Y-40350576D02*
X196213925Y-40350576D01*
%TO.N,MCU1_18*%
X180973928Y-42890573D02*
X183093928Y-42890575D01*
%TO.N,MCU1_7*%
X194093927Y-42890575D02*
X196213928Y-42890572D01*
%TO.N,MCU1_17*%
X180973927Y-45430576D02*
X183093926Y-45430576D01*
%TO.N,MCU1_8*%
X194093925Y-45430575D02*
X196213927Y-45430577D01*
%TO.N,MCU1_16*%
X180973928Y-47970576D02*
X183093929Y-47970576D01*
%TO.N,MCU1_9*%
X194093927Y-47970575D02*
X196213925Y-47970575D01*
%TO.N,MCU1_15*%
X180973927Y-50510576D02*
X183093928Y-50510575D01*
%TO.N,MCU1_10*%
X194093926Y-50510576D02*
X196213927Y-50510575D01*
%TO.N,MCU1_14*%
X180973927Y-53050575D02*
X183093927Y-53050575D01*
%TO.N,MCU1_11*%
X194093925Y-53050575D02*
X196213927Y-53050575D01*
%TO.N,MCU1_13*%
X180973928Y-55590575D02*
X183093929Y-55590576D01*
%TO.N,MCU1_12*%
X194093928Y-55590574D02*
X196213925Y-55590575D01*
%TO.N,DISP1_1*%
X183513926Y-59050577D02*
X183513927Y-60800576D01*
%TO.N,DISP1_2*%
X186053928Y-59050575D02*
X186053925Y-60800576D01*
%TO.N,DISP1_4*%
X191133927Y-59050575D02*
X191133928Y-60800575D01*
%TO.N,DISP1_5*%
X193673927Y-59050576D02*
X193673927Y-60800574D01*
%TO.N,BAT_P*%
X145489437Y-24207037D02*
X144924680Y-24771794D01*
X144897711Y-24771794D02*
X140589437Y-29080068D01*
X147761051Y-24207037D02*
X149156870Y-22811217D01*
X140589437Y-29080068D02*
X140589437Y-100539066D01*
X144924680Y-24771794D02*
X144897711Y-24771794D01*
X140589437Y-100539066D02*
X133777928Y-107350575D01*
X145489437Y-24207037D02*
X147761051Y-24207037D01*
X132889437Y-108407036D02*
X132889436Y-108239063D01*
X132889436Y-108239063D02*
X133777926Y-107350573D01*
%TO.N,JST1_1*%
X134793927Y-107350575D02*
X136593928Y-107350575D01*
%TO.N,JST1_2*%
X134793929Y-109350575D02*
X136593927Y-109350576D01*
%TD*%
M02*
