%TF.GenerationSoftware,KiCad,Pcbnew,8.0.4*%
%TF.CreationDate,2024-09-01T12:28:15-05:00*%
%TF.ProjectId,sweeppp,73776565-7070-4702-9e6b-696361645f70,v1.0.0*%
%TF.SameCoordinates,Original*%
%TF.FileFunction,Soldermask,Top*%
%TF.FilePolarity,Negative*%
%FSLAX46Y46*%
G04 Gerber Fmt 4.6, Leading zero omitted, Abs format (unit mm)*
G04 Created by KiCad (PCBNEW 8.0.4) date 2024-09-01 12:28:15*
%MOMM*%
%LPD*%
G01*
G04 APERTURE LIST*
G04 Aperture macros list*
%AMRoundRect*
0 Rectangle with rounded corners*
0 $1 Rounding radius*
0 $2 $3 $4 $5 $6 $7 $8 $9 X,Y pos of 4 corners*
0 Add a 4 corners polygon primitive as box body*
4,1,4,$2,$3,$4,$5,$6,$7,$8,$9,$2,$3,0*
0 Add four circle primitives for the rounded corners*
1,1,$1+$1,$2,$3*
1,1,$1+$1,$4,$5*
1,1,$1+$1,$6,$7*
1,1,$1+$1,$8,$9*
0 Add four rect primitives between the rounded corners*
20,1,$1+$1,$2,$3,$4,$5,0*
20,1,$1+$1,$4,$5,$6,$7,0*
20,1,$1+$1,$6,$7,$8,$9,0*
20,1,$1+$1,$8,$9,$2,$3,0*%
%AMFreePoly0*
4,1,16,-0.214645,0.660355,-0.210957,0.656235,0.289043,0.031235,0.299694,-0.005522,0.289043,-0.031235,-0.210957,-0.656235,-0.244478,-0.674694,-0.250000,-0.675000,-0.500000,-0.675000,-0.535355,-0.660355,-0.550000,-0.625000,-0.550000,0.625000,-0.535355,0.660355,-0.500000,0.675000,-0.250000,0.675000,-0.214645,0.660355,-0.214645,0.660355,$1*%
%AMFreePoly1*
4,1,16,0.535355,0.660355,0.550000,0.625000,0.550000,-0.625000,0.535355,-0.660355,0.500000,-0.675000,-0.650000,-0.675000,-0.685355,-0.660355,-0.700000,-0.625000,-0.689043,-0.593765,-0.214031,0.000000,-0.689043,0.593765,-0.699694,0.630522,-0.681235,0.664043,-0.650000,0.675000,0.500000,0.675000,0.535355,0.660355,0.535355,0.660355,$1*%
%AMFreePoly2*
4,1,14,0.035355,0.435355,0.635355,-0.164645,0.650000,-0.200000,0.650000,-0.400000,0.635355,-0.435355,0.600000,-0.450000,-0.600000,-0.450000,-0.635355,-0.435355,-0.650000,-0.400000,-0.650000,-0.200000,-0.635355,-0.164645,-0.035355,0.435355,0.000000,0.450000,0.035355,0.435355,0.035355,0.435355,$1*%
%AMFreePoly3*
4,1,16,0.635355,0.285355,0.650000,0.250000,0.650000,-1.000000,0.635355,-1.035355,0.600000,-1.050000,0.564645,-1.035355,0.000000,-0.470710,-0.564645,-1.035355,-0.600000,-1.050000,-0.635355,-1.035355,-0.650000,-1.000000,-0.650000,0.250000,-0.635355,0.285355,-0.600000,0.300000,0.600000,0.300000,0.635355,0.285355,0.635355,0.285355,$1*%
G04 Aperture macros list end*
%ADD10RoundRect,0.050000X-1.300000X-1.300000X1.300000X-1.300000X1.300000X1.300000X-1.300000X1.300000X0*%
%ADD11RoundRect,0.050000X-1.592168X-0.919239X0.919239X-1.592168X1.592168X0.919239X-0.919239X1.592168X0*%
%ADD12RoundRect,0.050000X-1.775833X-0.475833X0.475833X-1.775833X1.775833X0.475833X-0.475833X1.775833X0*%
%ADD13RoundRect,0.050000X-0.450000X-0.600000X0.450000X-0.600000X0.450000X0.600000X-0.450000X0.600000X0*%
%ADD14RoundRect,0.050000X-0.889000X-0.889000X0.889000X-0.889000X0.889000X0.889000X-0.889000X0.889000X0*%
%ADD15C,2.005000*%
%ADD16RoundRect,0.050000X-0.589958X-0.463087X0.279375X-0.696024X0.589958X0.463087X-0.279375X0.696024X0*%
%ADD17RoundRect,0.050000X-1.088798X-0.628618X0.628618X-1.088798X1.088798X0.628618X-0.628618X1.088798X0*%
%ADD18RoundRect,0.050000X-0.689711X-0.294615X0.089711X-0.744615X0.689711X0.294615X-0.089711X0.744615X0*%
%ADD19RoundRect,0.050000X-1.214397X-0.325397X0.325397X-1.214397X1.214397X0.325397X-0.325397X1.214397X0*%
%ADD20C,1.800000*%
%ADD21C,0.900000*%
%ADD22FreePoly0,0.000000*%
%ADD23FreePoly1,0.000000*%
%ADD24FreePoly1,180.000000*%
%ADD25FreePoly0,180.000000*%
%ADD26RoundRect,0.050000X0.600000X-0.300000X0.600000X0.300000X-0.600000X0.300000X-0.600000X-0.300000X0*%
%ADD27O,1.800000X1.800000*%
%ADD28RoundRect,0.050000X0.828043X0.406166X-0.711372X0.587005X-0.828043X-0.406166X0.711372X-0.587005X0*%
%ADD29RoundRect,0.050000X0.543254X0.338933X-0.449917X0.455604X-0.543254X-0.338933X0.449917X-0.455604X0*%
%ADD30RoundRect,0.050000X0.435113X0.704043X-0.260107X0.785713X-0.435113X-0.704043X0.260107X-0.785713X0*%
%ADD31C,1.000000*%
%ADD32O,1.850000X1.300000*%
%ADD33FreePoly2,90.000000*%
%ADD34FreePoly3,90.000000*%
%ADD35C,0.800000*%
%ADD36C,4.500000*%
G04 APERTURE END LIST*
D10*
%TO.C,S1*%
X100868928Y-90900575D03*
X89318928Y-93100575D03*
%TD*%
%TO.C,S2*%
X100868928Y-73900576D03*
X89318928Y-76100576D03*
%TD*%
%TO.C,S3*%
X100868929Y-56900576D03*
X89318929Y-59100576D03*
%TD*%
%TO.C,S4*%
X100868925Y-39900576D03*
X89318925Y-42100576D03*
%TD*%
%TO.C,S5*%
X118868927Y-78400574D03*
X107318927Y-80600574D03*
%TD*%
%TO.C,S6*%
X118868928Y-61400574D03*
X107318928Y-63600574D03*
%TD*%
%TO.C,S7*%
X118868927Y-44400574D03*
X107318927Y-46600574D03*
%TD*%
%TO.C,S8*%
X118868928Y-27400576D03*
X107318928Y-29600576D03*
%TD*%
%TO.C,S9*%
X136868926Y-73400577D03*
X125318926Y-75600577D03*
%TD*%
%TO.C,S10*%
X136868928Y-56400573D03*
X125318928Y-58600573D03*
%TD*%
%TO.C,S11*%
X136868927Y-39400576D03*
X125318927Y-41600576D03*
%TD*%
%TO.C,S12*%
X136868927Y-22400576D03*
X125318927Y-24600576D03*
%TD*%
%TO.C,S13*%
X154868927Y-78400576D03*
X143318927Y-80600576D03*
%TD*%
%TO.C,S14*%
X154868927Y-61400576D03*
X143318927Y-63600576D03*
%TD*%
%TO.C,S15*%
X154868927Y-44400575D03*
X143318927Y-46600575D03*
%TD*%
%TO.C,S16*%
X154868929Y-27400576D03*
X143318929Y-29600576D03*
%TD*%
%TO.C,S17*%
X172868929Y-81400576D03*
X161318929Y-83600576D03*
%TD*%
%TO.C,S18*%
X172868926Y-64400576D03*
X161318926Y-66600576D03*
%TD*%
%TO.C,S19*%
X172868926Y-47400574D03*
X161318926Y-49600574D03*
%TD*%
%TO.C,S20*%
X172868928Y-30400575D03*
X161318928Y-32600575D03*
%TD*%
%TO.C,S21*%
X191868927Y-81400574D03*
X180318927Y-83600574D03*
%TD*%
%TO.C,S22*%
X191868928Y-64400573D03*
X180318928Y-66600573D03*
%TD*%
%TO.C,S23*%
X154868928Y-98400576D03*
X143318928Y-100600576D03*
%TD*%
%TO.C,S24*%
X172868929Y-98400576D03*
X161318929Y-100600576D03*
%TD*%
D11*
%TO.C,S25*%
X194677444Y-102159258D03*
X182951599Y-101294935D03*
%TD*%
D12*
%TO.C,S26*%
X214487975Y-111092045D03*
X203385381Y-107222301D03*
%TD*%
D13*
%TO.C,D1*%
X95943927Y-101850574D03*
X99243927Y-101850576D03*
D14*
X93783927Y-101850576D03*
D15*
X101403927Y-101850574D03*
%TD*%
D13*
%TO.C,D2*%
X95943929Y-84850576D03*
X99243929Y-84850578D03*
D14*
X93783929Y-84850578D03*
D15*
X101403929Y-84850576D03*
%TD*%
D13*
%TO.C,D3*%
X95943928Y-67850574D03*
X99243928Y-67850576D03*
D14*
X93783928Y-67850576D03*
D15*
X101403928Y-67850574D03*
%TD*%
D13*
%TO.C,D4*%
X95943927Y-50850576D03*
X99243927Y-50850578D03*
D14*
X93783927Y-50850578D03*
D15*
X101403927Y-50850576D03*
%TD*%
D13*
%TO.C,D5*%
X113943926Y-89350574D03*
X117243926Y-89350576D03*
D14*
X111783926Y-89350576D03*
D15*
X119403926Y-89350574D03*
%TD*%
D13*
%TO.C,D6*%
X113943928Y-72350574D03*
X117243928Y-72350576D03*
D14*
X111783928Y-72350576D03*
D15*
X119403928Y-72350574D03*
%TD*%
D13*
%TO.C,D7*%
X113943928Y-55350573D03*
X117243928Y-55350575D03*
D14*
X111783928Y-55350575D03*
D15*
X119403928Y-55350573D03*
%TD*%
D13*
%TO.C,D8*%
X113943927Y-38350574D03*
X117243927Y-38350576D03*
D14*
X111783927Y-38350576D03*
D15*
X119403927Y-38350574D03*
%TD*%
D13*
%TO.C,D9*%
X131943927Y-84350572D03*
X135243927Y-84350574D03*
D14*
X129783927Y-84350574D03*
D15*
X137403927Y-84350572D03*
%TD*%
D13*
%TO.C,D10*%
X131943925Y-67350575D03*
X135243925Y-67350577D03*
D14*
X129783925Y-67350577D03*
D15*
X137403925Y-67350575D03*
%TD*%
D13*
%TO.C,D11*%
X131943928Y-50350575D03*
X135243928Y-50350577D03*
D14*
X129783928Y-50350577D03*
D15*
X137403928Y-50350575D03*
%TD*%
D13*
%TO.C,D12*%
X131943928Y-33350574D03*
X135243928Y-33350576D03*
D14*
X129783928Y-33350576D03*
D15*
X137403928Y-33350574D03*
%TD*%
D13*
%TO.C,D13*%
X149943927Y-89350575D03*
X153243927Y-89350577D03*
D14*
X147783927Y-89350577D03*
D15*
X155403927Y-89350575D03*
%TD*%
D13*
%TO.C,D14*%
X149943927Y-72350573D03*
X153243927Y-72350575D03*
D14*
X147783927Y-72350575D03*
D15*
X155403927Y-72350573D03*
%TD*%
D13*
%TO.C,D15*%
X149943928Y-55350575D03*
X153243928Y-55350577D03*
D14*
X147783928Y-55350577D03*
D15*
X155403928Y-55350575D03*
%TD*%
D13*
%TO.C,D16*%
X149943930Y-38350575D03*
X153243930Y-38350577D03*
D14*
X147783930Y-38350577D03*
D15*
X155403930Y-38350575D03*
%TD*%
D13*
%TO.C,D17*%
X167943927Y-92350574D03*
X171243927Y-92350576D03*
D14*
X165783927Y-92350576D03*
D15*
X173403927Y-92350574D03*
%TD*%
D13*
%TO.C,D18*%
X167943928Y-75350573D03*
X171243928Y-75350575D03*
D14*
X165783928Y-75350575D03*
D15*
X173403928Y-75350573D03*
%TD*%
D13*
%TO.C,D19*%
X167943926Y-58350574D03*
X171243926Y-58350576D03*
D14*
X165783926Y-58350576D03*
D15*
X173403926Y-58350574D03*
%TD*%
D13*
%TO.C,D20*%
X167943927Y-41350574D03*
X171243927Y-41350576D03*
D14*
X165783927Y-41350576D03*
D15*
X173403927Y-41350574D03*
%TD*%
D13*
%TO.C,D21*%
X186943929Y-92350574D03*
X190243929Y-92350576D03*
D14*
X184783929Y-92350576D03*
D15*
X192403929Y-92350574D03*
%TD*%
D13*
%TO.C,D22*%
X186943927Y-75350573D03*
X190243927Y-75350575D03*
D14*
X184783927Y-75350575D03*
D15*
X192403927Y-75350573D03*
%TD*%
D13*
%TO.C,D23*%
X149943927Y-109350574D03*
X153243927Y-109350576D03*
D14*
X147783927Y-109350576D03*
D15*
X155403927Y-109350574D03*
%TD*%
D13*
%TO.C,D24*%
X167943929Y-109350574D03*
X171243929Y-109350576D03*
D14*
X165783929Y-109350576D03*
D15*
X173403929Y-109350574D03*
%TD*%
D16*
%TO.C,D25*%
X187086193Y-111461463D03*
X190273749Y-112315563D03*
D17*
X184999793Y-110902410D03*
D15*
X192360149Y-112874616D03*
%TD*%
D18*
%TO.C,D26*%
X204747803Y-118112521D03*
X207605689Y-119762521D03*
D19*
X202877189Y-117032520D03*
D15*
X209476303Y-120842522D03*
%TD*%
D20*
%TO.C,MCU1*%
X180973925Y-27650574D03*
X196213925Y-27650574D03*
D21*
X191993925Y-27650574D03*
X185193925Y-27650574D03*
D22*
X183093925Y-27650574D03*
D23*
X183818924Y-27650574D03*
D24*
X193368925Y-27650574D03*
D25*
X194093925Y-27650574D03*
D20*
X180973925Y-30190573D03*
X196213925Y-30190573D03*
D21*
X191993925Y-30190574D03*
X185193925Y-30190574D03*
D22*
X183093925Y-30190574D03*
D23*
X183818925Y-30190575D03*
D24*
X193368925Y-30190575D03*
D25*
X194093925Y-30190574D03*
D20*
X180973925Y-32730574D03*
X196213925Y-32730574D03*
D21*
X191993925Y-32730574D03*
X185193927Y-32730575D03*
D22*
X183093925Y-32730573D03*
D23*
X183818925Y-32730574D03*
D24*
X193368925Y-32730574D03*
D25*
X194093925Y-32730574D03*
D20*
X180973925Y-35270574D03*
X196213925Y-35270574D03*
D21*
X191993926Y-35270574D03*
X185193925Y-35270573D03*
D22*
X183093925Y-35270574D03*
D23*
X183818925Y-35270574D03*
D24*
X193368927Y-35270574D03*
D25*
X194093925Y-35270574D03*
D20*
X180973925Y-37810575D03*
X196213925Y-37810575D03*
D21*
X191993924Y-37810574D03*
X185193926Y-37810574D03*
D22*
X183093925Y-37810574D03*
D23*
X183818926Y-37810573D03*
D24*
X193368924Y-37810573D03*
D25*
X194093925Y-37810574D03*
D20*
X180973925Y-40350574D03*
X196213925Y-40350574D03*
D21*
X191993924Y-40350574D03*
X185193926Y-40350574D03*
D22*
X183093925Y-40350574D03*
D23*
X183818925Y-40350574D03*
D24*
X193368925Y-40350574D03*
D25*
X194093925Y-40350574D03*
D20*
X180973925Y-42890573D03*
X196213925Y-42890573D03*
D21*
X191993924Y-42890574D03*
X185193926Y-42890574D03*
D22*
X183093925Y-42890574D03*
D23*
X183818926Y-42890575D03*
D24*
X193368924Y-42890575D03*
D25*
X194093925Y-42890574D03*
D20*
X180973925Y-45430574D03*
X196213925Y-45430574D03*
D21*
X191993925Y-45430575D03*
X185193924Y-45430574D03*
D22*
X183093925Y-45430574D03*
D23*
X183818923Y-45430574D03*
D24*
X193368925Y-45430574D03*
D25*
X194093925Y-45430574D03*
D20*
X180973925Y-47970574D03*
X196213925Y-47970574D03*
D21*
X191993923Y-47970573D03*
X185193925Y-47970574D03*
D22*
X183093925Y-47970574D03*
D23*
X183818925Y-47970574D03*
D24*
X193368925Y-47970574D03*
D25*
X194093925Y-47970575D03*
D20*
X180973925Y-50510575D03*
X196213925Y-50510575D03*
D21*
X191993925Y-50510574D03*
X185193925Y-50510574D03*
D22*
X183093925Y-50510574D03*
D23*
X183818925Y-50510573D03*
D24*
X193368925Y-50510573D03*
D25*
X194093925Y-50510574D03*
D20*
X180973925Y-53050574D03*
X196213925Y-53050574D03*
D21*
X191993925Y-53050574D03*
X185193925Y-53050574D03*
D22*
X183093925Y-53050574D03*
D23*
X183818925Y-53050574D03*
D24*
X193368926Y-53050574D03*
D25*
X194093925Y-53050574D03*
D20*
X180973924Y-55590574D03*
X196213926Y-55590573D03*
D21*
X191993925Y-55590574D03*
X185193925Y-55590574D03*
D22*
X183093925Y-55590574D03*
D23*
X183818924Y-55590574D03*
D24*
X193368926Y-55590574D03*
D25*
X194093925Y-55590574D03*
%TD*%
D26*
%TO.C,DISP1*%
X183513928Y-60800574D03*
X186053928Y-60800573D03*
X191133928Y-60800574D03*
X193673928Y-60800573D03*
X183513929Y-61700573D03*
X186053929Y-61700573D03*
X191133928Y-61700573D03*
X193673928Y-61700572D03*
D27*
X183513928Y-59050573D03*
X186053927Y-59050573D03*
X188593928Y-59050573D03*
X191133929Y-59050573D03*
D20*
X193673928Y-59050573D03*
%TD*%
D28*
%TO.C,RST1*%
X168300172Y-22812641D03*
X168101831Y-24501032D03*
X163086027Y-22200120D03*
X162887686Y-23888511D03*
%TD*%
D29*
%TO.C,PWR1*%
X148100107Y-19807412D03*
X147842265Y-22002319D03*
X155092411Y-22854015D03*
X155350253Y-20659107D03*
D30*
X153626136Y-23336237D03*
X150646624Y-22986224D03*
X149156868Y-22811219D03*
D31*
X150107087Y-21150742D03*
X153086599Y-21500754D03*
%TD*%
D32*
%TO.C,JST1*%
X136593929Y-107350576D03*
X136593929Y-109350576D03*
D33*
X134793929Y-107350574D03*
X134793929Y-109350577D03*
D34*
X133777929Y-107350576D03*
X133777929Y-109350576D03*
%TD*%
D35*
%TO.C,_1*%
X98760652Y-35017299D03*
D36*
X97593926Y-33850573D03*
D35*
X97593925Y-35500573D03*
X98760652Y-32683847D03*
X95943926Y-33850572D03*
X96427200Y-32683847D03*
X96427200Y-35017299D03*
X99243926Y-33850574D03*
X97593927Y-32200573D03*
%TD*%
%TO.C,_2*%
X110760654Y-107017302D03*
D36*
X109593928Y-105850576D03*
D35*
X109593927Y-107500576D03*
X110760654Y-104683850D03*
X107943928Y-105850575D03*
X108427202Y-104683850D03*
X108427202Y-107017302D03*
X111243928Y-105850577D03*
X109593929Y-104200576D03*
%TD*%
%TO.C,_3*%
X177760652Y-26517301D03*
D36*
X176593926Y-25350575D03*
D35*
X176593925Y-27000575D03*
X177760652Y-24183849D03*
X174943926Y-25350574D03*
X175427200Y-24183849D03*
X175427200Y-26517301D03*
X178243926Y-25350576D03*
X176593927Y-23700575D03*
%TD*%
%TO.C,_4*%
X205760653Y-100517302D03*
D36*
X204593927Y-99350576D03*
D35*
X204593926Y-101000576D03*
X205760653Y-98183850D03*
X202943927Y-99350575D03*
X203427201Y-98183850D03*
X203427201Y-100517302D03*
X206243927Y-99350577D03*
X204593928Y-97700576D03*
%TD*%
M02*
