M48
; DRILL file {KiCad 8.0.5-dirty} date 2024-10-12T09:21:43-0500
; FORMAT={-:-/ absolute / inch / decimal}
; #@! TF.CreationDate,2024-10-12T09:21:43-05:00
; #@! TF.GenerationSoftware,Kicad,Pcbnew,8.0.5-dirty
; #@! TF.FileFunction,Plated,1,2,PTH
FMAT,2
INCH
; #@! TA.AperFunction,Plated,PTH,ViaDrill
T1C0.0157
; #@! TA.AperFunction,Plated,PTH,ComponentDrill
T2C0.0157
; #@! TA.AperFunction,Plated,PTH,ComponentDrill
T3C0.0295
; #@! TA.AperFunction,Plated,PTH,ComponentDrill
T4C0.0390
; #@! TA.AperFunction,Plated,PTH,ComponentDrill
T5C0.0394
; #@! TA.AperFunction,Plated,PTH,ComponentDrill
T6C0.0866
%
G90
G05
T1
X3.8433Y-3.0087
X3.8433Y-1.6701
X3.8443Y-2.3375
X3.8443Y-3.6761
X4.552Y-1.178
X4.552Y-2.5166
X4.553Y-3.1839
X4.553Y-1.8453
X5.1925Y-4.268
X5.2319Y-4.268
X5.2606Y-0.9812
X5.2606Y-2.3198
X5.2616Y-1.6485
X5.2616Y-2.9871
X5.4921Y-3.5787
X5.7279Y-0.953
X5.9673Y-3.9725
X5.9693Y-2.5166
X5.9693Y-1.178
X5.9703Y-1.8453
X5.9703Y-3.1839
X5.9742Y-0.9753
X6.518Y-0.9522
X6.5258Y-0.8857
X6.5984Y-3.7323
X6.6759Y-3.9725
X6.678Y-1.2961
X6.678Y-2.6347
X6.679Y-3.302
X6.679Y-1.9635
X7.2758Y-2.2785
X7.3307Y-2.0394
X7.3307Y-2.1417
X7.3348Y-1.7391
X7.424Y-2.6339
X7.425Y-3.3012
X7.4254Y-2.4281
X7.4254Y-2.3887
X7.4766Y-1.6407
X7.5138Y-4.0813
X7.5868Y-2.2509
X8.2846Y-4.3955
T2
X3.7773Y-1.3327
X3.7963Y-1.2868
X3.7963Y-1.3786
X3.8423Y-1.3977
X3.8423Y-1.2677
X3.8882Y-1.2868
X3.8882Y-1.3786
X3.9072Y-1.3327
X4.2498Y-4.1673
X4.2688Y-4.1214
X4.2688Y-4.2133
X4.3147Y-4.2323
X4.3147Y-4.1024
X4.3607Y-4.1214
X4.3607Y-4.2133
X4.3797Y-4.1673
X6.8876Y-0.9981
X6.9066Y-0.9521
X6.9066Y-1.044
X6.9525Y-1.063
X6.9525Y-0.9331
X6.9985Y-0.9521
X6.9985Y-1.044
X7.0175Y-0.9981
X7.2911Y-1.7886
X7.2911Y-1.0886
X7.2911Y-1.1886
X7.2911Y-1.3886
X7.2911Y-1.8886
X7.2911Y-1.9886
X7.2911Y-2.0886
X7.2911Y-2.1886
X7.2911Y-1.4886
X7.2911Y-1.5886
X7.2911Y-1.6886
X7.2911Y-1.2886
X7.5588Y-1.8886
X7.5588Y-1.4886
X7.5588Y-1.5886
X7.5588Y-1.6886
X7.5588Y-1.0886
X7.5588Y-1.1886
X7.5588Y-1.2886
X7.5588Y-1.7886
X7.5588Y-1.9886
X7.5588Y-2.0886
X7.5588Y-2.1886
X7.5588Y-1.3886
X7.9899Y-3.9114
X8.0089Y-3.8655
X8.0089Y-3.9574
X8.0549Y-3.9764
X8.0549Y-3.8465
X8.1008Y-3.8655
X8.1008Y-3.9574
X8.1198Y-3.9114
T3
X5.3777Y-4.2264
X5.3777Y-4.3051
T4
X3.6923Y-2.002
X3.6923Y-4.0099
X3.6923Y-2.6713
X3.6923Y-3.3406
X3.9923Y-2.002
X3.9923Y-4.0099
X3.9923Y-2.6713
X3.9923Y-3.3406
X4.4009Y-3.5177
X4.4009Y-1.5099
X4.4009Y-2.1792
X4.4009Y-2.8484
X4.7009Y-3.5177
X4.7009Y-1.5099
X4.7009Y-2.1792
X4.7009Y-2.8484
X5.1096Y-2.6516
X5.1096Y-3.3209
X5.1096Y-1.313
X5.1096Y-1.9823
X5.4096Y-2.6516
X5.4096Y-3.3209
X5.4096Y-1.313
X5.4096Y-1.9823
X5.8183Y-2.8484
X5.8183Y-3.5177
X5.8183Y-4.3051
X5.8183Y-2.1792
X5.8183Y-1.5099
X6.1183Y-2.8484
X6.1183Y-3.5177
X6.1183Y-4.3051
X6.1183Y-2.1792
X6.1183Y-1.5099
X6.5269Y-2.2973
X6.5269Y-1.628
X6.5269Y-3.6358
X6.5269Y-2.9666
X6.5269Y-4.3051
X6.8269Y-2.2973
X6.8269Y-1.628
X6.8269Y-3.6358
X6.8269Y-2.9666
X6.8269Y-4.3051
X7.275Y-2.9666
X7.275Y-3.6358
X7.2835Y-4.3662
X7.5732Y-4.4439
X7.575Y-2.9666
X7.575Y-3.6358
X7.9873Y-4.6076
X8.2471Y-4.7576
T5
X7.125Y-2.1886
X7.125Y-1.0886
X7.125Y-1.1886
X7.125Y-1.2886
X7.125Y-1.3886
X7.125Y-1.4886
X7.125Y-1.5886
X7.125Y-1.6886
X7.125Y-1.7886
X7.125Y-1.8886
X7.125Y-1.9886
X7.125Y-2.0886
X7.225Y-2.3248
X7.325Y-2.3248
X7.425Y-2.3248
X7.525Y-2.3248
X7.625Y-2.3248
X7.725Y-1.0886
X7.725Y-1.1886
X7.725Y-1.2886
X7.725Y-1.3886
X7.725Y-1.4886
X7.725Y-1.5886
X7.725Y-1.6886
X7.725Y-1.7886
X7.725Y-1.8886
X7.725Y-1.9886
X7.725Y-2.0886
X7.725Y-2.1886
T6
X3.8423Y-1.3327
X4.3147Y-4.1673
X6.9525Y-0.9981
X8.0549Y-3.9114
M30
