M48
; DRILL file {KiCad 8.0.4} date 2024-09-01T12:29:05-0500
; FORMAT={-:-/ absolute / inch / decimal}
; #@! TF.CreationDate,2024-09-01T12:29:05-05:00
; #@! TF.GenerationSoftware,Kicad,Pcbnew,8.0.4
; #@! TF.FileFunction,NonPlated,1,2,NPTH
FMAT,2
INCH
; #@! TA.AperFunction,NonPlated,NPTH,ComponentDrill
T1C0.0354
; #@! TA.AperFunction,NonPlated,NPTH,ComponentDrill
T2C0.0670
; #@! TA.AperFunction,NonPlated,NPTH,ComponentDrill
T3C0.1181
; #@! TA.AperFunction,NonPlated,NPTH,ComponentDrill
T4C0.1350
%
G90
G05
T1
X5.9097Y-0.8327
X6.027Y-0.8465
T2
X3.6257Y-1.8051
X3.6257Y-3.1437
X3.6257Y-3.813
X3.6257Y-2.4744
X4.0588Y-1.8051
X4.0588Y-3.1437
X4.0588Y-3.813
X4.0588Y-2.4744
X4.3344Y-1.9823
X4.3344Y-3.3209
X4.3344Y-1.313
X4.3344Y-2.6516
X4.7675Y-1.9823
X4.7675Y-3.3209
X4.7675Y-1.313
X4.7675Y-2.6516
X5.0431Y-3.124
X5.0431Y-1.1162
X5.0431Y-1.7855
X5.0431Y-2.4547
X5.4761Y-3.124
X5.4761Y-1.1162
X5.4761Y-1.7855
X5.4761Y-2.4547
X5.7517Y-1.9823
X5.7517Y-2.6516
X5.7517Y-3.3209
X5.7517Y-4.1083
X5.7517Y-1.313
X6.1848Y-1.9823
X6.1848Y-2.6516
X6.1848Y-3.3209
X6.1848Y-4.1083
X6.1848Y-1.313
X6.4604Y-2.1004
X6.4604Y-2.7697
X6.4604Y-1.4311
X6.4604Y-3.439
X6.4604Y-4.1083
X6.8935Y-2.1004
X6.8935Y-2.7697
X6.8935Y-1.4311
X6.8935Y-3.439
X6.8935Y-4.1083
X7.2084Y-3.439
X7.2084Y-2.7697
X7.2701Y-4.1589
X7.6415Y-3.439
X7.6415Y-2.7697
X7.6885Y-4.271
X8.0281Y-4.4038
X8.4031Y-4.6204
T3
X3.6454Y-1.6575
X3.6454Y-2.9961
X3.6454Y-3.6654
X3.6454Y-2.3268
X3.8423Y-1.5709
X3.8423Y-2.9095
X3.8423Y-3.5788
X3.8423Y-2.2402
X4.0391Y-1.6575
X4.0391Y-2.9961
X4.0391Y-3.6654
X4.0391Y-2.3268
X4.3541Y-1.8347
X4.3541Y-3.1733
X4.3541Y-1.1654
X4.3541Y-2.504
X4.5509Y-1.7481
X4.5509Y-3.0866
X4.5509Y-1.0788
X4.5509Y-2.4173
X4.7478Y-1.8347
X4.7478Y-3.1733
X4.7478Y-1.1654
X4.7478Y-2.504
X5.0628Y-2.9764
X5.0628Y-0.9685
X5.0628Y-1.6378
X5.0628Y-2.3071
X5.2596Y-2.8898
X5.2596Y-0.8819
X5.2596Y-1.5512
X5.2596Y-2.2205
X5.4565Y-2.9764
X5.4565Y-0.9685
X5.4565Y-1.6378
X5.4565Y-2.3071
X5.7714Y-1.8347
X5.7714Y-2.504
X5.7714Y-3.1733
X5.7714Y-3.9607
X5.7714Y-1.1654
X5.9683Y-1.7481
X5.9683Y-2.4173
X5.9683Y-3.0866
X5.9683Y-3.874
X5.9683Y-1.0788
X6.1651Y-1.8347
X6.1651Y-2.504
X6.1651Y-3.1733
X6.1651Y-3.9607
X6.1651Y-1.1654
X6.4801Y-1.9528
X6.4801Y-2.6221
X6.4801Y-1.2835
X6.4801Y-3.2914
X6.4801Y-3.9607
X6.6769Y-1.8662
X6.6769Y-2.5355
X6.6769Y-1.1969
X6.6769Y-3.2047
X6.6769Y-3.874
X6.8738Y-1.9528
X6.8738Y-2.6221
X6.8738Y-1.2835
X6.8738Y-3.2914
X6.8738Y-3.9607
X7.2281Y-3.2914
X7.2281Y-2.6221
X7.3274Y-4.0214
X7.425Y-3.2047
X7.425Y-2.5355
X7.5399Y-3.9886
X7.6218Y-3.2914
X7.6218Y-2.6221
X7.7076Y-4.1233
X8.119Y-4.2858
X8.3327Y-4.3092
X8.4599Y-4.4827
T4
X3.8423Y-1.8051
X3.8423Y-3.1437
X3.8423Y-3.813
X3.8423Y-2.4744
X4.5509Y-1.9823
X4.5509Y-3.3209
X4.5509Y-1.313
X4.5509Y-2.6516
X5.2596Y-3.124
X5.2596Y-1.1162
X5.2596Y-1.7855
X5.2596Y-2.4547
X5.9683Y-1.9823
X5.9683Y-2.6516
X5.9683Y-3.3209
X5.9683Y-4.1083
X5.9683Y-1.313
X6.6769Y-2.1004
X6.6769Y-2.7697
X6.6769Y-1.4311
X6.6769Y-3.439
X6.6769Y-4.1083
X7.425Y-3.439
X7.425Y-2.7697
X7.4793Y-4.2149
X8.2156Y-4.5121
M30
