0
SECTION
2
HEADER
9
$INSUNITS
70
4
0
ENDSEC
0
SECTION
2
TABLES
0
TABLE
2
LTYPE
0
LTYPE
72
65
70
64
2
CONTINUOUS
3
______
73
0
40
0
0
ENDTAB
0
TABLE
2
LAYER
0
ENDTAB
0
ENDSEC
0
SECTION
2
ENTITIES
0
LINE
8
0
10
91.25
20
-108.25
11
108.75
21
-108.25
0
LINE
8
0
10
108.75
20
-108.25
11
108.75
21
-91.75
0
LINE
8
0
10
108.75
20
-91.75
11
91.25
21
-91.75
0
LINE
8
0
10
91.25
20
-91.75
11
91.25
21
-108.25
0
LINE
8
0
10
91.25
20
-91.25
11
108.75
21
-91.25
0
LINE
8
0
10
108.75
20
-91.25
11
108.75
21
-74.75
0
LINE
8
0
10
108.75
20
-74.75
11
91.25
21
-74.75
0
LINE
8
0
10
91.25
20
-74.75
11
91.25
21
-91.25
0
LINE
8
0
10
91.25
20
-74.25
11
108.75
21
-74.25
0
LINE
8
0
10
108.75
20
-74.25
11
108.75
21
-57.75
0
LINE
8
0
10
108.75
20
-57.75
11
91.25
21
-57.75
0
LINE
8
0
10
91.25
20
-57.75
11
91.25
21
-74.25
0
LINE
8
0
10
91.25
20
-57.25
11
108.75
21
-57.25
0
LINE
8
0
10
108.75
20
-57.25
11
108.75
21
-40.75
0
LINE
8
0
10
108.75
20
-40.75
11
91.25
21
-40.75
0
LINE
8
0
10
91.25
20
-40.75
11
91.25
21
-57.25
0
LINE
8
0
10
109.25
20
-95.75
11
126.75
21
-95.75
0
LINE
8
0
10
126.75
20
-95.75
11
126.75
21
-79.25
0
LINE
8
0
10
126.75
20
-79.25
11
109.25
21
-79.25
0
LINE
8
0
10
109.25
20
-79.25
11
109.25
21
-95.75
0
LINE
8
0
10
109.25
20
-78.75
11
126.75
21
-78.75
0
LINE
8
0
10
126.75
20
-78.75
11
126.75
21
-62.25
0
LINE
8
0
10
126.75
20
-62.25
11
109.25
21
-62.25
0
LINE
8
0
10
109.25
20
-62.25
11
109.25
21
-78.75
0
LINE
8
0
10
109.25
20
-61.75
11
126.75
21
-61.75
0
LINE
8
0
10
126.75
20
-61.75
11
126.75
21
-45.25
0
LINE
8
0
10
126.75
20
-45.25
11
109.25
21
-45.25
0
LINE
8
0
10
109.25
20
-45.25
11
109.25
21
-61.75
0
LINE
8
0
10
109.25
20
-44.75
11
126.75
21
-44.75
0
LINE
8
0
10
126.75
20
-44.75
11
126.75
21
-28.25
0
LINE
8
0
10
126.75
20
-28.25
11
109.25
21
-28.25
0
LINE
8
0
10
109.25
20
-28.25
11
109.25
21
-44.75
0
LINE
8
0
10
127.25
20
-90.75
11
144.75
21
-90.75
0
LINE
8
0
10
144.75
20
-90.75
11
144.75
21
-74.25
0
LINE
8
0
10
144.75
20
-74.25
11
127.25
21
-74.25
0
LINE
8
0
10
127.25
20
-74.25
11
127.25
21
-90.75
0
LINE
8
0
10
127.25
20
-73.75
11
144.75
21
-73.75
0
LINE
8
0
10
144.75
20
-73.75
11
144.75
21
-57.25
0
LINE
8
0
10
144.75
20
-57.25
11
127.25
21
-57.25
0
LINE
8
0
10
127.25
20
-57.25
11
127.25
21
-73.75
0
LINE
8
0
10
127.25
20
-56.75
11
144.75
21
-56.75
0
LINE
8
0
10
144.75
20
-56.75
11
144.75
21
-40.25
0
LINE
8
0
10
144.75
20
-40.25
11
127.25
21
-40.25
0
LINE
8
0
10
127.25
20
-40.25
11
127.25
21
-56.75
0
LINE
8
0
10
127.25
20
-39.75
11
144.75
21
-39.75
0
LINE
8
0
10
144.75
20
-39.75
11
144.75
21
-23.25
0
LINE
8
0
10
144.75
20
-23.25
11
127.25
21
-23.25
0
LINE
8
0
10
127.25
20
-23.25
11
127.25
21
-39.75
0
LINE
8
0
10
145.25
20
-95.75
11
162.75
21
-95.75
0
LINE
8
0
10
162.75
20
-95.75
11
162.75
21
-79.25
0
LINE
8
0
10
162.75
20
-79.25
11
145.25
21
-79.25
0
LINE
8
0
10
145.25
20
-79.25
11
145.25
21
-95.75
0
LINE
8
0
10
145.25
20
-78.75
11
162.75
21
-78.75
0
LINE
8
0
10
162.75
20
-78.75
11
162.75
21
-62.25
0
LINE
8
0
10
162.75
20
-62.25
11
145.25
21
-62.25
0
LINE
8
0
10
145.25
20
-62.25
11
145.25
21
-78.75
0
LINE
8
0
10
145.25
20
-61.75
11
162.75
21
-61.75
0
LINE
8
0
10
162.75
20
-61.75
11
162.75
21
-45.25
0
LINE
8
0
10
162.75
20
-45.25
11
145.25
21
-45.25
0
LINE
8
0
10
145.25
20
-45.25
11
145.25
21
-61.75
0
LINE
8
0
10
145.25
20
-44.75
11
162.75
21
-44.75
0
LINE
8
0
10
162.75
20
-44.75
11
162.75
21
-28.25
0
LINE
8
0
10
162.75
20
-28.25
11
145.25
21
-28.25
0
LINE
8
0
10
145.25
20
-28.25
11
145.25
21
-44.75
0
LINE
8
0
10
163.25
20
-98.75
11
180.75
21
-98.75
0
LINE
8
0
10
180.75
20
-98.75
11
180.75
21
-82.25
0
LINE
8
0
10
180.75
20
-82.25
11
163.25
21
-82.25
0
LINE
8
0
10
163.25
20
-82.25
11
163.25
21
-98.75
0
LINE
8
0
10
163.25
20
-81.75
11
180.75
21
-81.75
0
LINE
8
0
10
180.75
20
-81.75
11
180.75
21
-65.25
0
LINE
8
0
10
180.75
20
-65.25
11
163.25
21
-65.25
0
LINE
8
0
10
163.25
20
-65.25
11
163.25
21
-81.75
0
LINE
8
0
10
163.25
20
-64.75
11
180.75
21
-64.75
0
LINE
8
0
10
180.75
20
-64.75
11
180.75
21
-48.25
0
LINE
8
0
10
180.75
20
-48.25
11
163.25
21
-48.25
0
LINE
8
0
10
163.25
20
-48.25
11
163.25
21
-64.75
0
LINE
8
0
10
163.25
20
-47.75
11
180.75
21
-47.75
0
LINE
8
0
10
180.75
20
-47.75
11
180.75
21
-31.25
0
LINE
8
0
10
180.75
20
-31.25
11
163.25
21
-31.25
0
LINE
8
0
10
163.25
20
-31.25
11
163.25
21
-47.75
0
LINE
8
0
10
181.25
20
-98.75
11
198.75
21
-98.75
0
LINE
8
0
10
198.75
20
-98.75
11
198.75
21
-82.25
0
LINE
8
0
10
198.75
20
-82.25
11
181.25
21
-82.25
0
LINE
8
0
10
181.25
20
-82.25
11
181.25
21
-98.75
0
LINE
8
0
10
181.25
20
-81.75
11
198.75
21
-81.75
0
LINE
8
0
10
198.75
20
-81.75
11
198.75
21
-65.25
0
LINE
8
0
10
198.75
20
-65.25
11
181.25
21
-65.25
0
LINE
8
0
10
181.25
20
-65.25
11
181.25
21
-81.75
0
LINE
8
0
10
145.25
20
-115.75
11
162.75
21
-115.75
0
LINE
8
0
10
162.75
20
-115.75
11
162.75
21
-99.25
0
LINE
8
0
10
162.75
20
-99.25
11
145.25
21
-99.25
0
LINE
8
0
10
145.25
20
-99.25
11
145.25
21
-115.75
0
LINE
8
0
10
163.25
20
-115.75
11
180.75
21
-115.75
0
LINE
8
0
10
180.75
20
-115.75
11
180.75
21
-99.25
0
LINE
8
0
10
180.75
20
-99.25
11
163.25
21
-99.25
0
LINE
8
0
10
163.25
20
-99.25
11
163.25
21
-115.75
0
LINE
8
0
10
181.7930313
20
-115.9125302
11
198.6967333
21
-120.4418635
0
LINE
8
0
10
198.6967333
20
-120.4418635
11
202.9672475
21
-104.5040874
0
LINE
8
0
10
202.9672475
20
-104.5040874
11
186.0635455
21
-99.9747541
0
LINE
8
0
10
186.0635455
20
-99.9747541
11
181.7930313
21
-115.9125302
0
LINE
8
0
10
199.380095
20
-120.5265286
11
214.5355396
21
-129.2765286
0
LINE
8
0
10
214.5355396
20
-129.2765286
11
222.7855396
21
-114.9871094
0
LINE
8
0
10
222.7855396
20
-114.9871094
11
207.630095
21
-106.2371094
0
LINE
8
0
10
207.630095
20
-106.2371094
11
199.380095
21
-120.5265286
0
ENDSEC
0
EOF