0
SECTION
2
HEADER
9
$INSUNITS
70
4
0
ENDSEC
0
SECTION
2
TABLES
0
TABLE
2
LTYPE
0
LTYPE
72
65
70
64
2
CONTINUOUS
3
______
73
0
40
0
0
ENDTAB
0
TABLE
2
LAYER
0
ENDTAB
0
ENDSEC
0
SECTION
2
ENTITIES
0
LINE
8
0
10
89
20
-110.5
11
111
21
-110.5
0
LINE
8
0
10
111
20
-110.5
11
111
21
-98
0
LINE
8
0
10
89
20
-110.5
11
89
21
-38.5
0
LINE
8
0
10
107
20
-38.5
11
89
21
-38.5
0
LINE
8
0
10
111
20
-98
11
129
21
-98
0
LINE
8
0
10
129
20
-98
11
129
21
-93
0
LINE
8
0
10
125
20
-26
11
107
21
-26
0
LINE
8
0
10
107
20
-26
11
107
21
-38.5
0
LINE
8
0
10
129
20
-93
11
143
21
-93
0
LINE
8
0
10
147
20
-26
11
147
21
-21
0
LINE
8
0
10
147
20
-21
11
125
21
-21
0
LINE
8
0
10
125
20
-21
11
125
21
-26
0
LINE
8
0
10
143
20
-118
11
143
21
-93
0
LINE
8
0
10
165
20
-29
11
165
21
-26
0
LINE
8
0
10
165
20
-26
11
147
21
-26
0
LINE
8
0
10
183
20
-63
11
183
21
-29
0
LINE
8
0
10
183
20
-29
11
165
21
-29
0
LINE
8
0
10
183
20
-101
11
183.4594603
21
-101
0
LINE
8
0
10
198.5831479
20
-101
11
202
21
-101
0
LINE
8
0
10
202
20
-101
11
202
21
-63
0
LINE
8
0
10
202
20
-63
11
183
21
-63
0
LINE
8
0
10
143
20
-118
11
180.890242
21
-118
0
LINE
8
0
10
183
20
-102.7147293
11
183
21
-101
0
LINE
8
0
10
180.890242
20
-118
11
198.8297946
21
-122.8068886
0
LINE
8
0
10
204.6592583
20
-106.8827497
11
205.7229235
21
-102.9130971
0
LINE
8
0
10
205.7229235
20
-102.9130971
11
198.5831479
21
-101
0
LINE
8
0
10
183.4594603
20
-101
11
183
21
-102.7147293
0
LINE
8
0
10
198.8297946
20
-122.8068886
11
215.3590967
21
-132.3500857
0
LINE
8
0
10
215.3590967
20
-132.3500857
11
225.8590967
21
-114.1635523
0
LINE
8
0
10
225.8590967
20
-114.1635523
11
206.8065379
21
-103.1635523
0
LINE
8
0
10
206.8065379
20
-103.1635523
11
204.6592583
21
-106.8827497
0
ENDSEC
0
EOF