0
SECTION
2
HEADER
9
$INSUNITS
70
4
0
ENDSEC
0
SECTION
2
TABLES
0
TABLE
2
LTYPE
0
LTYPE
72
65
70
64
2
CONTINUOUS
3
______
73
0
40
0
0
ENDTAB
0
TABLE
2
LAYER
0
ENDTAB
0
ENDSEC
0
SECTION
2
ENTITIES
0
LINE
8
0
10
93.1
20
-106.9
11
106.9
21
-106.9
0
LINE
8
0
10
106.9
20
-106.9
11
106.9
21
-93.1
0
LINE
8
0
10
106.9
20
-93.1
11
93.1
21
-93.1
0
LINE
8
0
10
93.1
20
-93.1
11
93.1
21
-106.9
0
LINE
8
0
10
93.1
20
-89.9
11
106.9
21
-89.9
0
LINE
8
0
10
106.9
20
-89.9
11
106.9
21
-76.1
0
LINE
8
0
10
106.9
20
-76.1
11
93.1
21
-76.1
0
LINE
8
0
10
93.1
20
-76.1
11
93.1
21
-89.9
0
LINE
8
0
10
93.1
20
-72.9
11
106.9
21
-72.9
0
LINE
8
0
10
106.9
20
-72.9
11
106.9
21
-59.1
0
LINE
8
0
10
106.9
20
-59.1
11
93.1
21
-59.1
0
LINE
8
0
10
93.1
20
-59.1
11
93.1
21
-72.9
0
LINE
8
0
10
93.1
20
-55.9
11
106.9
21
-55.9
0
LINE
8
0
10
106.9
20
-55.9
11
106.9
21
-42.1
0
LINE
8
0
10
106.9
20
-42.1
11
93.1
21
-42.1
0
LINE
8
0
10
93.1
20
-42.1
11
93.1
21
-55.9
0
LINE
8
0
10
111.1
20
-94.4
11
124.9
21
-94.4
0
LINE
8
0
10
124.9
20
-94.4
11
124.9
21
-80.6
0
LINE
8
0
10
124.9
20
-80.6
11
111.1
21
-80.6
0
LINE
8
0
10
111.1
20
-80.6
11
111.1
21
-94.4
0
LINE
8
0
10
111.1
20
-77.4
11
124.9
21
-77.4
0
LINE
8
0
10
124.9
20
-77.4
11
124.9
21
-63.6
0
LINE
8
0
10
124.9
20
-63.6
11
111.1
21
-63.6
0
LINE
8
0
10
111.1
20
-63.6
11
111.1
21
-77.4
0
LINE
8
0
10
111.1
20
-60.4
11
124.9
21
-60.4
0
LINE
8
0
10
124.9
20
-60.4
11
124.9
21
-46.6
0
LINE
8
0
10
124.9
20
-46.6
11
111.1
21
-46.6
0
LINE
8
0
10
111.1
20
-46.6
11
111.1
21
-60.4
0
LINE
8
0
10
111.1
20
-43.4
11
124.9
21
-43.4
0
LINE
8
0
10
124.9
20
-43.4
11
124.9
21
-29.6
0
LINE
8
0
10
124.9
20
-29.6
11
111.1
21
-29.6
0
LINE
8
0
10
111.1
20
-29.6
11
111.1
21
-43.4
0
LINE
8
0
10
129.1
20
-89.4
11
142.9
21
-89.4
0
LINE
8
0
10
142.9
20
-89.4
11
142.9
21
-75.6
0
LINE
8
0
10
142.9
20
-75.6
11
129.1
21
-75.6
0
LINE
8
0
10
129.1
20
-75.6
11
129.1
21
-89.4
0
LINE
8
0
10
129.1
20
-72.4
11
142.9
21
-72.4
0
LINE
8
0
10
142.9
20
-72.4
11
142.9
21
-58.6
0
LINE
8
0
10
142.9
20
-58.6
11
129.1
21
-58.6
0
LINE
8
0
10
129.1
20
-58.6
11
129.1
21
-72.4
0
LINE
8
0
10
129.1
20
-55.4
11
142.9
21
-55.4
0
LINE
8
0
10
142.9
20
-55.4
11
142.9
21
-41.6
0
LINE
8
0
10
142.9
20
-41.6
11
129.1
21
-41.6
0
LINE
8
0
10
129.1
20
-41.6
11
129.1
21
-55.4
0
LINE
8
0
10
129.1
20
-38.4
11
142.9
21
-38.4
0
LINE
8
0
10
142.9
20
-38.4
11
142.9
21
-24.6
0
LINE
8
0
10
142.9
20
-24.6
11
129.1
21
-24.6
0
LINE
8
0
10
129.1
20
-24.6
11
129.1
21
-38.4
0
LINE
8
0
10
147.1
20
-94.4
11
160.9
21
-94.4
0
LINE
8
0
10
160.9
20
-94.4
11
160.9
21
-80.6
0
LINE
8
0
10
160.9
20
-80.6
11
147.1
21
-80.6
0
LINE
8
0
10
147.1
20
-80.6
11
147.1
21
-94.4
0
LINE
8
0
10
147.1
20
-77.4
11
160.9
21
-77.4
0
LINE
8
0
10
160.9
20
-77.4
11
160.9
21
-63.6
0
LINE
8
0
10
160.9
20
-63.6
11
147.1
21
-63.6
0
LINE
8
0
10
147.1
20
-63.6
11
147.1
21
-77.4
0
LINE
8
0
10
147.1
20
-60.4
11
160.9
21
-60.4
0
LINE
8
0
10
160.9
20
-60.4
11
160.9
21
-46.6
0
LINE
8
0
10
160.9
20
-46.6
11
147.1
21
-46.6
0
LINE
8
0
10
147.1
20
-46.6
11
147.1
21
-60.4
0
LINE
8
0
10
147.1
20
-43.4
11
160.9
21
-43.4
0
LINE
8
0
10
160.9
20
-43.4
11
160.9
21
-29.6
0
LINE
8
0
10
160.9
20
-29.6
11
147.1
21
-29.6
0
LINE
8
0
10
147.1
20
-29.6
11
147.1
21
-43.4
0
LINE
8
0
10
165.1
20
-97.4
11
178.9
21
-97.4
0
LINE
8
0
10
178.9
20
-97.4
11
178.9
21
-83.6
0
LINE
8
0
10
178.9
20
-83.6
11
165.1
21
-83.6
0
LINE
8
0
10
165.1
20
-83.6
11
165.1
21
-97.4
0
LINE
8
0
10
165.1
20
-80.4
11
178.9
21
-80.4
0
LINE
8
0
10
178.9
20
-80.4
11
178.9
21
-66.6
0
LINE
8
0
10
178.9
20
-66.6
11
165.1
21
-66.6
0
LINE
8
0
10
165.1
20
-66.6
11
165.1
21
-80.4
0
LINE
8
0
10
165.1
20
-63.4
11
178.9
21
-63.4
0
LINE
8
0
10
178.9
20
-63.4
11
178.9
21
-49.6
0
LINE
8
0
10
178.9
20
-49.6
11
165.1
21
-49.6
0
LINE
8
0
10
165.1
20
-49.6
11
165.1
21
-63.4
0
LINE
8
0
10
165.1
20
-46.4
11
178.9
21
-46.4
0
LINE
8
0
10
178.9
20
-46.4
11
178.9
21
-32.6
0
LINE
8
0
10
178.9
20
-32.6
11
165.1
21
-32.6
0
LINE
8
0
10
165.1
20
-32.6
11
165.1
21
-46.4
0
LINE
8
0
10
184.1
20
-97.4
11
197.9
21
-97.4
0
LINE
8
0
10
197.9
20
-97.4
11
197.9
21
-83.6
0
LINE
8
0
10
197.9
20
-83.6
11
184.1
21
-83.6
0
LINE
8
0
10
184.1
20
-83.6
11
184.1
21
-97.4
0
LINE
8
0
10
184.1
20
-80.4
11
197.9
21
-80.4
0
LINE
8
0
10
197.9
20
-80.4
11
197.9
21
-66.6
0
LINE
8
0
10
197.9
20
-66.6
11
184.1
21
-66.6
0
LINE
8
0
10
184.1
20
-66.6
11
184.1
21
-80.4
0
LINE
8
0
10
147.1
20
-114.4
11
160.9
21
-114.4
0
LINE
8
0
10
160.9
20
-114.4
11
160.9
21
-100.6
0
LINE
8
0
10
160.9
20
-100.6
11
147.1
21
-100.6
0
LINE
8
0
10
147.1
20
-100.6
11
147.1
21
-114.4
0
LINE
8
0
10
165.1
20
-114.4
11
178.9
21
-114.4
0
LINE
8
0
10
178.9
20
-114.4
11
178.9
21
-100.6
0
LINE
8
0
10
178.9
20
-100.6
11
165.1
21
-100.6
0
LINE
8
0
10
165.1
20
-100.6
11
165.1
21
-114.4
0
LINE
8
0
10
183.9293998
20
-115.0873456
11
197.2591762
21
-118.6590484
0
LINE
8
0
10
197.2591762
20
-118.6590484
11
200.830879
21
-105.329272
0
LINE
8
0
10
200.830879
20
-105.329272
11
187.5011026
21
-101.7575692
0
LINE
8
0
10
187.5011026
20
-101.7575692
11
183.9293998
21
-115.0873456
0
LINE
8
0
10
201.657242
20
-120.2823943
11
213.6083926
21
-127.1823943
0
LINE
8
0
10
213.6083926
20
-127.1823943
11
220.5083926
21
-115.2312437
0
LINE
8
0
10
220.5083926
20
-115.2312437
11
208.557242
21
-108.3312437
0
LINE
8
0
10
208.557242
20
-108.3312437
11
201.657242
21
-120.2823943
0
ENDSEC
0
EOF