0
SECTION
2
HEADER
9
$INSUNITS
70
4
0
ENDSEC
0
SECTION
2
TABLES
0
TABLE
2
LTYPE
0
LTYPE
72
65
70
64
2
CONTINUOUS
3
______
73
0
40
0
0
ENDTAB
0
TABLE
2
LAYER
0
ENDTAB
0
ENDSEC
0
SECTION
2
ENTITIES
0
LINE
8
0
10
92.5
20
-107.5
11
107.5
21
-107.5
0
LINE
8
0
10
107.5
20
-107.5
11
107.5
21
-92.5
0
LINE
8
0
10
107.5
20
-92.5
11
92.5
21
-92.5
0
LINE
8
0
10
92.5
20
-92.5
11
92.5
21
-107.5
0
LINE
8
0
10
92.5
20
-90.5
11
107.5
21
-90.5
0
LINE
8
0
10
107.5
20
-90.5
11
107.5
21
-75.5
0
LINE
8
0
10
107.5
20
-75.5
11
92.5
21
-75.5
0
LINE
8
0
10
92.5
20
-75.5
11
92.5
21
-90.5
0
LINE
8
0
10
92.5
20
-73.5
11
107.5
21
-73.5
0
LINE
8
0
10
107.5
20
-73.5
11
107.5
21
-58.5
0
LINE
8
0
10
107.5
20
-58.5
11
92.5
21
-58.5
0
LINE
8
0
10
92.5
20
-58.5
11
92.5
21
-73.5
0
LINE
8
0
10
92.5
20
-56.5
11
107.5
21
-56.5
0
LINE
8
0
10
107.5
20
-56.5
11
107.5
21
-41.5
0
LINE
8
0
10
107.5
20
-41.5
11
92.5
21
-41.5
0
LINE
8
0
10
92.5
20
-41.5
11
92.5
21
-56.5
0
LINE
8
0
10
110.5
20
-95
11
125.5
21
-95
0
LINE
8
0
10
125.5
20
-95
11
125.5
21
-80
0
LINE
8
0
10
125.5
20
-80
11
110.5
21
-80
0
LINE
8
0
10
110.5
20
-80
11
110.5
21
-95
0
LINE
8
0
10
110.5
20
-78
11
125.5
21
-78
0
LINE
8
0
10
125.5
20
-78
11
125.5
21
-63
0
LINE
8
0
10
125.5
20
-63
11
110.5
21
-63
0
LINE
8
0
10
110.5
20
-63
11
110.5
21
-78
0
LINE
8
0
10
110.5
20
-61
11
125.5
21
-61
0
LINE
8
0
10
125.5
20
-61
11
125.5
21
-46
0
LINE
8
0
10
125.5
20
-46
11
110.5
21
-46
0
LINE
8
0
10
110.5
20
-46
11
110.5
21
-61
0
LINE
8
0
10
110.5
20
-44
11
125.5
21
-44
0
LINE
8
0
10
125.5
20
-44
11
125.5
21
-29
0
LINE
8
0
10
125.5
20
-29
11
110.5
21
-29
0
LINE
8
0
10
110.5
20
-29
11
110.5
21
-44
0
LINE
8
0
10
128.5
20
-90
11
143.5
21
-90
0
LINE
8
0
10
143.5
20
-90
11
143.5
21
-75
0
LINE
8
0
10
143.5
20
-75
11
128.5
21
-75
0
LINE
8
0
10
128.5
20
-75
11
128.5
21
-90
0
LINE
8
0
10
128.5
20
-73
11
143.5
21
-73
0
LINE
8
0
10
143.5
20
-73
11
143.5
21
-58
0
LINE
8
0
10
143.5
20
-58
11
128.5
21
-58
0
LINE
8
0
10
128.5
20
-58
11
128.5
21
-73
0
LINE
8
0
10
128.5
20
-56
11
143.5
21
-56
0
LINE
8
0
10
143.5
20
-56
11
143.5
21
-41
0
LINE
8
0
10
143.5
20
-41
11
128.5
21
-41
0
LINE
8
0
10
128.5
20
-41
11
128.5
21
-56
0
LINE
8
0
10
128.5
20
-39
11
143.5
21
-39
0
LINE
8
0
10
143.5
20
-39
11
143.5
21
-24
0
LINE
8
0
10
143.5
20
-24
11
128.5
21
-24
0
LINE
8
0
10
128.5
20
-24
11
128.5
21
-39
0
LINE
8
0
10
146.5
20
-95
11
161.5
21
-95
0
LINE
8
0
10
161.5
20
-95
11
161.5
21
-80
0
LINE
8
0
10
161.5
20
-80
11
146.5
21
-80
0
LINE
8
0
10
146.5
20
-80
11
146.5
21
-95
0
LINE
8
0
10
146.5
20
-78
11
161.5
21
-78
0
LINE
8
0
10
161.5
20
-78
11
161.5
21
-63
0
LINE
8
0
10
161.5
20
-63
11
146.5
21
-63
0
LINE
8
0
10
146.5
20
-63
11
146.5
21
-78
0
LINE
8
0
10
146.5
20
-61
11
161.5
21
-61
0
LINE
8
0
10
161.5
20
-61
11
161.5
21
-46
0
LINE
8
0
10
161.5
20
-46
11
146.5
21
-46
0
LINE
8
0
10
146.5
20
-46
11
146.5
21
-61
0
LINE
8
0
10
146.5
20
-44
11
161.5
21
-44
0
LINE
8
0
10
161.5
20
-44
11
161.5
21
-29
0
LINE
8
0
10
161.5
20
-29
11
146.5
21
-29
0
LINE
8
0
10
146.5
20
-29
11
146.5
21
-44
0
LINE
8
0
10
164.5
20
-98
11
179.5
21
-98
0
LINE
8
0
10
179.5
20
-98
11
179.5
21
-83
0
LINE
8
0
10
179.5
20
-83
11
164.5
21
-83
0
LINE
8
0
10
164.5
20
-83
11
164.5
21
-98
0
LINE
8
0
10
164.5
20
-81
11
179.5
21
-81
0
LINE
8
0
10
179.5
20
-81
11
179.5
21
-66
0
LINE
8
0
10
179.5
20
-66
11
164.5
21
-66
0
LINE
8
0
10
164.5
20
-66
11
164.5
21
-81
0
LINE
8
0
10
164.5
20
-64
11
179.5
21
-64
0
LINE
8
0
10
179.5
20
-64
11
179.5
21
-49
0
LINE
8
0
10
179.5
20
-49
11
164.5
21
-49
0
LINE
8
0
10
164.5
20
-49
11
164.5
21
-64
0
LINE
8
0
10
164.5
20
-47
11
179.5
21
-47
0
LINE
8
0
10
179.5
20
-47
11
179.5
21
-32
0
LINE
8
0
10
179.5
20
-32
11
164.5
21
-32
0
LINE
8
0
10
164.5
20
-32
11
164.5
21
-47
0
LINE
8
0
10
182.5
20
-98
11
197.5
21
-98
0
LINE
8
0
10
197.5
20
-98
11
197.5
21
-83
0
LINE
8
0
10
197.5
20
-83
11
182.5
21
-83
0
LINE
8
0
10
182.5
20
-83
11
182.5
21
-98
0
LINE
8
0
10
182.5
20
-81
11
197.5
21
-81
0
LINE
8
0
10
197.5
20
-81
11
197.5
21
-66
0
LINE
8
0
10
197.5
20
-66
11
182.5
21
-66
0
LINE
8
0
10
182.5
20
-66
11
182.5
21
-81
0
LINE
8
0
10
146.5
20
-115
11
161.5
21
-115
0
LINE
8
0
10
161.5
20
-115
11
161.5
21
-100
0
LINE
8
0
10
161.5
20
-100
11
146.5
21
-100
0
LINE
8
0
10
146.5
20
-100
11
146.5
21
-115
0
LINE
8
0
10
164.5
20
-115
11
179.5
21
-115
0
LINE
8
0
10
179.5
20
-115
11
179.5
21
-100
0
LINE
8
0
10
179.5
20
-100
11
164.5
21
-100
0
LINE
8
0
10
164.5
20
-100
11
164.5
21
-115
0
LINE
8
0
10
183.1945529
20
-115.5116097
11
197.6834403
21
-119.3938953
0
LINE
8
0
10
197.6834403
20
-119.3938953
11
201.5657259
21
-104.9050079
0
LINE
8
0
10
201.5657259
20
-104.9050079
11
187.0768385
21
-101.0227223
0
LINE
8
0
10
187.0768385
20
-101.0227223
11
183.1945529
21
-115.5116097
0
LINE
8
0
10
200.8376268
20
-120.5020095
11
213.8280078
21
-128.0020095
0
LINE
8
0
10
213.8280078
20
-128.0020095
11
221.3280078
21
-115.0116285
0
LINE
8
0
10
221.3280078
20
-115.0116285
11
208.3376268
21
-107.5116285
0
LINE
8
0
10
208.3376268
20
-107.5116285
11
200.8376268
21
-120.5020095
0
ENDSEC
0
EOF