0
SECTION
2
HEADER
9
$INSUNITS
70
4
0
ENDSEC
0
SECTION
2
TABLES
0
TABLE
2
LTYPE
0
LTYPE
72
65
70
64
2
CONTINUOUS
3
______
73
0
40
0
0
ENDTAB
0
TABLE
2
LAYER
0
ENDTAB
0
ENDSEC
0
SECTION
2
ENTITIES
0
LINE
8
0
10
89
20
-107.8878697
11
89
21
-40.0691011
0
LINE
8
0
10
90.2888126
20
-37.6049912
11
106.5820388
21
-26.2902508
0
LINE
8
0
10
107.4902945
20
-25.8638071
11
124.6059932
21
-21.1094463
0
LINE
8
0
10
125.4089249
20
-21
11
146.8255916
21
-21
0
LINE
8
0
10
147.1732337
20
-21.0202106
11
198.3476421
21
-26.9905582
0
LINE
8
0
10
201
20
-29.9703476
11
201
21
-62.3097675
0
LINE
8
0
10
201.3016461
20
-63.6208305
11
225.1632543
21
-112.7314098
0
LINE
8
0
10
225.0629766
20
-115.5424728
11
216.4333322
21
-130.4894553
0
LINE
8
0
10
213.2516686
20
-131.9321455
11
143.0850252
21
-118.016862
0
LINE
8
0
10
142.9141431
20
-117.9880754
11
91.5872948
21
-110.8593465
0
ARC
8
0
10
92
20
-40.0691011
40
3
50
124.7778298
51
180
0
ARC
8
0
10
108.2932261
20
-28.7543608
40
3
50
105.5241131
51
124.7778298
0
ARC
8
0
10
125.4089249
20
-24
40
3
50
90
51
105.5241131
0
ARC
8
0
10
146.8255916
20
-24
40
3
50
83.3455747
51
90
0
ARC
8
0
10
198
20
-29.9703476
40
3
50
0
51
83.3455747
0
ARC
8
0
10
204
20
-62.3097675
40
3
50
180
51
205.9139632
0
ARC
8
0
10
222.4649004
20
-114.0424728
40
3
50
329.9999999
51
25.9139632
0
ARC
8
0
10
213.835256
20
-128.9894553
40
3
50
258.7827832
51
329.9999999
0
ARC
8
0
10
142.5014379
20
-120.9595522
40
3
50
78.7827832
51
82.0928359
0
ARC
8
0
10
92
20
-107.8878697
40
3
50
180
51
262.0928359
0
LINE
8
0
10
93.1
20
-106.9
11
106.9
21
-106.9
0
LINE
8
0
10
106.9
20
-106.9
11
106.9
21
-93.1
0
LINE
8
0
10
106.9
20
-93.1
11
93.1
21
-93.1
0
LINE
8
0
10
93.1
20
-93.1
11
93.1
21
-106.9
0
LINE
8
0
10
93.1
20
-89.9
11
106.9
21
-89.9
0
LINE
8
0
10
106.9
20
-89.9
11
106.9
21
-76.1
0
LINE
8
0
10
106.9
20
-76.1
11
93.1
21
-76.1
0
LINE
8
0
10
93.1
20
-76.1
11
93.1
21
-89.9
0
LINE
8
0
10
93.1
20
-72.9
11
106.9
21
-72.9
0
LINE
8
0
10
106.9
20
-72.9
11
106.9
21
-59.1
0
LINE
8
0
10
106.9
20
-59.1
11
93.1
21
-59.1
0
LINE
8
0
10
93.1
20
-59.1
11
93.1
21
-72.9
0
LINE
8
0
10
93.1
20
-55.9
11
106.9
21
-55.9
0
LINE
8
0
10
106.9
20
-55.9
11
106.9
21
-42.1
0
LINE
8
0
10
106.9
20
-42.1
11
93.1
21
-42.1
0
LINE
8
0
10
93.1
20
-42.1
11
93.1
21
-55.9
0
LINE
8
0
10
111.1
20
-94.4
11
124.9
21
-94.4
0
LINE
8
0
10
124.9
20
-94.4
11
124.9
21
-80.6
0
LINE
8
0
10
124.9
20
-80.6
11
111.1
21
-80.6
0
LINE
8
0
10
111.1
20
-80.6
11
111.1
21
-94.4
0
LINE
8
0
10
111.1
20
-77.4
11
124.9
21
-77.4
0
LINE
8
0
10
124.9
20
-77.4
11
124.9
21
-63.6
0
LINE
8
0
10
124.9
20
-63.6
11
111.1
21
-63.6
0
LINE
8
0
10
111.1
20
-63.6
11
111.1
21
-77.4
0
LINE
8
0
10
111.1
20
-60.4
11
124.9
21
-60.4
0
LINE
8
0
10
124.9
20
-60.4
11
124.9
21
-46.6
0
LINE
8
0
10
124.9
20
-46.6
11
111.1
21
-46.6
0
LINE
8
0
10
111.1
20
-46.6
11
111.1
21
-60.4
0
LINE
8
0
10
111.1
20
-43.4
11
124.9
21
-43.4
0
LINE
8
0
10
124.9
20
-43.4
11
124.9
21
-29.6
0
LINE
8
0
10
124.9
20
-29.6
11
111.1
21
-29.6
0
LINE
8
0
10
111.1
20
-29.6
11
111.1
21
-43.4
0
LINE
8
0
10
129.1
20
-89.4
11
142.9
21
-89.4
0
LINE
8
0
10
142.9
20
-89.4
11
142.9
21
-75.6
0
LINE
8
0
10
142.9
20
-75.6
11
129.1
21
-75.6
0
LINE
8
0
10
129.1
20
-75.6
11
129.1
21
-89.4
0
LINE
8
0
10
129.1
20
-72.4
11
142.9
21
-72.4
0
LINE
8
0
10
142.9
20
-72.4
11
142.9
21
-58.6
0
LINE
8
0
10
142.9
20
-58.6
11
129.1
21
-58.6
0
LINE
8
0
10
129.1
20
-58.6
11
129.1
21
-72.4
0
LINE
8
0
10
129.1
20
-55.4
11
142.9
21
-55.4
0
LINE
8
0
10
142.9
20
-55.4
11
142.9
21
-41.6
0
LINE
8
0
10
142.9
20
-41.6
11
129.1
21
-41.6
0
LINE
8
0
10
129.1
20
-41.6
11
129.1
21
-55.4
0
LINE
8
0
10
129.1
20
-38.4
11
142.9
21
-38.4
0
LINE
8
0
10
142.9
20
-38.4
11
142.9
21
-24.6
0
LINE
8
0
10
142.9
20
-24.6
11
129.1
21
-24.6
0
LINE
8
0
10
129.1
20
-24.6
11
129.1
21
-38.4
0
LINE
8
0
10
147.1
20
-94.4
11
160.9
21
-94.4
0
LINE
8
0
10
160.9
20
-94.4
11
160.9
21
-80.6
0
LINE
8
0
10
160.9
20
-80.6
11
147.1
21
-80.6
0
LINE
8
0
10
147.1
20
-80.6
11
147.1
21
-94.4
0
LINE
8
0
10
147.1
20
-77.4
11
160.9
21
-77.4
0
LINE
8
0
10
160.9
20
-77.4
11
160.9
21
-63.6
0
LINE
8
0
10
160.9
20
-63.6
11
147.1
21
-63.6
0
LINE
8
0
10
147.1
20
-63.6
11
147.1
21
-77.4
0
LINE
8
0
10
147.1
20
-60.4
11
160.9
21
-60.4
0
LINE
8
0
10
160.9
20
-60.4
11
160.9
21
-46.6
0
LINE
8
0
10
160.9
20
-46.6
11
147.1
21
-46.6
0
LINE
8
0
10
147.1
20
-46.6
11
147.1
21
-60.4
0
LINE
8
0
10
147.1
20
-43.4
11
160.9
21
-43.4
0
LINE
8
0
10
160.9
20
-43.4
11
160.9
21
-29.6
0
LINE
8
0
10
160.9
20
-29.6
11
147.1
21
-29.6
0
LINE
8
0
10
147.1
20
-29.6
11
147.1
21
-43.4
0
LINE
8
0
10
165.1
20
-97.4
11
178.9
21
-97.4
0
LINE
8
0
10
178.9
20
-97.4
11
178.9
21
-83.6
0
LINE
8
0
10
178.9
20
-83.6
11
165.1
21
-83.6
0
LINE
8
0
10
165.1
20
-83.6
11
165.1
21
-97.4
0
LINE
8
0
10
165.1
20
-80.4
11
178.9
21
-80.4
0
LINE
8
0
10
178.9
20
-80.4
11
178.9
21
-66.6
0
LINE
8
0
10
178.9
20
-66.6
11
165.1
21
-66.6
0
LINE
8
0
10
165.1
20
-66.6
11
165.1
21
-80.4
0
LINE
8
0
10
165.1
20
-63.4
11
178.9
21
-63.4
0
LINE
8
0
10
178.9
20
-63.4
11
178.9
21
-49.6
0
LINE
8
0
10
178.9
20
-49.6
11
165.1
21
-49.6
0
LINE
8
0
10
165.1
20
-49.6
11
165.1
21
-63.4
0
LINE
8
0
10
165.1
20
-46.4
11
178.9
21
-46.4
0
LINE
8
0
10
178.9
20
-46.4
11
178.9
21
-32.6
0
LINE
8
0
10
178.9
20
-32.6
11
165.1
21
-32.6
0
LINE
8
0
10
165.1
20
-32.6
11
165.1
21
-46.4
0
LINE
8
0
10
183.1
20
-97.4
11
196.9
21
-97.4
0
LINE
8
0
10
196.9
20
-97.4
11
196.9
21
-83.6
0
LINE
8
0
10
196.9
20
-83.6
11
183.1
21
-83.6
0
LINE
8
0
10
183.1
20
-83.6
11
183.1
21
-97.4
0
LINE
8
0
10
183.1
20
-80.4
11
196.9
21
-80.4
0
LINE
8
0
10
196.9
20
-80.4
11
196.9
21
-66.6
0
LINE
8
0
10
196.9
20
-66.6
11
183.1
21
-66.6
0
LINE
8
0
10
183.1
20
-66.6
11
183.1
21
-80.4
0
LINE
8
0
10
147.1
20
-114.4
11
160.9
21
-114.4
0
LINE
8
0
10
160.9
20
-114.4
11
160.9
21
-100.6
0
LINE
8
0
10
160.9
20
-100.6
11
147.1
21
-100.6
0
LINE
8
0
10
147.1
20
-100.6
11
147.1
21
-114.4
0
LINE
8
0
10
165.1
20
-114.4
11
178.9
21
-114.4
0
LINE
8
0
10
178.9
20
-114.4
11
178.9
21
-100.6
0
LINE
8
0
10
178.9
20
-100.6
11
165.1
21
-100.6
0
LINE
8
0
10
165.1
20
-100.6
11
165.1
21
-114.4
0
LINE
8
0
10
183.9293998
20
-115.0873456
11
197.2591762
21
-118.6590484
0
LINE
8
0
10
197.2591762
20
-118.6590484
11
200.830879
21
-105.329272
0
LINE
8
0
10
200.830879
20
-105.329272
11
187.5011026
21
-101.7575692
0
LINE
8
0
10
187.5011026
20
-101.7575692
11
183.9293998
21
-115.0873456
0
LINE
8
0
10
201.657242
20
-120.2823943
11
213.6083926
21
-127.1823943
0
LINE
8
0
10
213.6083926
20
-127.1823943
11
220.5083926
21
-115.2312437
0
LINE
8
0
10
220.5083926
20
-115.2312437
11
208.557242
21
-108.3312437
0
LINE
8
0
10
208.557242
20
-108.3312437
11
201.657242
21
-120.2823943
0
CIRCLE
8
0
10
100
20
-37
40
1.5
0
CIRCLE
8
0
10
112
20
-109
40
1.5
0
CIRCLE
8
0
10
179
20
-28.5
40
1.5
0
CIRCLE
8
0
10
206
20
-102.5
40
1.5
0
LINE
8
0
10
184
20
-64.5
11
198
21
-64.5
0
LINE
8
0
10
198
20
-64.5
11
198
21
-28.5
0
LINE
8
0
10
198
20
-28.5
11
184
21
-28.5
0
LINE
8
0
10
184
20
-28.5
11
184
21
-64.5
0
ENDSEC
0
EOF