0
SECTION
2
HEADER
9
$INSUNITS
70
4
0
ENDSEC
0
SECTION
2
TABLES
0
TABLE
2
LTYPE
0
LTYPE
72
65
70
64
2
CONTINUOUS
3
______
73
0
40
0
0
ENDTAB
0
TABLE
2
LAYER
0
ENDTAB
0
ENDSEC
0
SECTION
2
ENTITIES
0
LINE
8
0
10
89
20
-107.8878697
11
89
21
-40.0691011
0
LINE
8
0
10
90.2888126
20
-37.6049912
11
106.5820388
21
-26.2902508
0
LINE
8
0
10
107.4902945
20
-25.8638071
11
124.6059932
21
-21.1094463
0
LINE
8
0
10
125.4089249
20
-21
11
146.8255916
21
-21
0
LINE
8
0
10
147.1732337
20
-21.0202106
11
198.3476421
21
-26.9905582
0
LINE
8
0
10
201
20
-29.9703476
11
201
21
-62.3097675
0
LINE
8
0
10
201.3016461
20
-63.6208305
11
225.1632543
21
-112.7314098
0
LINE
8
0
10
225.0629766
20
-115.5424728
11
216.4333322
21
-130.4894553
0
LINE
8
0
10
213.2516686
20
-131.9321455
11
143.0850252
21
-118.016862
0
LINE
8
0
10
142.9141431
20
-117.9880754
11
91.5872948
21
-110.8593465
0
ARC
8
0
10
92
20
-40.0691011
40
3
50
124.7778298
51
180
0
ARC
8
0
10
108.2932261
20
-28.7543608
40
3
50
105.5241131
51
124.7778298
0
ARC
8
0
10
125.4089249
20
-24
40
3
50
90
51
105.5241131
0
ARC
8
0
10
146.8255916
20
-24
40
3
50
83.3455747
51
90
0
ARC
8
0
10
198
20
-29.9703476
40
3
50
0
51
83.3455747
0
ARC
8
0
10
204
20
-62.3097675
40
3
50
180
51
205.9139632
0
ARC
8
0
10
222.4649004
20
-114.0424728
40
3
50
329.9999999
51
25.9139632
0
ARC
8
0
10
213.835256
20
-128.9894553
40
3
50
258.7827832
51
329.9999999
0
ARC
8
0
10
142.5014379
20
-120.9595522
40
3
50
78.7827832
51
82.0928359
0
ARC
8
0
10
92
20
-107.8878697
40
3
50
180
51
262.0928359
0
LINE
8
0
10
92.5
20
-107.5
11
107.5
21
-107.5
0
LINE
8
0
10
107.5
20
-107.5
11
107.5
21
-92.5
0
LINE
8
0
10
107.5
20
-92.5
11
92.5
21
-92.5
0
LINE
8
0
10
92.5
20
-92.5
11
92.5
21
-107.5
0
LINE
8
0
10
92.5
20
-90.5
11
107.5
21
-90.5
0
LINE
8
0
10
107.5
20
-90.5
11
107.5
21
-75.5
0
LINE
8
0
10
107.5
20
-75.5
11
92.5
21
-75.5
0
LINE
8
0
10
92.5
20
-75.5
11
92.5
21
-90.5
0
LINE
8
0
10
92.5
20
-73.5
11
107.5
21
-73.5
0
LINE
8
0
10
107.5
20
-73.5
11
107.5
21
-58.5
0
LINE
8
0
10
107.5
20
-58.5
11
92.5
21
-58.5
0
LINE
8
0
10
92.5
20
-58.5
11
92.5
21
-73.5
0
LINE
8
0
10
92.5
20
-56.5
11
107.5
21
-56.5
0
LINE
8
0
10
107.5
20
-56.5
11
107.5
21
-41.5
0
LINE
8
0
10
107.5
20
-41.5
11
92.5
21
-41.5
0
LINE
8
0
10
92.5
20
-41.5
11
92.5
21
-56.5
0
LINE
8
0
10
110.5
20
-95
11
125.5
21
-95
0
LINE
8
0
10
125.5
20
-95
11
125.5
21
-80
0
LINE
8
0
10
125.5
20
-80
11
110.5
21
-80
0
LINE
8
0
10
110.5
20
-80
11
110.5
21
-95
0
LINE
8
0
10
110.5
20
-78
11
125.5
21
-78
0
LINE
8
0
10
125.5
20
-78
11
125.5
21
-63
0
LINE
8
0
10
125.5
20
-63
11
110.5
21
-63
0
LINE
8
0
10
110.5
20
-63
11
110.5
21
-78
0
LINE
8
0
10
110.5
20
-61
11
125.5
21
-61
0
LINE
8
0
10
125.5
20
-61
11
125.5
21
-46
0
LINE
8
0
10
125.5
20
-46
11
110.5
21
-46
0
LINE
8
0
10
110.5
20
-46
11
110.5
21
-61
0
LINE
8
0
10
110.5
20
-44
11
125.5
21
-44
0
LINE
8
0
10
125.5
20
-44
11
125.5
21
-29
0
LINE
8
0
10
125.5
20
-29
11
110.5
21
-29
0
LINE
8
0
10
110.5
20
-29
11
110.5
21
-44
0
LINE
8
0
10
128.5
20
-90
11
143.5
21
-90
0
LINE
8
0
10
143.5
20
-90
11
143.5
21
-75
0
LINE
8
0
10
143.5
20
-75
11
128.5
21
-75
0
LINE
8
0
10
128.5
20
-75
11
128.5
21
-90
0
LINE
8
0
10
128.5
20
-73
11
143.5
21
-73
0
LINE
8
0
10
143.5
20
-73
11
143.5
21
-58
0
LINE
8
0
10
143.5
20
-58
11
128.5
21
-58
0
LINE
8
0
10
128.5
20
-58
11
128.5
21
-73
0
LINE
8
0
10
128.5
20
-56
11
143.5
21
-56
0
LINE
8
0
10
143.5
20
-56
11
143.5
21
-41
0
LINE
8
0
10
143.5
20
-41
11
128.5
21
-41
0
LINE
8
0
10
128.5
20
-41
11
128.5
21
-56
0
LINE
8
0
10
128.5
20
-39
11
143.5
21
-39
0
LINE
8
0
10
143.5
20
-39
11
143.5
21
-24
0
LINE
8
0
10
143.5
20
-24
11
128.5
21
-24
0
LINE
8
0
10
128.5
20
-24
11
128.5
21
-39
0
LINE
8
0
10
146.5
20
-95
11
161.5
21
-95
0
LINE
8
0
10
161.5
20
-95
11
161.5
21
-80
0
LINE
8
0
10
161.5
20
-80
11
146.5
21
-80
0
LINE
8
0
10
146.5
20
-80
11
146.5
21
-95
0
LINE
8
0
10
146.5
20
-78
11
161.5
21
-78
0
LINE
8
0
10
161.5
20
-78
11
161.5
21
-63
0
LINE
8
0
10
161.5
20
-63
11
146.5
21
-63
0
LINE
8
0
10
146.5
20
-63
11
146.5
21
-78
0
LINE
8
0
10
146.5
20
-61
11
161.5
21
-61
0
LINE
8
0
10
161.5
20
-61
11
161.5
21
-46
0
LINE
8
0
10
161.5
20
-46
11
146.5
21
-46
0
LINE
8
0
10
146.5
20
-46
11
146.5
21
-61
0
LINE
8
0
10
146.5
20
-44
11
161.5
21
-44
0
LINE
8
0
10
161.5
20
-44
11
161.5
21
-29
0
LINE
8
0
10
161.5
20
-29
11
146.5
21
-29
0
LINE
8
0
10
146.5
20
-29
11
146.5
21
-44
0
LINE
8
0
10
164.5
20
-98
11
179.5
21
-98
0
LINE
8
0
10
179.5
20
-98
11
179.5
21
-83
0
LINE
8
0
10
179.5
20
-83
11
164.5
21
-83
0
LINE
8
0
10
164.5
20
-83
11
164.5
21
-98
0
LINE
8
0
10
164.5
20
-81
11
179.5
21
-81
0
LINE
8
0
10
179.5
20
-81
11
179.5
21
-66
0
LINE
8
0
10
179.5
20
-66
11
164.5
21
-66
0
LINE
8
0
10
164.5
20
-66
11
164.5
21
-81
0
LINE
8
0
10
164.5
20
-64
11
179.5
21
-64
0
LINE
8
0
10
179.5
20
-64
11
179.5
21
-49
0
LINE
8
0
10
179.5
20
-49
11
164.5
21
-49
0
LINE
8
0
10
164.5
20
-49
11
164.5
21
-64
0
LINE
8
0
10
164.5
20
-47
11
179.5
21
-47
0
LINE
8
0
10
179.5
20
-47
11
179.5
21
-32
0
LINE
8
0
10
179.5
20
-32
11
164.5
21
-32
0
LINE
8
0
10
164.5
20
-32
11
164.5
21
-47
0
LINE
8
0
10
182.5
20
-98
11
197.5
21
-98
0
LINE
8
0
10
197.5
20
-98
11
197.5
21
-83
0
LINE
8
0
10
197.5
20
-83
11
182.5
21
-83
0
LINE
8
0
10
182.5
20
-83
11
182.5
21
-98
0
LINE
8
0
10
182.5
20
-81
11
197.5
21
-81
0
LINE
8
0
10
197.5
20
-81
11
197.5
21
-66
0
LINE
8
0
10
197.5
20
-66
11
182.5
21
-66
0
LINE
8
0
10
182.5
20
-66
11
182.5
21
-81
0
LINE
8
0
10
146.5
20
-115
11
161.5
21
-115
0
LINE
8
0
10
161.5
20
-115
11
161.5
21
-100
0
LINE
8
0
10
161.5
20
-100
11
146.5
21
-100
0
LINE
8
0
10
146.5
20
-100
11
146.5
21
-115
0
LINE
8
0
10
164.5
20
-115
11
179.5
21
-115
0
LINE
8
0
10
179.5
20
-115
11
179.5
21
-100
0
LINE
8
0
10
179.5
20
-100
11
164.5
21
-100
0
LINE
8
0
10
164.5
20
-100
11
164.5
21
-115
0
LINE
8
0
10
183.1945529
20
-115.5116097
11
197.6834403
21
-119.3938953
0
LINE
8
0
10
197.6834403
20
-119.3938953
11
201.5657259
21
-104.9050079
0
LINE
8
0
10
201.5657259
20
-104.9050079
11
187.0768385
21
-101.0227223
0
LINE
8
0
10
187.0768385
20
-101.0227223
11
183.1945529
21
-115.5116097
0
LINE
8
0
10
200.8376268
20
-120.5020095
11
213.8280078
21
-128.0020095
0
LINE
8
0
10
213.8280078
20
-128.0020095
11
221.3280078
21
-115.0116285
0
LINE
8
0
10
221.3280078
20
-115.0116285
11
208.3376268
21
-107.5116285
0
LINE
8
0
10
208.3376268
20
-107.5116285
11
200.8376268
21
-120.5020095
0
CIRCLE
8
0
10
100
20
-37
40
1.5
0
CIRCLE
8
0
10
112
20
-109
40
1.5
0
CIRCLE
8
0
10
179
20
-28.5
40
1.5
0
CIRCLE
8
0
10
206
20
-102.5
40
1.5
0
LINE
8
0
10
182
20
-63.5
11
200
21
-63.5
0
LINE
8
0
10
200
20
-63.5
11
200
21
-29.5
0
LINE
8
0
10
200
20
-29.5
11
182
21
-29.5
0
LINE
8
0
10
182
20
-29.5
11
182
21
-63.5
0
ENDSEC
0
EOF