<?xml version="1.0" standalone="no"?>
 <!DOCTYPE svg PUBLIC "-//W3C//DTD SVG 1.1//EN" 
 "http://www.w3.org/Graphics/SVG/1.1/DTD/svg11.dtd"> 
<svg
  xmlns:svg="http://www.w3.org/2000/svg"
  xmlns="http://www.w3.org/2000/svg"
  xmlns:xlink="http://www.w3.org/1999/xlink"
  version="1.1"
  width="136.6266mm" height="111.1250mm" viewBox="0.0000 0.0000 136.6266 111.1250">
<title>SVG Image created as sweeppp-brd.svg date 2024/11/05 14:58:17 </title>
  <desc>Image generated by PCBNEW </desc>
<g style="fill:#000000; fill-opacity:1.0000;stroke:#000000; stroke-opacity:1.0000;
stroke-linecap:round; stroke-linejoin:round;"
 transform="translate(0 0) scale(1 1)">
</g>
<g style="fill:none; 
stroke:#FF26E2; stroke-width:0.0500; stroke-opacity:1; 
stroke-linecap:round; stroke-linejoin:round;">
<circle cx="23.0750" cy="88.0790" r="2.4500" /> 
</g>
<g style="fill:none; 
stroke:#FF26E2; stroke-width:0.1500; stroke-opacity:1; 
stroke-linecap:round; stroke-linejoin:round;">
<path d="M95.2550 39.4790
L108.9550 39.4790
" />
<path d="M95.2550 43.0290
L95.2550 39.4790
" />
<path d="M108.9550 39.4790
L108.9550 43.0290
" />
<path d="M108.9550 43.0290
L95.2550 43.0290
" />
</g>
<g style="fill:none; 
stroke:#FF26E2; stroke-width:0.0500; stroke-opacity:1; 
stroke-linecap:round; stroke-linejoin:round;">
<circle cx="118.0750" cy="81.5790" r="2.4500" /> 
<circle cx="90.0750" cy="7.5790" r="2.4500" /> 
<circle cx="11.0750" cy="16.0790" r="2.4500" /> 
<path d="M39.5750 94.0290
L51.9250 94.0290
" />
<path d="M39.5750 87.1290
L39.5750 94.0290
" />
<path d="M51.9250 87.1290
L39.5750 87.1290
" />
<path d="M51.9250 94.0290
L51.9250 87.1290
" />
</g>
<g style="fill:none; 
stroke:#C2C2C2; stroke-width:0.1500; stroke-opacity:1; 
stroke-linecap:round; stroke-linejoin:round;">
<path d="M2.0750 70.5790
L20.0750 70.5790
" />
<path d="M2.0750 87.5790
L2.0750 70.5790
" />
<path d="M4.0750 73.0790
L4.0750 72.0790
" />
<path d="M4.0750 86.0790
L4.0750 85.0790
" />
<path d="M4.0750 86.0790
L5.0750 86.0790
" />
<path d="M5.0750 72.0790
L4.0750 72.0790
" />
<path d="M17.0750 86.0790
L18.0750 86.0790
" />
<path d="M18.0750 72.0790
L17.0750 72.0790
" />
<path d="M18.0750 72.0790
L18.0750 73.0790
" />
<path d="M18.0750 85.0790
L18.0750 86.0790
" />
<path d="M20.0750 70.5790
L20.0750 87.5790
" />
<path d="M20.0750 87.5790
L2.0750 87.5790
" />
<path d="M56.0750 78.0790
L74.0750 78.0790
" />
<path d="M56.0750 95.0790
L56.0750 78.0790
" />
<path d="M58.0750 80.5790
L58.0750 79.5790
" />
<path d="M58.0750 93.5790
L58.0750 92.5790
" />
<path d="M58.0750 93.5790
L59.0750 93.5790
" />
<path d="M59.0750 79.5790
L58.0750 79.5790
" />
<path d="M71.0750 93.5790
L72.0750 93.5790
" />
<path d="M72.0750 79.5790
L71.0750 79.5790
" />
<path d="M72.0750 79.5790
L72.0750 80.5790
" />
<path d="M72.0750 92.5790
L72.0750 93.5790
" />
<path d="M74.0750 78.0790
L74.0750 95.0790
" />
<path d="M74.0750 95.0790
L56.0750 95.0790
" />
<path d="M20.0750 41.0790
L38.0750 41.0790
" />
<path d="M20.0750 58.0790
L20.0750 41.0790
" />
<path d="M22.0750 43.5790
L22.0750 42.5790
" />
<path d="M22.0750 56.5790
L22.0750 55.5790
" />
<path d="M22.0750 56.5790
L23.0750 56.5790
" />
<path d="M23.0750 42.5790
L22.0750 42.5790
" />
<path d="M35.0750 56.5790
L36.0750 56.5790
" />
<path d="M36.0750 42.5790
L35.0750 42.5790
" />
<path d="M36.0750 42.5790
L36.0750 43.5790
" />
<path d="M36.0750 55.5790
L36.0750 56.5790
" />
<path d="M38.0750 41.0790
L38.0750 58.0790
" />
<path d="M38.0750 58.0790
L20.0750 58.0790
" />
<path d="M74.0750 44.0790
L92.0750 44.0790
" />
<path d="M74.0750 61.0790
L74.0750 44.0790
" />
<path d="M76.0750 46.5790
L76.0750 45.5790
" />
<path d="M76.0750 59.5790
L76.0750 58.5790
" />
<path d="M76.0750 59.5790
L77.0750 59.5790
" />
<path d="M77.0750 45.5790
L76.0750 45.5790
" />
<path d="M89.0750 59.5790
L90.0750 59.5790
" />
<path d="M90.0750 45.5790
L89.0750 45.5790
" />
<path d="M90.0750 45.5790
L90.0750 46.5790
" />
<path d="M90.0750 58.5790
L90.0750 59.5790
" />
<path d="M92.0750 44.0790
L92.0750 61.0790
" />
<path d="M92.0750 61.0790
L74.0750 61.0790
" />
<path d="M56.0750 24.0790
L74.0750 24.0790
" />
<path d="M56.0750 41.0790
L56.0750 24.0790
" />
<path d="M58.0750 26.5790
L58.0750 25.5790
" />
<path d="M58.0750 39.5790
L58.0750 38.5790
" />
<path d="M58.0750 39.5790
L59.0750 39.5790
" />
<path d="M59.0750 25.5790
L58.0750 25.5790
" />
<path d="M71.0750 39.5790
L72.0750 39.5790
" />
<path d="M72.0750 25.5790
L71.0750 25.5790
" />
<path d="M72.0750 25.5790
L72.0750 26.5790
" />
<path d="M72.0750 38.5790
L72.0750 39.5790
" />
<path d="M74.0750 24.0790
L74.0750 41.0790
" />
<path d="M74.0750 41.0790
L56.0750 41.0790
" />
<path d="M56.0750 41.0790
L74.0750 41.0790
" />
<path d="M56.0750 58.0790
L56.0750 41.0790
" />
<path d="M58.0750 43.5790
L58.0750 42.5790
" />
<path d="M58.0750 56.5790
L58.0750 55.5790
" />
<path d="M58.0750 56.5790
L59.0750 56.5790
" />
<path d="M59.0750 42.5790
L58.0750 42.5790
" />
<path d="M71.0750 56.5790
L72.0750 56.5790
" />
<path d="M72.0750 42.5790
L71.0750 42.5790
" />
<path d="M72.0750 42.5790
L72.0750 43.5790
" />
<path d="M72.0750 55.5790
L72.0750 56.5790
" />
<path d="M74.0750 41.0790
L74.0750 58.0790
" />
<path d="M74.0750 58.0790
L56.0750 58.0790
" />
<path d="M20.0750 24.0790
L38.0750 24.0790
" />
<path d="M20.0750 41.0790
L20.0750 24.0790
" />
<path d="M22.0750 26.5790
L22.0750 25.5790
" />
<path d="M22.0750 39.5790
L22.0750 38.5790
" />
<path d="M22.0750 39.5790
L23.0750 39.5790
" />
<path d="M23.0750 25.5790
L22.0750 25.5790
" />
<path d="M35.0750 39.5790
L36.0750 39.5790
" />
<path d="M36.0750 25.5790
L35.0750 25.5790
" />
<path d="M36.0750 25.5790
L36.0750 26.5790
" />
<path d="M36.0750 38.5790
L36.0750 39.5790
" />
<path d="M38.0750 24.0790
L38.0750 41.0790
" />
<path d="M38.0750 41.0790
L20.0750 41.0790
" />
<path d="M56.0750 58.0790
L74.0750 58.0790
" />
<path d="M56.0750 75.0790
L56.0750 58.0790
" />
<path d="M58.0750 60.5790
L58.0750 59.5790
" />
<path d="M58.0750 73.5790
L58.0750 72.5790
" />
<path d="M58.0750 73.5790
L59.0750 73.5790
" />
<path d="M59.0750 59.5790
L58.0750 59.5790
" />
<path d="M71.0750 73.5790
L72.0750 73.5790
" />
<path d="M72.0750 59.5790
L71.0750 59.5790
" />
<path d="M72.0750 59.5790
L72.0750 60.5790
" />
<path d="M72.0750 72.5790
L72.0750 73.5790
" />
<path d="M74.0750 58.0790
L74.0750 75.0790
" />
<path d="M74.0750 75.0790
L56.0750 75.0790
" />
<path d="M93.1850 6.0690
L93.1850 39.1490
" />
<path d="M93.1850 6.0690
L110.9650 6.0690
" />
<path d="M93.1850 39.1490
L110.9650 39.1490
" />
<path d="M98.2650 4.5450
L105.6310 4.5450
" />
<path d="M98.2650 6.0690
L98.2650 4.5450
" />
<path d="M105.6310 4.5450
L105.6310 6.0690
" />
<path d="M110.9650 6.0690
L110.9650 39.1490
" />
<path d="M74.0750 78.0790
L92.0750 78.0790
" />
<path d="M74.0750 95.0790
L74.0750 78.0790
" />
<path d="M76.0750 80.5790
L76.0750 79.5790
" />
<path d="M76.0750 93.5790
L76.0750 92.5790
" />
<path d="M76.0750 93.5790
L77.0750 93.5790
" />
<path d="M77.0750 79.5790
L76.0750 79.5790
" />
<path d="M89.0750 93.5790
L90.0750 93.5790
" />
<path d="M90.0750 79.5790
L89.0750 79.5790
" />
<path d="M90.0750 79.5790
L90.0750 80.5790
" />
<path d="M90.0750 92.5790
L90.0750 93.5790
" />
<path d="M92.0750 78.0790
L92.0750 95.0790
" />
<path d="M92.0750 95.0790
L74.0750 95.0790
" />
<path d="M20.0750 58.0790
L38.0750 58.0790
" />
<path d="M20.0750 75.0790
L20.0750 58.0790
" />
<path d="M22.0750 60.5790
L22.0750 59.5790
" />
<path d="M22.0750 73.5790
L22.0750 72.5790
" />
<path d="M22.0750 73.5790
L23.0750 73.5790
" />
<path d="M23.0750 59.5790
L22.0750 59.5790
" />
<path d="M35.0750 73.5790
L36.0750 73.5790
" />
<path d="M36.0750 59.5790
L35.0750 59.5790
" />
<path d="M36.0750 59.5790
L36.0750 60.5790
" />
<path d="M36.0750 72.5790
L36.0750 73.5790
" />
<path d="M38.0750 58.0790
L38.0750 75.0790
" />
<path d="M38.0750 75.0790
L20.0750 75.0790
" />
<path d="M74.0750 61.0790
L92.0750 61.0790
" />
<path d="M74.0750 78.0790
L74.0750 61.0790
" />
<path d="M76.0750 63.5790
L76.0750 62.5790
" />
<path d="M76.0750 76.5790
L76.0750 75.5790
" />
<path d="M76.0750 76.5790
L77.0750 76.5790
" />
<path d="M77.0750 62.5790
L76.0750 62.5790
" />
<path d="M89.0750 76.5790
L90.0750 76.5790
" />
<path d="M90.0750 62.5790
L89.0750 62.5790
" />
<path d="M90.0750 62.5790
L90.0750 63.5790
" />
<path d="M90.0750 75.5790
L90.0750 76.5790
" />
<path d="M92.0750 61.0790
L92.0750 78.0790
" />
<path d="M92.0750 78.0790
L74.0750 78.0790
" />
<path d="M2.0750 36.5790
L20.0750 36.5790
" />
<path d="M2.0750 53.5790
L2.0750 36.5790
" />
<path d="M4.0750 39.0790
L4.0750 38.0790
" />
<path d="M4.0750 52.0790
L4.0750 51.0790
" />
<path d="M4.0750 52.0790
L5.0750 52.0790
" />
<path d="M5.0750 38.0790
L4.0750 38.0790
" />
<path d="M17.0750 52.0790
L18.0750 52.0790
" />
<path d="M18.0750 38.0790
L17.0750 38.0790
" />
<path d="M18.0750 38.0790
L18.0750 39.0790
" />
<path d="M18.0750 51.0790
L18.0750 52.0790
" />
<path d="M20.0750 36.5790
L20.0750 53.5790
" />
<path d="M20.0750 53.5790
L2.0750 53.5790
" />
<path d="M2.0750 53.5790
L20.0750 53.5790
" />
<path d="M2.0750 70.5790
L2.0750 53.5790
" />
<path d="M4.0750 56.0790
L4.0750 55.0790
" />
<path d="M4.0750 69.0790
L4.0750 68.0790
" />
<path d="M4.0750 69.0790
L5.0750 69.0790
" />
<path d="M5.0750 55.0790
L4.0750 55.0790
" />
<path d="M17.0750 69.0790
L18.0750 69.0790
" />
<path d="M18.0750 55.0790
L17.0750 55.0790
" />
<path d="M18.0750 55.0790
L18.0750 56.0790
" />
<path d="M18.0750 68.0790
L18.0750 69.0790
" />
<path d="M20.0750 53.5790
L20.0750 70.5790
" />
<path d="M20.0750 70.5790
L2.0750 70.5790
" />
<path d="M38.0750 2.0790
L56.0750 2.0790
" />
<path d="M38.0750 19.0790
L38.0750 2.0790
" />
<path d="M40.0750 4.5790
L40.0750 3.5790
" />
<path d="M40.0750 17.5790
L40.0750 16.5790
" />
<path d="M40.0750 17.5790
L41.0750 17.5790
" />
<path d="M41.0750 3.5790
L40.0750 3.5790
" />
<path d="M53.0750 17.5790
L54.0750 17.5790
" />
<path d="M54.0750 3.5790
L53.0750 3.5790
" />
<path d="M54.0750 3.5790
L54.0750 4.5790
" />
<path d="M54.0750 16.5790
L54.0750 17.5790
" />
<path d="M56.0750 2.0790
L56.0750 19.0790
" />
<path d="M56.0750 19.0790
L38.0750 19.0790
" />
<path d="M92.5618 95.1683
L96.9618 78.7475
" />
<path d="M94.8819 94.2370
L95.1407 93.2711
" />
<path d="M94.8819 94.2370
L95.8479 94.4959
" />
<path d="M96.9618 78.7475
L114.3484 83.4063
" />
<path d="M98.2466 81.6800
L98.5054 80.7141
" />
<path d="M99.4713 80.9729
L98.5054 80.7141
" />
<path d="M107.4390 97.6017
L108.4049 97.8605
" />
<path d="M108.6637 96.8946
L108.4049 97.8605
" />
<path d="M109.9485 99.8270
L92.5618 95.1683
" />
<path d="M112.0284 84.3375
L111.0624 84.0787
" />
<path d="M112.0284 84.3375
L111.7695 85.3035
" />
<path d="M114.3484 83.4063
L109.9485 99.8270
" />
<path d="M74.0750 10.0790
L92.0750 10.0790
" />
<path d="M74.0750 27.0790
L74.0750 10.0790
" />
<path d="M76.0750 12.5790
L76.0750 11.5790
" />
<path d="M76.0750 25.5790
L76.0750 24.5790
" />
<path d="M76.0750 25.5790
L77.0750 25.5790
" />
<path d="M77.0750 11.5790
L76.0750 11.5790
" />
<path d="M89.0750 25.5790
L90.0750 25.5790
" />
<path d="M90.0750 11.5790
L89.0750 11.5790
" />
<path d="M90.0750 11.5790
L90.0750 12.5790
" />
<path d="M90.0750 24.5790
L90.0750 25.5790
" />
<path d="M92.0750 10.0790
L92.0750 27.0790
" />
<path d="M92.0750 27.0790
L74.0750 27.0790
" />
<path d="M38.0750 53.0790
L56.0750 53.0790
" />
<path d="M38.0750 70.0790
L38.0750 53.0790
" />
<path d="M40.0750 55.5790
L40.0750 54.5790
" />
<path d="M40.0750 68.5790
L40.0750 67.5790
" />
<path d="M40.0750 68.5790
L41.0750 68.5790
" />
<path d="M41.0750 54.5790
L40.0750 54.5790
" />
<path d="M53.0750 68.5790
L54.0750 68.5790
" />
<path d="M54.0750 54.5790
L53.0750 54.5790
" />
<path d="M54.0750 54.5790
L54.0750 55.5790
" />
<path d="M54.0750 67.5790
L54.0750 68.5790
" />
<path d="M56.0750 53.0790
L56.0750 70.0790
" />
<path d="M56.0750 70.0790
L38.0750 70.0790
" />
<path d="M95.0750 6.5790
L109.0750 6.5790
" />
<path d="M95.0750 42.5790
L95.0750 6.5790
" />
<path d="M96.6750 37.9790
L96.6750 12.6790
" />
<path d="M96.6750 37.9790
L107.4750 37.9790
" />
<path d="M107.4750 12.6790
L96.6750 12.6790
" />
<path d="M107.4750 37.9790
L107.4750 12.6790
" />
<path d="M109.0750 42.5790
L95.0750 42.5790
" />
<path d="M109.0750 42.5790
L109.0750 6.5790
" />
<path d="M2.0750 19.5790
L20.0750 19.5790
" />
<path d="M2.0750 36.5790
L2.0750 19.5790
" />
<path d="M4.0750 22.0790
L4.0750 21.0790
" />
<path d="M4.0750 35.0790
L4.0750 34.0790
" />
<path d="M4.0750 35.0790
L5.0750 35.0790
" />
<path d="M5.0750 21.0790
L4.0750 21.0790
" />
<path d="M17.0750 35.0790
L18.0750 35.0790
" />
<path d="M18.0750 21.0790
L17.0750 21.0790
" />
<path d="M18.0750 21.0790
L18.0750 22.0790
" />
<path d="M18.0750 34.0790
L18.0750 35.0790
" />
<path d="M20.0750 19.5790
L20.0750 36.5790
" />
<path d="M20.0750 36.5790
L2.0750 36.5790
" />
<path d="M38.0750 36.0790
L56.0750 36.0790
" />
<path d="M38.0750 53.0790
L38.0750 36.0790
" />
<path d="M40.0750 38.5790
L40.0750 37.5790
" />
<path d="M40.0750 51.5790
L40.0750 50.5790
" />
<path d="M40.0750 51.5790
L41.0750 51.5790
" />
<path d="M41.0750 37.5790
L40.0750 37.5790
" />
<path d="M53.0750 51.5790
L54.0750 51.5790
" />
<path d="M54.0750 37.5790
L53.0750 37.5790
" />
<path d="M54.0750 37.5790
L54.0750 38.5790
" />
<path d="M54.0750 50.5790
L54.0750 51.5790
" />
<path d="M56.0750 36.0790
L56.0750 53.0790
" />
<path d="M56.0750 53.0790
L38.0750 53.0790
" />
<path d="M20.0750 7.0790
L38.0750 7.0790
" />
<path d="M20.0750 24.0790
L20.0750 7.0790
" />
<path d="M22.0750 9.5790
L22.0750 8.5790
" />
<path d="M22.0750 22.5790
L22.0750 21.5790
" />
<path d="M22.0750 22.5790
L23.0750 22.5790
" />
<path d="M23.0750 8.5790
L22.0750 8.5790
" />
<path d="M35.0750 22.5790
L36.0750 22.5790
" />
<path d="M36.0750 8.5790
L35.0750 8.5790
" />
<path d="M36.0750 8.5790
L36.0750 9.5790
" />
<path d="M36.0750 21.5790
L36.0750 22.5790
" />
<path d="M38.0750 7.0790
L38.0750 24.0790
" />
<path d="M38.0750 24.0790
L20.0750 24.0790
" />
<path d="M93.0750 61.0790
L111.0750 61.0790
" />
<path d="M93.0750 78.0790
L93.0750 61.0790
" />
<path d="M95.0750 63.5790
L95.0750 62.5790
" />
<path d="M95.0750 76.5790
L95.0750 75.5790
" />
<path d="M95.0750 76.5790
L96.0750 76.5790
" />
<path d="M96.0750 62.5790
L95.0750 62.5790
" />
<path d="M108.0750 76.5790
L109.0750 76.5790
" />
<path d="M109.0750 62.5790
L108.0750 62.5790
" />
<path d="M109.0750 62.5790
L109.0750 63.5790
" />
<path d="M109.0750 75.5790
L109.0750 76.5790
" />
<path d="M111.0750 61.0790
L111.0750 78.0790
" />
<path d="M111.0750 78.0790
L93.0750 78.0790
" />
<path d="M110.1136 99.6970
L118.6136 84.9746
" />
<path d="M112.5956 99.3980
L113.0956 98.5320
" />
<path d="M112.5956 99.3980
L113.4617 99.8980
" />
<path d="M118.6136 84.9746
L134.2020 93.9746
" />
<path d="M119.0956 88.1396
L119.5956 87.2736
" />
<path d="M120.4617 87.7736
L119.5956 87.2736
" />
<path d="M123.8540 105.8980
L124.7200 106.3980
" />
<path d="M125.2200 105.5320
L124.7200 106.3980
" />
<path d="M125.7020 108.6970
L110.1136 99.6970
" />
<path d="M131.7200 94.2736
L130.8540 93.7736
" />
<path d="M131.7200 94.2736
L131.2200 95.1396
" />
<path d="M134.2020 93.9746
L125.7020 108.6970
" />
<path d="M74.0750 27.0790
L92.0750 27.0790
" />
<path d="M74.0750 44.0790
L74.0750 27.0790
" />
<path d="M76.0750 29.5790
L76.0750 28.5790
" />
<path d="M76.0750 42.5790
L76.0750 41.5790
" />
<path d="M76.0750 42.5790
L77.0750 42.5790
" />
<path d="M77.0750 28.5790
L76.0750 28.5790
" />
<path d="M89.0750 42.5790
L90.0750 42.5790
" />
<path d="M90.0750 28.5790
L89.0750 28.5790
" />
<path d="M90.0750 28.5790
L90.0750 29.5790
" />
<path d="M90.0750 41.5790
L90.0750 42.5790
" />
<path d="M92.0750 27.0790
L92.0750 44.0790
" />
<path d="M92.0750 44.0790
L74.0750 44.0790
" />
<path d="M56.0750 7.0790
L74.0750 7.0790
" />
<path d="M56.0750 24.0790
L56.0750 7.0790
" />
<path d="M58.0750 9.5790
L58.0750 8.5790
" />
<path d="M58.0750 22.5790
L58.0750 21.5790
" />
<path d="M58.0750 22.5790
L59.0750 22.5790
" />
<path d="M59.0750 8.5790
L58.0750 8.5790
" />
<path d="M71.0750 22.5790
L72.0750 22.5790
" />
<path d="M72.0750 8.5790
L71.0750 8.5790
" />
<path d="M72.0750 8.5790
L72.0750 9.5790
" />
<path d="M72.0750 21.5790
L72.0750 22.5790
" />
<path d="M74.0750 7.0790
L74.0750 24.0790
" />
<path d="M74.0750 24.0790
L56.0750 24.0790
" />
<path d="M93.0750 44.0790
L111.0750 44.0790
" />
<path d="M93.0750 61.0790
L93.0750 44.0790
" />
<path d="M95.0750 46.5790
L95.0750 45.5790
" />
<path d="M95.0750 59.5790
L95.0750 58.5790
" />
<path d="M95.0750 59.5790
L96.0750 59.5790
" />
<path d="M96.0750 45.5790
L95.0750 45.5790
" />
<path d="M108.0750 59.5790
L109.0750 59.5790
" />
<path d="M109.0750 45.5790
L108.0750 45.5790
" />
<path d="M109.0750 45.5790
L109.0750 46.5790
" />
<path d="M109.0750 58.5790
L109.0750 59.5790
" />
<path d="M111.0750 44.0790
L111.0750 61.0790
" />
<path d="M111.0750 61.0790
L93.0750 61.0790
" />
</g>
<g style="fill:none; 
stroke:#C2C2C2; stroke-width:0.1000; stroke-opacity:1; 
stroke-linecap:round; stroke-linejoin:round;">
<path d="M43.8250 87.6290
L51.4250 87.6290
" />
<path d="M43.8250 93.5290
L43.8250 87.6290
" />
<path d="M49.8250 88.3290
L49.8250 92.8290
" />
<path d="M49.8250 92.8290
L51.4250 92.8290
" />
<path d="M51.4250 87.6290
L51.4250 88.3290
" />
<path d="M51.4250 88.3290
L49.8250 88.3290
" />
<path d="M51.4250 92.8290
L51.4250 93.5290
" />
<path d="M51.4250 93.5290
L43.8250 93.5290
" />
<path d="M76.5369 7.0429
L81.2048 7.5912
" />
<path d="M76.9452 3.5668
L76.5369 7.0429
" />
<path d="M76.9452 3.5668
L81.6131 4.1151
" />
<path d="M78.1047 2.6961
L77.9881 3.6893
" />
<path d="M78.1047 2.6961
L80.6870 2.9994
" />
<path d="M80.6870 2.9994
L80.5703 3.9926
" />
<path d="M81.6131 4.1151
L81.2048 7.5912
" />
<path d="M61.5962 4.4793
L61.8984 1.9069
" />
<path d="M61.8984 1.9069
L68.5526 2.6886
" />
<path d="M63.8351 2.1345
L65.1262 2.2861
" />
<path d="M63.9926 0.7937
L63.8351 2.1345
" />
<path d="M64.2145 0.6184
L63.9926 0.7937
" />
<path d="M65.0587 0.7175
L64.2145 0.6184
" />
<path d="M65.1262 2.2861
L65.2779 0.9950
" />
<path d="M65.2779 0.9950
L65.0587 0.7175
" />
<path d="M65.3260 2.2995
L65.4765 1.0183
" />
<path d="M65.4765 1.0183
L65.7540 0.7992
" />
<path d="M65.7540 0.7992
L66.5982 0.8984
" />
<path d="M66.5982 0.8984
L66.7735 1.1203
" />
<path d="M66.6159 2.4611
L65.3260 2.2995
" />
<path d="M66.7735 1.1203
L66.6159 2.4611
" />
<path d="M68.2505 5.2609
L61.5962 4.4793
" />
<path d="M68.5526 2.6886
L68.2505 5.2609
" />
</g>
<g style="fill:none; 
stroke:#C2C2C2; stroke-width:0.1500; stroke-opacity:1; 
stroke-linecap:round; stroke-linejoin:round;">
<path d="M38.0750 19.0790
L56.0750 19.0790
" />
<path d="M38.0750 36.0790
L38.0750 19.0790
" />
<path d="M40.0750 21.5790
L40.0750 20.5790
" />
<path d="M40.0750 34.5790
L40.0750 33.5790
" />
<path d="M40.0750 34.5790
L41.0750 34.5790
" />
<path d="M41.0750 20.5790
L40.0750 20.5790
" />
<path d="M53.0750 34.5790
L54.0750 34.5790
" />
<path d="M54.0750 20.5790
L53.0750 20.5790
" />
<path d="M54.0750 20.5790
L54.0750 21.5790
" />
<path d="M54.0750 33.5790
L54.0750 34.5790
" />
<path d="M56.0750 19.0790
L56.0750 36.0790
" />
<path d="M56.0750 36.0790
L38.0750 36.0790
" />
</g>
<g style="fill:#C2C2C2; fill-opacity:1.0000; stroke:none;">
<circle cx="5.5750" cy="79.0790" r="0.8509" /> 
</g>
<g style="fill:#C2C2C2; fill-opacity:1.0000; stroke:none;">
<circle cx="6.0750" cy="75.3290" r="1.5000" /> 
</g>
<g style="fill:#C2C2C2; fill-opacity:1.0000; stroke:none;">
<circle cx="11.0750" cy="73.1290" r="1.5000" /> 
</g>
<g style="fill:#C2C2C2; fill-opacity:1.0000; stroke:none;">
<circle cx="11.0750" cy="79.0790" r="1.7145" /> 
</g>
<g style="fill:#C2C2C2; fill-opacity:1.0000; stroke:none;">
<circle cx="16.0750" cy="75.3290" r="1.5000" /> 
</g>
<g style="fill:#C2C2C2; fill-opacity:1.0000; stroke:none;">
<circle cx="16.5750" cy="79.0790" r="0.8509" /> 
</g>
<g style="fill:#C2C2C2; fill-opacity:1.0000; stroke:none;">
<circle cx="59.5750" cy="86.5790" r="0.8509" /> 
</g>
<g style="fill:#C2C2C2; fill-opacity:1.0000; stroke:none;">
<circle cx="60.0750" cy="82.8290" r="1.5000" /> 
</g>
<g style="fill:#C2C2C2; fill-opacity:1.0000; stroke:none;">
<circle cx="65.0750" cy="80.6290" r="1.5000" /> 
</g>
<g style="fill:#C2C2C2; fill-opacity:1.0000; stroke:none;">
<circle cx="65.0750" cy="86.5790" r="1.7145" /> 
</g>
<g style="fill:#C2C2C2; fill-opacity:1.0000; stroke:none;">
<circle cx="70.0750" cy="82.8290" r="1.5000" /> 
</g>
<g style="fill:#C2C2C2; fill-opacity:1.0000; stroke:none;">
<circle cx="70.5750" cy="86.5790" r="0.8509" /> 
</g>
<g style="fill:#C2C2C2; fill-opacity:1.0000; stroke:none;">
<circle cx="23.5750" cy="49.5790" r="0.8509" /> 
</g>
<g style="fill:#C2C2C2; fill-opacity:1.0000; stroke:none;">
<circle cx="24.0750" cy="45.8290" r="1.5000" /> 
</g>
<g style="fill:#C2C2C2; fill-opacity:1.0000; stroke:none;">
<circle cx="29.0750" cy="43.6290" r="1.5000" /> 
</g>
<g style="fill:#C2C2C2; fill-opacity:1.0000; stroke:none;">
<circle cx="29.0750" cy="49.5790" r="1.7145" /> 
</g>
<g style="fill:#C2C2C2; fill-opacity:1.0000; stroke:none;">
<circle cx="34.0750" cy="45.8290" r="1.5000" /> 
</g>
<g style="fill:#C2C2C2; fill-opacity:1.0000; stroke:none;">
<circle cx="34.5750" cy="49.5790" r="0.8509" /> 
</g>
<g style="fill:#C2C2C2; fill-opacity:1.0000; stroke:none;">
<circle cx="77.5750" cy="52.5790" r="0.8509" /> 
</g>
<g style="fill:#C2C2C2; fill-opacity:1.0000; stroke:none;">
<circle cx="78.0750" cy="48.8290" r="1.5000" /> 
</g>
<g style="fill:#C2C2C2; fill-opacity:1.0000; stroke:none;">
<circle cx="83.0750" cy="46.6290" r="1.5000" /> 
</g>
<g style="fill:#C2C2C2; fill-opacity:1.0000; stroke:none;">
<circle cx="83.0750" cy="52.5790" r="1.7145" /> 
</g>
<g style="fill:#C2C2C2; fill-opacity:1.0000; stroke:none;">
<circle cx="88.0750" cy="48.8290" r="1.5000" /> 
</g>
<g style="fill:#C2C2C2; fill-opacity:1.0000; stroke:none;">
<circle cx="88.5750" cy="52.5790" r="0.8509" /> 
</g>
<g style="fill:#C2C2C2; fill-opacity:1.0000; stroke:none;">
<circle cx="59.5750" cy="32.5790" r="0.8509" /> 
</g>
<g style="fill:#C2C2C2; fill-opacity:1.0000; stroke:none;">
<circle cx="60.0750" cy="28.8290" r="1.5000" /> 
</g>
<g style="fill:#C2C2C2; fill-opacity:1.0000; stroke:none;">
<circle cx="65.0750" cy="26.6290" r="1.5000" /> 
</g>
<g style="fill:#C2C2C2; fill-opacity:1.0000; stroke:none;">
<circle cx="65.0750" cy="32.5790" r="1.7145" /> 
</g>
<g style="fill:#C2C2C2; fill-opacity:1.0000; stroke:none;">
<circle cx="70.0750" cy="28.8290" r="1.5000" /> 
</g>
<g style="fill:#C2C2C2; fill-opacity:1.0000; stroke:none;">
<circle cx="70.5750" cy="32.5790" r="0.8509" /> 
</g>
<g style="fill:#C2C2C2; fill-opacity:1.0000; stroke:none;">
<circle cx="59.5750" cy="49.5790" r="0.8509" /> 
</g>
<g style="fill:#C2C2C2; fill-opacity:1.0000; stroke:none;">
<circle cx="60.0750" cy="45.8290" r="1.5000" /> 
</g>
<g style="fill:#C2C2C2; fill-opacity:1.0000; stroke:none;">
<circle cx="65.0750" cy="43.6290" r="1.5000" /> 
</g>
<g style="fill:#C2C2C2; fill-opacity:1.0000; stroke:none;">
<circle cx="65.0750" cy="49.5790" r="1.7145" /> 
</g>
<g style="fill:#C2C2C2; fill-opacity:1.0000; stroke:none;">
<circle cx="70.0750" cy="45.8290" r="1.5000" /> 
</g>
<g style="fill:#C2C2C2; fill-opacity:1.0000; stroke:none;">
<circle cx="70.5750" cy="49.5790" r="0.8509" /> 
</g>
<g style="fill:#C2C2C2; fill-opacity:1.0000; stroke:none;">
<circle cx="23.5750" cy="32.5790" r="0.8509" /> 
</g>
<g style="fill:#C2C2C2; fill-opacity:1.0000; stroke:none;">
<circle cx="24.0750" cy="28.8290" r="1.5000" /> 
</g>
<g style="fill:#C2C2C2; fill-opacity:1.0000; stroke:none;">
<circle cx="29.0750" cy="26.6290" r="1.5000" /> 
</g>
<g style="fill:#C2C2C2; fill-opacity:1.0000; stroke:none;">
<circle cx="29.0750" cy="32.5790" r="1.7145" /> 
</g>
<g style="fill:#C2C2C2; fill-opacity:1.0000; stroke:none;">
<circle cx="34.0750" cy="28.8290" r="1.5000" /> 
</g>
<g style="fill:#C2C2C2; fill-opacity:1.0000; stroke:none;">
<circle cx="34.5750" cy="32.5790" r="0.8509" /> 
</g>
<g style="fill:#C2C2C2; fill-opacity:1.0000; stroke:none;">
<circle cx="59.5750" cy="66.5790" r="0.8509" /> 
</g>
<g style="fill:#C2C2C2; fill-opacity:1.0000; stroke:none;">
<circle cx="60.0750" cy="62.8290" r="1.5000" /> 
</g>
<g style="fill:#C2C2C2; fill-opacity:1.0000; stroke:none;">
<circle cx="65.0750" cy="60.6290" r="1.5000" /> 
</g>
<g style="fill:#C2C2C2; fill-opacity:1.0000; stroke:none;">
<circle cx="65.0750" cy="66.5790" r="1.7145" /> 
</g>
<g style="fill:#C2C2C2; fill-opacity:1.0000; stroke:none;">
<circle cx="70.0750" cy="62.8290" r="1.5000" /> 
</g>
<g style="fill:#C2C2C2; fill-opacity:1.0000; stroke:none;">
<circle cx="70.5750" cy="66.5790" r="0.8509" /> 
</g>
<g style="fill:#C2C2C2; fill-opacity:1.0000; stroke:none;">
<circle cx="77.5750" cy="86.5790" r="0.8509" /> 
</g>
<g style="fill:#C2C2C2; fill-opacity:1.0000; stroke:none;">
<circle cx="78.0750" cy="82.8290" r="1.5000" /> 
</g>
<g style="fill:#C2C2C2; fill-opacity:1.0000; stroke:none;">
<circle cx="83.0750" cy="80.6290" r="1.5000" /> 
</g>
<g style="fill:#C2C2C2; fill-opacity:1.0000; stroke:none;">
<circle cx="83.0750" cy="86.5790" r="1.7145" /> 
</g>
<g style="fill:#C2C2C2; fill-opacity:1.0000; stroke:none;">
<circle cx="88.0750" cy="82.8290" r="1.5000" /> 
</g>
<g style="fill:#C2C2C2; fill-opacity:1.0000; stroke:none;">
<circle cx="88.5750" cy="86.5790" r="0.8509" /> 
</g>
<g style="fill:#C2C2C2; fill-opacity:1.0000; stroke:none;">
<circle cx="23.5750" cy="66.5790" r="0.8509" /> 
</g>
<g style="fill:#C2C2C2; fill-opacity:1.0000; stroke:none;">
<circle cx="24.0750" cy="62.8290" r="1.5000" /> 
</g>
<g style="fill:#C2C2C2; fill-opacity:1.0000; stroke:none;">
<circle cx="29.0750" cy="60.6290" r="1.5000" /> 
</g>
<g style="fill:#C2C2C2; fill-opacity:1.0000; stroke:none;">
<circle cx="29.0750" cy="66.5790" r="1.7145" /> 
</g>
<g style="fill:#C2C2C2; fill-opacity:1.0000; stroke:none;">
<circle cx="34.0750" cy="62.8290" r="1.5000" /> 
</g>
<g style="fill:#C2C2C2; fill-opacity:1.0000; stroke:none;">
<circle cx="34.5750" cy="66.5790" r="0.8509" /> 
</g>
<g style="fill:#C2C2C2; fill-opacity:1.0000; stroke:none;">
<circle cx="77.5750" cy="69.5790" r="0.8509" /> 
</g>
<g style="fill:#C2C2C2; fill-opacity:1.0000; stroke:none;">
<circle cx="78.0750" cy="65.8290" r="1.5000" /> 
</g>
<g style="fill:#C2C2C2; fill-opacity:1.0000; stroke:none;">
<circle cx="83.0750" cy="63.6290" r="1.5000" /> 
</g>
<g style="fill:#C2C2C2; fill-opacity:1.0000; stroke:none;">
<circle cx="83.0750" cy="69.5790" r="1.7145" /> 
</g>
<g style="fill:#C2C2C2; fill-opacity:1.0000; stroke:none;">
<circle cx="88.0750" cy="65.8290" r="1.5000" /> 
</g>
<g style="fill:#C2C2C2; fill-opacity:1.0000; stroke:none;">
<circle cx="88.5750" cy="69.5790" r="0.8509" /> 
</g>
<g style="fill:#C2C2C2; fill-opacity:1.0000; stroke:none;">
<circle cx="5.5750" cy="45.0790" r="0.8509" /> 
</g>
<g style="fill:#C2C2C2; fill-opacity:1.0000; stroke:none;">
<circle cx="6.0750" cy="41.3290" r="1.5000" /> 
</g>
<g style="fill:#C2C2C2; fill-opacity:1.0000; stroke:none;">
<circle cx="11.0750" cy="39.1290" r="1.5000" /> 
</g>
<g style="fill:#C2C2C2; fill-opacity:1.0000; stroke:none;">
<circle cx="11.0750" cy="45.0790" r="1.7145" /> 
</g>
<g style="fill:#C2C2C2; fill-opacity:1.0000; stroke:none;">
<circle cx="16.0750" cy="41.3290" r="1.5000" /> 
</g>
<g style="fill:#C2C2C2; fill-opacity:1.0000; stroke:none;">
<circle cx="16.5750" cy="45.0790" r="0.8509" /> 
</g>
<g style="fill:#C2C2C2; fill-opacity:1.0000; stroke:none;">
<circle cx="5.5750" cy="62.0790" r="0.8509" /> 
</g>
<g style="fill:#C2C2C2; fill-opacity:1.0000; stroke:none;">
<circle cx="6.0750" cy="58.3290" r="1.5000" /> 
</g>
<g style="fill:#C2C2C2; fill-opacity:1.0000; stroke:none;">
<circle cx="11.0750" cy="56.1290" r="1.5000" /> 
</g>
<g style="fill:#C2C2C2; fill-opacity:1.0000; stroke:none;">
<circle cx="11.0750" cy="62.0790" r="1.7145" /> 
</g>
<g style="fill:#C2C2C2; fill-opacity:1.0000; stroke:none;">
<circle cx="16.0750" cy="58.3290" r="1.5000" /> 
</g>
<g style="fill:#C2C2C2; fill-opacity:1.0000; stroke:none;">
<circle cx="16.5750" cy="62.0790" r="0.8509" /> 
</g>
<g style="fill:#C2C2C2; fill-opacity:1.0000; stroke:none;">
<circle cx="41.5750" cy="10.5790" r="0.8509" /> 
</g>
<g style="fill:#C2C2C2; fill-opacity:1.0000; stroke:none;">
<circle cx="42.0750" cy="6.8290" r="1.5000" /> 
</g>
<g style="fill:#C2C2C2; fill-opacity:1.0000; stroke:none;">
<circle cx="47.0750" cy="4.6290" r="1.5000" /> 
</g>
<g style="fill:#C2C2C2; fill-opacity:1.0000; stroke:none;">
<circle cx="47.0750" cy="10.5790" r="1.7145" /> 
</g>
<g style="fill:#C2C2C2; fill-opacity:1.0000; stroke:none;">
<circle cx="52.0750" cy="6.8290" r="1.5000" /> 
</g>
<g style="fill:#C2C2C2; fill-opacity:1.0000; stroke:none;">
<circle cx="52.5750" cy="10.5790" r="0.8509" /> 
</g>
<g style="fill:#C2C2C2; fill-opacity:1.0000; stroke:none;">
<circle cx="98.1425" cy="87.8638" r="0.8509" /> 
</g>
<g style="fill:#C2C2C2; fill-opacity:1.0000; stroke:none;">
<circle cx="99.5961" cy="84.3710" r="1.5000" /> 
</g>
<g style="fill:#C2C2C2; fill-opacity:1.0000; stroke:none;">
<circle cx="104.9951" cy="83.5400" r="1.5000" /> 
</g>
<g style="fill:#C2C2C2; fill-opacity:1.0000; stroke:none;">
<circle cx="103.4551" cy="89.2873" r="1.7145" /> 
</g>
<g style="fill:#C2C2C2; fill-opacity:1.0000; stroke:none;">
<circle cx="109.2553" cy="86.9592" r="1.5000" /> 
</g>
<g style="fill:#C2C2C2; fill-opacity:1.0000; stroke:none;">
<circle cx="108.7677" cy="90.7108" r="0.8509" /> 
</g>
<g style="fill:#C2C2C2; fill-opacity:1.0000; stroke:none;">
<circle cx="77.5750" cy="18.5790" r="0.8509" /> 
</g>
<g style="fill:#C2C2C2; fill-opacity:1.0000; stroke:none;">
<circle cx="78.0750" cy="14.8290" r="1.5000" /> 
</g>
<g style="fill:#C2C2C2; fill-opacity:1.0000; stroke:none;">
<circle cx="83.0750" cy="12.6290" r="1.5000" /> 
</g>
<g style="fill:#C2C2C2; fill-opacity:1.0000; stroke:none;">
<circle cx="83.0750" cy="18.5790" r="1.7145" /> 
</g>
<g style="fill:#C2C2C2; fill-opacity:1.0000; stroke:none;">
<circle cx="88.0750" cy="14.8290" r="1.5000" /> 
</g>
<g style="fill:#C2C2C2; fill-opacity:1.0000; stroke:none;">
<circle cx="88.5750" cy="18.5790" r="0.8509" /> 
</g>
<g style="fill:#C2C2C2; fill-opacity:1.0000; stroke:none;">
<circle cx="41.5750" cy="61.5790" r="0.8509" /> 
</g>
<g style="fill:#C2C2C2; fill-opacity:1.0000; stroke:none;">
<circle cx="42.0750" cy="57.8290" r="1.5000" /> 
</g>
<g style="fill:#C2C2C2; fill-opacity:1.0000; stroke:none;">
<circle cx="47.0750" cy="55.6290" r="1.5000" /> 
</g>
<g style="fill:#C2C2C2; fill-opacity:1.0000; stroke:none;">
<circle cx="47.0750" cy="61.5790" r="1.7145" /> 
</g>
<g style="fill:#C2C2C2; fill-opacity:1.0000; stroke:none;">
<circle cx="52.0750" cy="57.8290" r="1.5000" /> 
</g>
<g style="fill:#C2C2C2; fill-opacity:1.0000; stroke:none;">
<circle cx="52.5750" cy="61.5790" r="0.8509" /> 
</g>
<g style="fill:#C2C2C2; fill-opacity:1.0000; stroke:none;">
<circle cx="5.5750" cy="28.0790" r="0.8509" /> 
</g>
<g style="fill:#C2C2C2; fill-opacity:1.0000; stroke:none;">
<circle cx="6.0750" cy="24.3290" r="1.5000" /> 
</g>
<g style="fill:#C2C2C2; fill-opacity:1.0000; stroke:none;">
<circle cx="11.0750" cy="22.1290" r="1.5000" /> 
</g>
<g style="fill:#C2C2C2; fill-opacity:1.0000; stroke:none;">
<circle cx="11.0750" cy="28.0790" r="1.7145" /> 
</g>
<g style="fill:#C2C2C2; fill-opacity:1.0000; stroke:none;">
<circle cx="16.0750" cy="24.3290" r="1.5000" /> 
</g>
<g style="fill:#C2C2C2; fill-opacity:1.0000; stroke:none;">
<circle cx="16.5750" cy="28.0790" r="0.8509" /> 
</g>
<g style="fill:#C2C2C2; fill-opacity:1.0000; stroke:none;">
<circle cx="41.5750" cy="44.5790" r="0.8509" /> 
</g>
<g style="fill:#C2C2C2; fill-opacity:1.0000; stroke:none;">
<circle cx="42.0750" cy="40.8290" r="1.5000" /> 
</g>
<g style="fill:#C2C2C2; fill-opacity:1.0000; stroke:none;">
<circle cx="47.0750" cy="38.6290" r="1.5000" /> 
</g>
<g style="fill:#C2C2C2; fill-opacity:1.0000; stroke:none;">
<circle cx="47.0750" cy="44.5790" r="1.7145" /> 
</g>
<g style="fill:#C2C2C2; fill-opacity:1.0000; stroke:none;">
<circle cx="52.0750" cy="40.8290" r="1.5000" /> 
</g>
<g style="fill:#C2C2C2; fill-opacity:1.0000; stroke:none;">
<circle cx="52.5750" cy="44.5790" r="0.8509" /> 
</g>
<g style="fill:#C2C2C2; fill-opacity:1.0000; stroke:none;">
<circle cx="23.5750" cy="15.5790" r="0.8509" /> 
</g>
<g style="fill:#C2C2C2; fill-opacity:1.0000; stroke:none;">
<circle cx="24.0750" cy="11.8290" r="1.5000" /> 
</g>
<g style="fill:#C2C2C2; fill-opacity:1.0000; stroke:none;">
<circle cx="29.0750" cy="9.6290" r="1.5000" /> 
</g>
<g style="fill:#C2C2C2; fill-opacity:1.0000; stroke:none;">
<circle cx="29.0750" cy="15.5790" r="1.7145" /> 
</g>
<g style="fill:#C2C2C2; fill-opacity:1.0000; stroke:none;">
<circle cx="34.0750" cy="11.8290" r="1.5000" /> 
</g>
<g style="fill:#C2C2C2; fill-opacity:1.0000; stroke:none;">
<circle cx="34.5750" cy="15.5790" r="0.8509" /> 
</g>
<g style="fill:#C2C2C2; fill-opacity:1.0000; stroke:none;">
<circle cx="96.5750" cy="69.5790" r="0.8509" /> 
</g>
<g style="fill:#C2C2C2; fill-opacity:1.0000; stroke:none;">
<circle cx="97.0750" cy="65.8290" r="1.5000" /> 
</g>
<g style="fill:#C2C2C2; fill-opacity:1.0000; stroke:none;">
<circle cx="102.0750" cy="63.6290" r="1.5000" /> 
</g>
<g style="fill:#C2C2C2; fill-opacity:1.0000; stroke:none;">
<circle cx="102.0750" cy="69.5790" r="1.7145" /> 
</g>
<g style="fill:#C2C2C2; fill-opacity:1.0000; stroke:none;">
<circle cx="107.0750" cy="65.8290" r="1.5000" /> 
</g>
<g style="fill:#C2C2C2; fill-opacity:1.0000; stroke:none;">
<circle cx="107.5750" cy="69.5790" r="0.8509" /> 
</g>
<g style="fill:#C2C2C2; fill-opacity:1.0000; stroke:none;">
<circle cx="117.3947" cy="94.0858" r="0.8509" /> 
</g>
<g style="fill:#C2C2C2; fill-opacity:1.0000; stroke:none;">
<circle cx="119.7027" cy="91.0882" r="1.5000" /> 
</g>
<g style="fill:#C2C2C2; fill-opacity:1.0000; stroke:none;">
<circle cx="125.1328" cy="91.6829" r="1.5000" /> 
</g>
<g style="fill:#C2C2C2; fill-opacity:1.0000; stroke:none;">
<circle cx="122.1578" cy="96.8358" r="1.7145" /> 
</g>
<g style="fill:#C2C2C2; fill-opacity:1.0000; stroke:none;">
<circle cx="128.3629" cy="96.0882" r="1.5000" /> 
</g>
<g style="fill:#C2C2C2; fill-opacity:1.0000; stroke:none;">
<circle cx="126.9210" cy="99.5858" r="0.8509" /> 
</g>
<g style="fill:#C2C2C2; fill-opacity:1.0000; stroke:none;">
<circle cx="77.5750" cy="35.5790" r="0.8509" /> 
</g>
<g style="fill:#C2C2C2; fill-opacity:1.0000; stroke:none;">
<circle cx="78.0750" cy="31.8290" r="1.5000" /> 
</g>
<g style="fill:#C2C2C2; fill-opacity:1.0000; stroke:none;">
<circle cx="83.0750" cy="29.6290" r="1.5000" /> 
</g>
<g style="fill:#C2C2C2; fill-opacity:1.0000; stroke:none;">
<circle cx="83.0750" cy="35.5790" r="1.7145" /> 
</g>
<g style="fill:#C2C2C2; fill-opacity:1.0000; stroke:none;">
<circle cx="88.0750" cy="31.8290" r="1.5000" /> 
</g>
<g style="fill:#C2C2C2; fill-opacity:1.0000; stroke:none;">
<circle cx="88.5750" cy="35.5790" r="0.8509" /> 
</g>
<g style="fill:#C2C2C2; fill-opacity:1.0000; stroke:none;">
<circle cx="59.5750" cy="15.5790" r="0.8509" /> 
</g>
<g style="fill:#C2C2C2; fill-opacity:1.0000; stroke:none;">
<circle cx="60.0750" cy="11.8290" r="1.5000" /> 
</g>
<g style="fill:#C2C2C2; fill-opacity:1.0000; stroke:none;">
<circle cx="65.0750" cy="9.6290" r="1.5000" /> 
</g>
<g style="fill:#C2C2C2; fill-opacity:1.0000; stroke:none;">
<circle cx="65.0750" cy="15.5790" r="1.7145" /> 
</g>
<g style="fill:#C2C2C2; fill-opacity:1.0000; stroke:none;">
<circle cx="70.0750" cy="11.8290" r="1.5000" /> 
</g>
<g style="fill:#C2C2C2; fill-opacity:1.0000; stroke:none;">
<circle cx="70.5750" cy="15.5790" r="0.8509" /> 
</g>
<g style="fill:#C2C2C2; fill-opacity:1.0000; stroke:none;">
<circle cx="96.5750" cy="52.5790" r="0.8509" /> 
</g>
<g style="fill:#C2C2C2; fill-opacity:1.0000; stroke:none;">
<circle cx="97.0750" cy="48.8290" r="1.5000" /> 
</g>
<g style="fill:#C2C2C2; fill-opacity:1.0000; stroke:none;">
<circle cx="102.0750" cy="46.6290" r="1.5000" /> 
</g>
<g style="fill:#C2C2C2; fill-opacity:1.0000; stroke:none;">
<circle cx="102.0750" cy="52.5790" r="1.7145" /> 
</g>
<g style="fill:#C2C2C2; fill-opacity:1.0000; stroke:none;">
<circle cx="107.0750" cy="48.8290" r="1.5000" /> 
</g>
<g style="fill:#C2C2C2; fill-opacity:1.0000; stroke:none;">
<circle cx="107.5750" cy="52.5790" r="0.8509" /> 
</g>
<g style="fill:#C2C2C2; fill-opacity:1.0000; stroke:none;">
<circle cx="41.5750" cy="27.5790" r="0.8509" /> 
</g>
<g style="fill:#C2C2C2; fill-opacity:1.0000; stroke:none;">
<circle cx="42.0750" cy="23.8290" r="1.5000" /> 
</g>
<g style="fill:#C2C2C2; fill-opacity:1.0000; stroke:none;">
<circle cx="47.0750" cy="21.6290" r="1.5000" /> 
</g>
<g style="fill:#C2C2C2; fill-opacity:1.0000; stroke:none;">
<circle cx="47.0750" cy="27.5790" r="1.7145" /> 
</g>
<g style="fill:#C2C2C2; fill-opacity:1.0000; stroke:none;">
<circle cx="52.0750" cy="23.8290" r="1.5000" /> 
</g>
<g style="fill:#C2C2C2; fill-opacity:1.0000; stroke:none;">
<circle cx="52.5750" cy="27.5790" r="0.8509" /> 
</g>
<g style="fill:none; 
stroke:#D0D2CD; stroke-width:0.1500; stroke-opacity:1; 
stroke-linecap:round; stroke-linejoin:round;">
<path d="M136.1532 94.5950
L127.5083 109.5684
" />
<path d="M36.4839 0.0790 A43.1777 43.1777 0.0 0 0 0.0750 19.1481" />
<path d="M124.3267 111.0111 A110.4412 110.4412 0.0 0 0 68.9311 97.0784" />
<path d="M113.0750 41.4139 A64.6040 64.6040 0.0 0 0 136.2741 91.8271" />
<path d="M0.0750 86.9668
L0.0750 19.1481
" />
<path d="M58.2451 0.0985 A3.0002 3.0002 0.0 0 0 57.9037 0.0790" />
<path d="M36.4839 0.0790
L57.9037 0.0790
" />
<path d="M136.1532 94.5950 A3.0000 3.0000 0.0 0 0 136.2741 91.8271" />
<path d="M113.0750 9.0550 A3.0000 3.0000 0.0 0 0 110.4164 6.0744" />
<path d="M58.2451 0.0985
L110.4164 6.0744
" />
<path d="M113.0750 9.0550
L113.0750 41.4139
" />
<path d="M0.0750 86.9668 A2.9999 2.9999 0.0 0 0 2.6623 89.9383" />
<path d="M124.3267 111.0111 A3.0000 3.0000 0.0 0 0 127.5083 109.5684" />
<path d="M53.9891 97.0671
L68.9311 97.0784
" />
<path d="M53.9891 97.0671
L2.6623 89.9383
" />
</g> 
</svg>
